<?xml version="1.0" encoding="utf-8" standalone="no"?>
<!DOCTYPE svg PUBLIC "-//W3C//DTD SVG 1.1//EN"
  "http://www.w3.org/Graphics/SVG/1.1/DTD/svg11.dtd">
<svg xmlns:xlink="http://www.w3.org/1999/xlink" width="648pt" height="288pt" viewBox="0 0 648 288" xmlns="http://www.w3.org/2000/svg" version="1.1">
 <metadata>
  <rdf:RDF xmlns:dc="http://purl.org/dc/elements/1.1/" xmlns:cc="http://creativecommons.org/ns#" xmlns:rdf="http://www.w3.org/1999/02/22-rdf-syntax-ns#">
   <cc:Work>
    <dc:type rdf:resource="http://purl.org/dc/dcmitype/StillImage"/>
    <dc:date>2024-05-20T09:00:46.358104</dc:date>
    <dc:format>image/svg+xml</dc:format>
    <dc:creator>
     <cc:Agent>
      <dc:title>Matplotlib v3.7.0, https://matplotlib.org/</dc:title>
     </cc:Agent>
    </dc:creator>
   </cc:Work>
  </rdf:RDF>
 </metadata>
 <defs>
  <style type="text/css">*{stroke-linejoin: round; stroke-linecap: butt}</style>
 </defs>
 <g id="figure_1">
  <g id="patch_1">
   <path d="M 0 288 
L 648 288 
L 648 0 
L 0 0 
z
" style="fill: #ffffff"/>
  </g>
  <g id="axes_1">
   <g id="patch_2">
    <path d="M 95.6 242.44 
L 622.935 242.44 
L 622.935 27.6 
L 95.6 27.6 
z
" style="fill: #ffffff"/>
   </g>
   <g id="PathCollection_1">
    <defs>
     <path id="m3325eeb56f" d="M 0 3 
C 0.795609 3 1.55874 2.683901 2.12132 2.12132 
C 2.683901 1.55874 3 0.795609 3 0 
C 3 -0.795609 2.683901 -1.55874 2.12132 -2.12132 
C 1.55874 -2.683901 0.795609 -3 0 -3 
C -0.795609 -3 -1.55874 -2.683901 -2.12132 -2.12132 
C -2.683901 -1.55874 -3 -0.795609 -3 0 
C -3 0.795609 -2.683901 1.55874 -2.12132 2.12132 
C -1.55874 2.683901 -0.795609 3 0 3 
z
" style="stroke: #a0522d"/>
    </defs>
    <g clip-path="url(#p0ddbd6bbd0)">
     <use xlink:href="#m3325eeb56f" x="118.749881" y="173.114253" style="fill: #a0522d; stroke: #a0522d"/>
    </g>
   </g>
   <g id="PathCollection_2">
    <g clip-path="url(#p0ddbd6bbd0)">
     <use xlink:href="#m3325eeb56f" x="152.510124" y="176.258987" style="fill: #a0522d; stroke: #a0522d"/>
    </g>
   </g>
   <g id="PathCollection_3">
    <g clip-path="url(#p0ddbd6bbd0)">
     <use xlink:href="#m3325eeb56f" x="195.916151" y="180.041679" style="fill: #a0522d; stroke: #a0522d"/>
    </g>
   </g>
   <g id="PathCollection_4">
    <g clip-path="url(#p0ddbd6bbd0)">
     <use xlink:href="#m3325eeb56f" x="200.739043" y="194.137568" style="fill: #a0522d; stroke: #a0522d"/>
    </g>
   </g>
   <g id="PathCollection_5">
    <g clip-path="url(#p0ddbd6bbd0)">
     <use xlink:href="#m3325eeb56f" x="200.739043" y="192.964563" style="fill: #a0522d; stroke: #a0522d"/>
    </g>
   </g>
   <g id="PathCollection_6">
    <g clip-path="url(#p0ddbd6bbd0)">
     <use xlink:href="#m3325eeb56f" x="200.739043" y="194.727532" style="fill: #a0522d; stroke: #a0522d"/>
    </g>
   </g>
   <g id="PathCollection_7">
    <g clip-path="url(#p0ddbd6bbd0)">
     <use xlink:href="#m3325eeb56f" x="244.14507" y="198.454609" style="fill: #a0522d; stroke: #a0522d"/>
    </g>
   </g>
   <g id="PathCollection_8">
    <g clip-path="url(#p0ddbd6bbd0)">
     <use xlink:href="#m3325eeb56f" x="229.676395" y="195.054199" style="fill: #a0522d; stroke: #a0522d"/>
    </g>
   </g>
   <g id="PathCollection_9">
    <g clip-path="url(#p0ddbd6bbd0)">
     <use xlink:href="#m3325eeb56f" x="258.613746" y="196.749407" style="fill: #a0522d; stroke: #a0522d"/>
    </g>
   </g>
   <g id="PathCollection_10">
    <g clip-path="url(#p0ddbd6bbd0)">
     <use xlink:href="#m3325eeb56f" x="282.728206" y="194.602301" style="fill: #a0522d; stroke: #a0522d"/>
    </g>
   </g>
   <g id="PathCollection_11">
    <g clip-path="url(#p0ddbd6bbd0)">
     <use xlink:href="#m3325eeb56f" x="253.790854" y="211.461674" style="fill: #a0522d; stroke: #a0522d"/>
    </g>
   </g>
   <g id="PathCollection_12">
    <g clip-path="url(#p0ddbd6bbd0)">
     <use xlink:href="#m3325eeb56f" x="229.676395" y="204.252486" style="fill: #a0522d; stroke: #a0522d"/>
    </g>
   </g>
   <g id="PathCollection_13">
    <g clip-path="url(#p0ddbd6bbd0)">
     <use xlink:href="#m3325eeb56f" x="273.082422" y="205.060474" style="fill: #a0522d; stroke: #a0522d"/>
    </g>
   </g>
   <g id="PathCollection_14">
    <g clip-path="url(#p0ddbd6bbd0)">
     <use xlink:href="#m3325eeb56f" x="297.196881" y="197.997545" style="fill: #a0522d; stroke: #a0522d"/>
    </g>
   </g>
   <g id="PathCollection_15">
    <g clip-path="url(#p0ddbd6bbd0)">
     <use xlink:href="#m3325eeb56f" x="326.134233" y="196.014491" style="fill: #a0522d; stroke: #a0522d"/>
    </g>
   </g>
   <g id="PathCollection_16">
    <g clip-path="url(#p0ddbd6bbd0)">
     <use xlink:href="#m3325eeb56f" x="340.602908" y="201.276811" style="fill: #a0522d; stroke: #a0522d"/>
    </g>
   </g>
   <g id="PathCollection_17">
    <g clip-path="url(#p0ddbd6bbd0)">
     <use xlink:href="#m3325eeb56f" x="359.894476" y="201.663204" style="fill: #a0522d; stroke: #a0522d"/>
    </g>
   </g>
   <g id="PathCollection_18">
    <g clip-path="url(#p0ddbd6bbd0)">
     <use xlink:href="#m3325eeb56f" x="359.894476" y="205.112864" style="fill: #a0522d; stroke: #a0522d"/>
    </g>
   </g>
   <g id="PathCollection_19">
    <g clip-path="url(#p0ddbd6bbd0)">
     <use xlink:href="#m3325eeb56f" x="393.654719" y="180.530547" style="fill: #a0522d; stroke: #a0522d"/>
    </g>
   </g>
   <g id="PathCollection_20">
    <g clip-path="url(#p0ddbd6bbd0)">
     <use xlink:href="#m3325eeb56f" x="437.060746" y="151.578883" style="fill: #a0522d; stroke: #a0522d"/>
    </g>
   </g>
   <g id="PathCollection_21">
    <g clip-path="url(#p0ddbd6bbd0)">
     <use xlink:href="#m3325eeb56f" x="465.998098" y="141.490868" style="fill: #a0522d; stroke: #a0522d"/>
    </g>
   </g>
   <g id="PathCollection_22">
    <g clip-path="url(#p0ddbd6bbd0)">
     <use xlink:href="#m3325eeb56f" x="456.352314" y="129.914756" style="fill: #a0522d; stroke: #a0522d"/>
    </g>
   </g>
   <g id="PathCollection_23">
    <g clip-path="url(#p0ddbd6bbd0)">
     <use xlink:href="#m3325eeb56f" x="470.82099" y="116.997416" style="fill: #a0522d; stroke: #a0522d"/>
    </g>
   </g>
   <g id="PathCollection_24">
    <g clip-path="url(#p0ddbd6bbd0)">
     <use xlink:href="#m3325eeb56f" x="485.289665" y="111.52325" style="fill: #a0522d; stroke: #a0522d"/>
    </g>
   </g>
   <g id="PathCollection_25">
    <g clip-path="url(#p0ddbd6bbd0)">
     <use xlink:href="#m3325eeb56f" x="494.935449" y="113.995132" style="fill: #a0522d; stroke: #a0522d"/>
    </g>
   </g>
   <g id="PathCollection_26">
    <g clip-path="url(#p0ddbd6bbd0)">
     <use xlink:href="#m3325eeb56f" x="470.82099" y="92.147523" style="fill: #a0522d; stroke: #a0522d"/>
    </g>
   </g>
   <g id="PathCollection_27">
    <g clip-path="url(#p0ddbd6bbd0)">
     <use xlink:href="#m3325eeb56f" x="485.289665" y="88.727237" style="fill: #a0522d; stroke: #a0522d"/>
    </g>
   </g>
   <g id="PathCollection_28">
    <g clip-path="url(#p0ddbd6bbd0)">
     <use xlink:href="#m3325eeb56f" x="499.758341" y="69.743737" style="fill: #a0522d; stroke: #a0522d"/>
    </g>
   </g>
   <g id="PathCollection_29">
    <g clip-path="url(#p0ddbd6bbd0)">
     <use xlink:href="#m3325eeb56f" x="523.8728" y="58.233543" style="fill: #a0522d; stroke: #a0522d"/>
    </g>
   </g>
   <g id="PathCollection_30">
    <g clip-path="url(#p0ddbd6bbd0)">
     <use xlink:href="#m3325eeb56f" x="547.98726" y="51.065105" style="fill: #a0522d; stroke: #a0522d"/>
    </g>
   </g>
   <g id="PathCollection_31">
    <g clip-path="url(#p0ddbd6bbd0)">
     <use xlink:href="#m3325eeb56f" x="581.747503" y="46.7099" style="fill: #a0522d; stroke: #a0522d"/>
    </g>
   </g>
   <g id="PolyCollection_1">
    <path d="M 118.749881 -71440.219081 
L 118.749881 173.114253 
L 152.510124 176.258987 
L 195.916151 180.041679 
L 200.739043 194.137568 
L 200.739043 192.964563 
L 200.739043 194.727532 
L 244.14507 198.454609 
L 229.676395 195.054199 
L 258.613746 196.749407 
L 282.728206 194.602301 
L 253.790854 211.461674 
L 229.676395 204.252486 
L 273.082422 205.060474 
L 297.196881 197.997545 
L 326.134233 196.014491 
L 340.602908 201.276811 
L 359.894476 201.663204 
L 359.894476 205.112864 
L 393.654719 180.530547 
L 437.060746 151.578883 
L 465.998098 141.490868 
L 456.352314 129.914756 
L 470.82099 116.997416 
L 485.289665 111.52325 
L 494.935449 113.995132 
L 470.82099 92.147523 
L 485.289665 88.727237 
L 499.758341 69.743737 
L 523.8728 58.233543 
L 547.98726 51.065105 
L 581.747503 46.7099 
L 581.747503 -71566.623434 
L 581.747503 -71566.623434 
L 547.98726 -71562.268228 
L 523.8728 -71555.09979 
L 499.758341 -71543.589596 
L 485.289665 -71524.606096 
L 470.82099 -71521.18581 
L 494.935449 -71499.338202 
L 485.289665 -71501.810084 
L 470.82099 -71496.335917 
L 456.352314 -71483.418577 
L 465.998098 -71471.842465 
L 437.060746 -71461.754451 
L 393.654719 -71432.802787 
L 359.894476 -71408.220469 
L 359.894476 -71411.670129 
L 340.602908 -71412.056522 
L 326.134233 -71417.318842 
L 297.196881 -71415.335788 
L 273.082422 -71408.27286 
L 229.676395 -71409.080847 
L 253.790854 -71401.871659 
L 282.728206 -71418.731032 
L 258.613746 -71416.583926 
L 229.676395 -71418.279134 
L 244.14507 -71414.878724 
L 200.739043 -71418.605801 
L 200.739043 -71420.36877 
L 200.739043 -71419.195765 
L 195.916151 -71433.291654 
L 152.510124 -71437.074346 
L 118.749881 -71440.219081 
z
" clip-path="url(#p0ddbd6bbd0)" style="fill: #a0522d; fill-opacity: 0.1; stroke: #a0522d; stroke-opacity: 0.1"/>
   </g>
   <g id="matplotlib.axis_1">
    <g id="xtick_1">
     <g id="line2d_1">
      <defs>
       <path id="m6b77b5b59b" d="M 0 0 
L 0 3.5 
" style="stroke: #000000; stroke-width: 0.8"/>
      </defs>
      <g>
       <use xlink:href="#m6b77b5b59b" x="155.500317" y="242.44" style="stroke: #000000; stroke-width: 0.8"/>
      </g>
     </g>
     <g id="text_1">
      <!-- 0.588 -->
      <g transform="translate(141.186255 257.038437) scale(0.1 -0.1)">
       <defs>
        <path id="DejaVuSans-30" d="M 2034 4250 
Q 1547 4250 1301 3770 
Q 1056 3291 1056 2328 
Q 1056 1369 1301 889 
Q 1547 409 2034 409 
Q 2525 409 2770 889 
Q 3016 1369 3016 2328 
Q 3016 3291 2770 3770 
Q 2525 4250 2034 4250 
z
M 2034 4750 
Q 2819 4750 3233 4129 
Q 3647 3509 3647 2328 
Q 3647 1150 3233 529 
Q 2819 -91 2034 -91 
Q 1250 -91 836 529 
Q 422 1150 422 2328 
Q 422 3509 836 4129 
Q 1250 4750 2034 4750 
z
" transform="scale(0.015625)"/>
        <path id="DejaVuSans-2e" d="M 684 794 
L 1344 794 
L 1344 0 
L 684 0 
L 684 794 
z
" transform="scale(0.015625)"/>
        <path id="DejaVuSans-35" d="M 691 4666 
L 3169 4666 
L 3169 4134 
L 1269 4134 
L 1269 2991 
Q 1406 3038 1543 3061 
Q 1681 3084 1819 3084 
Q 2600 3084 3056 2656 
Q 3513 2228 3513 1497 
Q 3513 744 3044 326 
Q 2575 -91 1722 -91 
Q 1428 -91 1123 -41 
Q 819 9 494 109 
L 494 744 
Q 775 591 1075 516 
Q 1375 441 1709 441 
Q 2250 441 2565 725 
Q 2881 1009 2881 1497 
Q 2881 1984 2565 2268 
Q 2250 2553 1709 2553 
Q 1456 2553 1204 2497 
Q 953 2441 691 2322 
L 691 4666 
z
" transform="scale(0.015625)"/>
        <path id="DejaVuSans-38" d="M 2034 2216 
Q 1584 2216 1326 1975 
Q 1069 1734 1069 1313 
Q 1069 891 1326 650 
Q 1584 409 2034 409 
Q 2484 409 2743 651 
Q 3003 894 3003 1313 
Q 3003 1734 2745 1975 
Q 2488 2216 2034 2216 
z
M 1403 2484 
Q 997 2584 770 2862 
Q 544 3141 544 3541 
Q 544 4100 942 4425 
Q 1341 4750 2034 4750 
Q 2731 4750 3128 4425 
Q 3525 4100 3525 3541 
Q 3525 3141 3298 2862 
Q 3072 2584 2669 2484 
Q 3125 2378 3379 2068 
Q 3634 1759 3634 1313 
Q 3634 634 3220 271 
Q 2806 -91 2034 -91 
Q 1263 -91 848 271 
Q 434 634 434 1313 
Q 434 1759 690 2068 
Q 947 2378 1403 2484 
z
M 1172 3481 
Q 1172 3119 1398 2916 
Q 1625 2713 2034 2713 
Q 2441 2713 2670 2916 
Q 2900 3119 2900 3481 
Q 2900 3844 2670 4047 
Q 2441 4250 2034 4250 
Q 1625 4250 1398 4047 
Q 1172 3844 1172 3481 
z
" transform="scale(0.015625)"/>
       </defs>
       <use xlink:href="#DejaVuSans-30"/>
       <use xlink:href="#DejaVuSans-2e" x="63.623047"/>
       <use xlink:href="#DejaVuSans-35" x="95.410156"/>
       <use xlink:href="#DejaVuSans-38" x="159.033203"/>
       <use xlink:href="#DejaVuSans-38" x="222.65625"/>
      </g>
     </g>
    </g>
    <g id="xtick_2">
     <g id="line2d_2">
      <g>
       <use xlink:href="#m6b77b5b59b" x="272.358988" y="242.44" style="stroke: #000000; stroke-width: 0.8"/>
      </g>
     </g>
     <g id="text_2">
      <!-- 0.590 -->
      <g transform="translate(258.044926 257.038437) scale(0.1 -0.1)">
       <defs>
        <path id="DejaVuSans-39" d="M 703 97 
L 703 672 
Q 941 559 1184 500 
Q 1428 441 1663 441 
Q 2288 441 2617 861 
Q 2947 1281 2994 2138 
Q 2813 1869 2534 1725 
Q 2256 1581 1919 1581 
Q 1219 1581 811 2004 
Q 403 2428 403 3163 
Q 403 3881 828 4315 
Q 1253 4750 1959 4750 
Q 2769 4750 3195 4129 
Q 3622 3509 3622 2328 
Q 3622 1225 3098 567 
Q 2575 -91 1691 -91 
Q 1453 -91 1209 -44 
Q 966 3 703 97 
z
M 1959 2075 
Q 2384 2075 2632 2365 
Q 2881 2656 2881 3163 
Q 2881 3666 2632 3958 
Q 2384 4250 1959 4250 
Q 1534 4250 1286 3958 
Q 1038 3666 1038 3163 
Q 1038 2656 1286 2365 
Q 1534 2075 1959 2075 
z
" transform="scale(0.015625)"/>
       </defs>
       <use xlink:href="#DejaVuSans-30"/>
       <use xlink:href="#DejaVuSans-2e" x="63.623047"/>
       <use xlink:href="#DejaVuSans-35" x="95.410156"/>
       <use xlink:href="#DejaVuSans-39" x="159.033203"/>
       <use xlink:href="#DejaVuSans-30" x="222.65625"/>
      </g>
     </g>
    </g>
    <g id="xtick_3">
     <g id="line2d_3">
      <g>
       <use xlink:href="#m6b77b5b59b" x="389.217659" y="242.44" style="stroke: #000000; stroke-width: 0.8"/>
      </g>
     </g>
     <g id="text_3">
      <!-- 0.592 -->
      <g transform="translate(374.903596 257.038437) scale(0.1 -0.1)">
       <defs>
        <path id="DejaVuSans-32" d="M 1228 531 
L 3431 531 
L 3431 0 
L 469 0 
L 469 531 
Q 828 903 1448 1529 
Q 2069 2156 2228 2338 
Q 2531 2678 2651 2914 
Q 2772 3150 2772 3378 
Q 2772 3750 2511 3984 
Q 2250 4219 1831 4219 
Q 1534 4219 1204 4116 
Q 875 4013 500 3803 
L 500 4441 
Q 881 4594 1212 4672 
Q 1544 4750 1819 4750 
Q 2544 4750 2975 4387 
Q 3406 4025 3406 3419 
Q 3406 3131 3298 2873 
Q 3191 2616 2906 2266 
Q 2828 2175 2409 1742 
Q 1991 1309 1228 531 
z
" transform="scale(0.015625)"/>
       </defs>
       <use xlink:href="#DejaVuSans-30"/>
       <use xlink:href="#DejaVuSans-2e" x="63.623047"/>
       <use xlink:href="#DejaVuSans-35" x="95.410156"/>
       <use xlink:href="#DejaVuSans-39" x="159.033203"/>
       <use xlink:href="#DejaVuSans-32" x="222.65625"/>
      </g>
     </g>
    </g>
    <g id="xtick_4">
     <g id="line2d_4">
      <g>
       <use xlink:href="#m6b77b5b59b" x="506.076329" y="242.44" style="stroke: #000000; stroke-width: 0.8"/>
      </g>
     </g>
     <g id="text_4">
      <!-- 0.594 -->
      <g transform="translate(491.762267 257.038437) scale(0.1 -0.1)">
       <defs>
        <path id="DejaVuSans-34" d="M 2419 4116 
L 825 1625 
L 2419 1625 
L 2419 4116 
z
M 2253 4666 
L 3047 4666 
L 3047 1625 
L 3713 1625 
L 3713 1100 
L 3047 1100 
L 3047 0 
L 2419 0 
L 2419 1100 
L 313 1100 
L 313 1709 
L 2253 4666 
z
" transform="scale(0.015625)"/>
       </defs>
       <use xlink:href="#DejaVuSans-30"/>
       <use xlink:href="#DejaVuSans-2e" x="63.623047"/>
       <use xlink:href="#DejaVuSans-35" x="95.410156"/>
       <use xlink:href="#DejaVuSans-39" x="159.033203"/>
       <use xlink:href="#DejaVuSans-34" x="222.65625"/>
      </g>
     </g>
    </g>
    <g id="xtick_5">
     <g id="line2d_5">
      <g>
       <use xlink:href="#m6b77b5b59b" x="622.935" y="242.44" style="stroke: #000000; stroke-width: 0.8"/>
      </g>
     </g>
     <g id="text_5">
      <!-- 0.596 -->
      <g transform="translate(608.620937 257.038437) scale(0.1 -0.1)">
       <defs>
        <path id="DejaVuSans-36" d="M 2113 2584 
Q 1688 2584 1439 2293 
Q 1191 2003 1191 1497 
Q 1191 994 1439 701 
Q 1688 409 2113 409 
Q 2538 409 2786 701 
Q 3034 994 3034 1497 
Q 3034 2003 2786 2293 
Q 2538 2584 2113 2584 
z
M 3366 4563 
L 3366 3988 
Q 3128 4100 2886 4159 
Q 2644 4219 2406 4219 
Q 1781 4219 1451 3797 
Q 1122 3375 1075 2522 
Q 1259 2794 1537 2939 
Q 1816 3084 2150 3084 
Q 2853 3084 3261 2657 
Q 3669 2231 3669 1497 
Q 3669 778 3244 343 
Q 2819 -91 2113 -91 
Q 1303 -91 875 529 
Q 447 1150 447 2328 
Q 447 3434 972 4092 
Q 1497 4750 2381 4750 
Q 2619 4750 2861 4703 
Q 3103 4656 3366 4563 
z
" transform="scale(0.015625)"/>
       </defs>
       <use xlink:href="#DejaVuSans-30"/>
       <use xlink:href="#DejaVuSans-2e" x="63.623047"/>
       <use xlink:href="#DejaVuSans-35" x="95.410156"/>
       <use xlink:href="#DejaVuSans-39" x="159.033203"/>
       <use xlink:href="#DejaVuSans-36" x="222.65625"/>
      </g>
     </g>
    </g>
    <g id="text_6">
     <!-- Macro accuracy -->
     <g transform="translate(304.278125 273.755938) scale(0.14 -0.14)">
      <defs>
       <path id="DejaVuSans-4d" d="M 628 4666 
L 1569 4666 
L 2759 1491 
L 3956 4666 
L 4897 4666 
L 4897 0 
L 4281 0 
L 4281 4097 
L 3078 897 
L 2444 897 
L 1241 4097 
L 1241 0 
L 628 0 
L 628 4666 
z
" transform="scale(0.015625)"/>
       <path id="DejaVuSans-61" d="M 2194 1759 
Q 1497 1759 1228 1600 
Q 959 1441 959 1056 
Q 959 750 1161 570 
Q 1363 391 1709 391 
Q 2188 391 2477 730 
Q 2766 1069 2766 1631 
L 2766 1759 
L 2194 1759 
z
M 3341 1997 
L 3341 0 
L 2766 0 
L 2766 531 
Q 2569 213 2275 61 
Q 1981 -91 1556 -91 
Q 1019 -91 701 211 
Q 384 513 384 1019 
Q 384 1609 779 1909 
Q 1175 2209 1959 2209 
L 2766 2209 
L 2766 2266 
Q 2766 2663 2505 2880 
Q 2244 3097 1772 3097 
Q 1472 3097 1187 3025 
Q 903 2953 641 2809 
L 641 3341 
Q 956 3463 1253 3523 
Q 1550 3584 1831 3584 
Q 2591 3584 2966 3190 
Q 3341 2797 3341 1997 
z
" transform="scale(0.015625)"/>
       <path id="DejaVuSans-63" d="M 3122 3366 
L 3122 2828 
Q 2878 2963 2633 3030 
Q 2388 3097 2138 3097 
Q 1578 3097 1268 2742 
Q 959 2388 959 1747 
Q 959 1106 1268 751 
Q 1578 397 2138 397 
Q 2388 397 2633 464 
Q 2878 531 3122 666 
L 3122 134 
Q 2881 22 2623 -34 
Q 2366 -91 2075 -91 
Q 1284 -91 818 406 
Q 353 903 353 1747 
Q 353 2603 823 3093 
Q 1294 3584 2113 3584 
Q 2378 3584 2631 3529 
Q 2884 3475 3122 3366 
z
" transform="scale(0.015625)"/>
       <path id="DejaVuSans-72" d="M 2631 2963 
Q 2534 3019 2420 3045 
Q 2306 3072 2169 3072 
Q 1681 3072 1420 2755 
Q 1159 2438 1159 1844 
L 1159 0 
L 581 0 
L 581 3500 
L 1159 3500 
L 1159 2956 
Q 1341 3275 1631 3429 
Q 1922 3584 2338 3584 
Q 2397 3584 2469 3576 
Q 2541 3569 2628 3553 
L 2631 2963 
z
" transform="scale(0.015625)"/>
       <path id="DejaVuSans-6f" d="M 1959 3097 
Q 1497 3097 1228 2736 
Q 959 2375 959 1747 
Q 959 1119 1226 758 
Q 1494 397 1959 397 
Q 2419 397 2687 759 
Q 2956 1122 2956 1747 
Q 2956 2369 2687 2733 
Q 2419 3097 1959 3097 
z
M 1959 3584 
Q 2709 3584 3137 3096 
Q 3566 2609 3566 1747 
Q 3566 888 3137 398 
Q 2709 -91 1959 -91 
Q 1206 -91 779 398 
Q 353 888 353 1747 
Q 353 2609 779 3096 
Q 1206 3584 1959 3584 
z
" transform="scale(0.015625)"/>
       <path id="DejaVuSans-20" transform="scale(0.015625)"/>
       <path id="DejaVuSans-75" d="M 544 1381 
L 544 3500 
L 1119 3500 
L 1119 1403 
Q 1119 906 1312 657 
Q 1506 409 1894 409 
Q 2359 409 2629 706 
Q 2900 1003 2900 1516 
L 2900 3500 
L 3475 3500 
L 3475 0 
L 2900 0 
L 2900 538 
Q 2691 219 2414 64 
Q 2138 -91 1772 -91 
Q 1169 -91 856 284 
Q 544 659 544 1381 
z
M 1991 3584 
L 1991 3584 
z
" transform="scale(0.015625)"/>
       <path id="DejaVuSans-79" d="M 2059 -325 
Q 1816 -950 1584 -1140 
Q 1353 -1331 966 -1331 
L 506 -1331 
L 506 -850 
L 844 -850 
Q 1081 -850 1212 -737 
Q 1344 -625 1503 -206 
L 1606 56 
L 191 3500 
L 800 3500 
L 1894 763 
L 2988 3500 
L 3597 3500 
L 2059 -325 
z
" transform="scale(0.015625)"/>
      </defs>
      <use xlink:href="#DejaVuSans-4d"/>
      <use xlink:href="#DejaVuSans-61" x="86.279297"/>
      <use xlink:href="#DejaVuSans-63" x="147.558594"/>
      <use xlink:href="#DejaVuSans-72" x="202.539062"/>
      <use xlink:href="#DejaVuSans-6f" x="241.402344"/>
      <use xlink:href="#DejaVuSans-20" x="302.583984"/>
      <use xlink:href="#DejaVuSans-61" x="334.371094"/>
      <use xlink:href="#DejaVuSans-63" x="395.650391"/>
      <use xlink:href="#DejaVuSans-63" x="450.630859"/>
      <use xlink:href="#DejaVuSans-75" x="505.611328"/>
      <use xlink:href="#DejaVuSans-72" x="568.990234"/>
      <use xlink:href="#DejaVuSans-61" x="610.103516"/>
      <use xlink:href="#DejaVuSans-63" x="671.382812"/>
      <use xlink:href="#DejaVuSans-79" x="726.363281"/>
     </g>
    </g>
   </g>
   <g id="matplotlib.axis_2">
    <g id="ytick_1">
     <g id="line2d_6">
      <defs>
       <path id="mafb6154144" d="M 0 0 
L -3.5 0 
" style="stroke: #000000; stroke-width: 0.8"/>
      </defs>
      <g>
       <use xlink:href="#mafb6154144" x="95.6" y="242.44" style="stroke: #000000; stroke-width: 0.8"/>
      </g>
     </g>
     <g id="text_7">
      <!-- 0.010 -->
      <g transform="translate(59.971875 246.239219) scale(0.1 -0.1)">
       <defs>
        <path id="DejaVuSans-31" d="M 794 531 
L 1825 531 
L 1825 4091 
L 703 3866 
L 703 4441 
L 1819 4666 
L 2450 4666 
L 2450 531 
L 3481 531 
L 3481 0 
L 794 0 
L 794 531 
z
" transform="scale(0.015625)"/>
       </defs>
       <use xlink:href="#DejaVuSans-30"/>
       <use xlink:href="#DejaVuSans-2e" x="63.623047"/>
       <use xlink:href="#DejaVuSans-30" x="95.410156"/>
       <use xlink:href="#DejaVuSans-31" x="159.033203"/>
       <use xlink:href="#DejaVuSans-30" x="222.65625"/>
      </g>
     </g>
    </g>
    <g id="ytick_2">
     <g id="line2d_7">
      <g>
       <use xlink:href="#mafb6154144" x="95.6" y="206.633333" style="stroke: #000000; stroke-width: 0.8"/>
      </g>
     </g>
     <g id="text_8">
      <!-- 0.015 -->
      <g transform="translate(59.971875 210.432552) scale(0.1 -0.1)">
       <use xlink:href="#DejaVuSans-30"/>
       <use xlink:href="#DejaVuSans-2e" x="63.623047"/>
       <use xlink:href="#DejaVuSans-30" x="95.410156"/>
       <use xlink:href="#DejaVuSans-31" x="159.033203"/>
       <use xlink:href="#DejaVuSans-35" x="222.65625"/>
      </g>
     </g>
    </g>
    <g id="ytick_3">
     <g id="line2d_8">
      <g>
       <use xlink:href="#mafb6154144" x="95.6" y="170.826667" style="stroke: #000000; stroke-width: 0.8"/>
      </g>
     </g>
     <g id="text_9">
      <!-- 0.020 -->
      <g transform="translate(59.971875 174.625885) scale(0.1 -0.1)">
       <use xlink:href="#DejaVuSans-30"/>
       <use xlink:href="#DejaVuSans-2e" x="63.623047"/>
       <use xlink:href="#DejaVuSans-30" x="95.410156"/>
       <use xlink:href="#DejaVuSans-32" x="159.033203"/>
       <use xlink:href="#DejaVuSans-30" x="222.65625"/>
      </g>
     </g>
    </g>
    <g id="ytick_4">
     <g id="line2d_9">
      <g>
       <use xlink:href="#mafb6154144" x="95.6" y="135.02" style="stroke: #000000; stroke-width: 0.8"/>
      </g>
     </g>
     <g id="text_10">
      <!-- 0.025 -->
      <g transform="translate(59.971875 138.819219) scale(0.1 -0.1)">
       <use xlink:href="#DejaVuSans-30"/>
       <use xlink:href="#DejaVuSans-2e" x="63.623047"/>
       <use xlink:href="#DejaVuSans-30" x="95.410156"/>
       <use xlink:href="#DejaVuSans-32" x="159.033203"/>
       <use xlink:href="#DejaVuSans-35" x="222.65625"/>
      </g>
     </g>
    </g>
    <g id="ytick_5">
     <g id="line2d_10">
      <g>
       <use xlink:href="#mafb6154144" x="95.6" y="99.213333" style="stroke: #000000; stroke-width: 0.8"/>
      </g>
     </g>
     <g id="text_11">
      <!-- 0.030 -->
      <g transform="translate(59.971875 103.012552) scale(0.1 -0.1)">
       <defs>
        <path id="DejaVuSans-33" d="M 2597 2516 
Q 3050 2419 3304 2112 
Q 3559 1806 3559 1356 
Q 3559 666 3084 287 
Q 2609 -91 1734 -91 
Q 1441 -91 1130 -33 
Q 819 25 488 141 
L 488 750 
Q 750 597 1062 519 
Q 1375 441 1716 441 
Q 2309 441 2620 675 
Q 2931 909 2931 1356 
Q 2931 1769 2642 2001 
Q 2353 2234 1838 2234 
L 1294 2234 
L 1294 2753 
L 1863 2753 
Q 2328 2753 2575 2939 
Q 2822 3125 2822 3475 
Q 2822 3834 2567 4026 
Q 2313 4219 1838 4219 
Q 1578 4219 1281 4162 
Q 984 4106 628 3988 
L 628 4550 
Q 988 4650 1302 4700 
Q 1616 4750 1894 4750 
Q 2613 4750 3031 4423 
Q 3450 4097 3450 3541 
Q 3450 3153 3228 2886 
Q 3006 2619 2597 2516 
z
" transform="scale(0.015625)"/>
       </defs>
       <use xlink:href="#DejaVuSans-30"/>
       <use xlink:href="#DejaVuSans-2e" x="63.623047"/>
       <use xlink:href="#DejaVuSans-30" x="95.410156"/>
       <use xlink:href="#DejaVuSans-33" x="159.033203"/>
       <use xlink:href="#DejaVuSans-30" x="222.65625"/>
      </g>
     </g>
    </g>
    <g id="ytick_6">
     <g id="line2d_11">
      <g>
       <use xlink:href="#mafb6154144" x="95.6" y="63.406667" style="stroke: #000000; stroke-width: 0.8"/>
      </g>
     </g>
     <g id="text_12">
      <!-- 0.035 -->
      <g transform="translate(59.971875 67.205885) scale(0.1 -0.1)">
       <use xlink:href="#DejaVuSans-30"/>
       <use xlink:href="#DejaVuSans-2e" x="63.623047"/>
       <use xlink:href="#DejaVuSans-30" x="95.410156"/>
       <use xlink:href="#DejaVuSans-33" x="159.033203"/>
       <use xlink:href="#DejaVuSans-35" x="222.65625"/>
      </g>
     </g>
    </g>
    <g id="ytick_7">
     <g id="line2d_12">
      <g>
       <use xlink:href="#mafb6154144" x="95.6" y="27.6" style="stroke: #000000; stroke-width: 0.8"/>
      </g>
     </g>
     <g id="text_13">
      <!-- 0.040 -->
      <g transform="translate(59.971875 31.399219) scale(0.1 -0.1)">
       <use xlink:href="#DejaVuSans-30"/>
       <use xlink:href="#DejaVuSans-2e" x="63.623047"/>
       <use xlink:href="#DejaVuSans-30" x="95.410156"/>
       <use xlink:href="#DejaVuSans-34" x="159.033203"/>
       <use xlink:href="#DejaVuSans-30" x="222.65625"/>
      </g>
     </g>
    </g>
    <g id="text_14">
     <!-- &lt;- $\it{better}$                 $\it{worse}$ -&gt;  -->
     <g transform="translate(21.706437 238.62) rotate(-90) scale(0.14 -0.14)">
      <defs>
       <path id="DejaVuSans-3c" d="M 4684 3150 
L 1459 2003 
L 4684 863 
L 4684 294 
L 678 1747 
L 678 2266 
L 4684 3719 
L 4684 3150 
z
" transform="scale(0.015625)"/>
       <path id="DejaVuSans-2d" d="M 313 2009 
L 1997 2009 
L 1997 1497 
L 313 1497 
L 313 2009 
z
" transform="scale(0.015625)"/>
       <path id="DejaVuSans-Oblique-62" d="M 3169 2138 
Q 3169 2591 2961 2847 
Q 2753 3103 2388 3103 
Q 2122 3103 1889 2973 
Q 1656 2844 1484 2597 
Q 1303 2338 1198 1995 
Q 1094 1653 1094 1313 
Q 1094 881 1298 636 
Q 1503 391 1863 391 
Q 2134 391 2365 517 
Q 2597 644 2772 891 
Q 2950 1147 3059 1487 
Q 3169 1828 3169 2138 
z
M 1381 2969 
Q 1594 3256 1914 3420 
Q 2234 3584 2584 3584 
Q 3122 3584 3439 3221 
Q 3756 2859 3756 2241 
Q 3756 1734 3570 1259 
Q 3384 784 3041 416 
Q 2816 172 2522 40 
Q 2228 -91 1906 -91 
Q 1566 -91 1316 65 
Q 1066 222 909 531 
L 806 0 
L 231 0 
L 1178 4863 
L 1753 4863 
L 1381 2969 
z
" transform="scale(0.015625)"/>
       <path id="DejaVuSans-Oblique-65" d="M 3078 2063 
Q 3088 2113 3092 2166 
Q 3097 2219 3097 2272 
Q 3097 2653 2873 2875 
Q 2650 3097 2266 3097 
Q 1838 3097 1509 2826 
Q 1181 2556 1013 2059 
L 3078 2063 
z
M 3578 1613 
L 903 1613 
Q 884 1494 878 1425 
Q 872 1356 872 1306 
Q 872 872 1139 634 
Q 1406 397 1894 397 
Q 2269 397 2603 481 
Q 2938 566 3225 728 
L 3116 159 
Q 2806 34 2476 -28 
Q 2147 -91 1806 -91 
Q 1078 -91 686 257 
Q 294 606 294 1247 
Q 294 1794 489 2264 
Q 684 2734 1063 3103 
Q 1306 3334 1642 3459 
Q 1978 3584 2356 3584 
Q 2950 3584 3301 3228 
Q 3653 2872 3653 2272 
Q 3653 2128 3634 1964 
Q 3616 1800 3578 1613 
z
" transform="scale(0.015625)"/>
       <path id="DejaVuSans-Oblique-74" d="M 2706 3500 
L 2619 3053 
L 1472 3053 
L 1100 1153 
Q 1081 1047 1072 975 
Q 1063 903 1063 863 
Q 1063 663 1183 572 
Q 1303 481 1569 481 
L 2150 481 
L 2053 0 
L 1503 0 
Q 991 0 739 200 
Q 488 400 488 806 
Q 488 878 497 964 
Q 506 1050 525 1153 
L 897 3053 
L 409 3053 
L 500 3500 
L 978 3500 
L 1172 4494 
L 1747 4494 
L 1556 3500 
L 2706 3500 
z
" transform="scale(0.015625)"/>
       <path id="DejaVuSans-Oblique-72" d="M 2853 2969 
Q 2766 3016 2653 3041 
Q 2541 3066 2413 3066 
Q 1953 3066 1609 2717 
Q 1266 2369 1153 1784 
L 800 0 
L 225 0 
L 909 3500 
L 1484 3500 
L 1375 2956 
Q 1603 3259 1920 3421 
Q 2238 3584 2597 3584 
Q 2691 3584 2781 3573 
Q 2872 3563 2963 3538 
L 2853 2969 
z
" transform="scale(0.015625)"/>
       <path id="DejaVuSans-Oblique-77" d="M 544 3500 
L 1113 3500 
L 1259 684 
L 2566 3500 
L 3231 3500 
L 3425 684 
L 4666 3500 
L 5241 3500 
L 3641 0 
L 2969 0 
L 2797 2900 
L 1459 0 
L 781 0 
L 544 3500 
z
" transform="scale(0.015625)"/>
       <path id="DejaVuSans-Oblique-6f" d="M 1625 -91 
Q 1009 -91 651 289 
Q 294 669 294 1325 
Q 294 1706 417 2101 
Q 541 2497 738 2766 
Q 1047 3184 1428 3384 
Q 1809 3584 2291 3584 
Q 2888 3584 3255 3212 
Q 3622 2841 3622 2241 
Q 3622 1825 3500 1412 
Q 3378 1000 3181 728 
Q 2875 309 2494 109 
Q 2113 -91 1625 -91 
z
M 891 1344 
Q 891 869 1089 633 
Q 1288 397 1691 397 
Q 2269 397 2648 901 
Q 3028 1406 3028 2181 
Q 3028 2634 2825 2865 
Q 2622 3097 2228 3097 
Q 1903 3097 1650 2945 
Q 1397 2794 1197 2484 
Q 1050 2253 970 1956 
Q 891 1659 891 1344 
z
" transform="scale(0.015625)"/>
       <path id="DejaVuSans-Oblique-73" d="M 3200 3397 
L 3091 2853 
Q 2863 2978 2609 3040 
Q 2356 3103 2088 3103 
Q 1634 3103 1373 2948 
Q 1113 2794 1113 2528 
Q 1113 2219 1719 2053 
Q 1766 2041 1788 2034 
L 1972 1978 
Q 2547 1819 2739 1644 
Q 2931 1469 2931 1166 
Q 2931 609 2489 259 
Q 2047 -91 1331 -91 
Q 1053 -91 747 -37 
Q 441 16 72 128 
L 184 722 
Q 500 559 806 475 
Q 1113 391 1394 391 
Q 1816 391 2080 572 
Q 2344 753 2344 1031 
Q 2344 1331 1650 1516 
L 1591 1531 
L 1394 1581 
Q 956 1697 753 1886 
Q 550 2075 550 2369 
Q 550 2928 970 3256 
Q 1391 3584 2113 3584 
Q 2397 3584 2667 3537 
Q 2938 3491 3200 3397 
z
" transform="scale(0.015625)"/>
       <path id="DejaVuSans-3e" d="M 678 3150 
L 678 3719 
L 4684 2266 
L 4684 1747 
L 678 294 
L 678 863 
L 3897 2003 
L 678 3150 
z
" transform="scale(0.015625)"/>
      </defs>
      <use xlink:href="#DejaVuSans-3c" transform="translate(0 0.015625)"/>
      <use xlink:href="#DejaVuSans-2d" transform="translate(83.789062 0.015625)"/>
      <use xlink:href="#DejaVuSans-20" transform="translate(119.873047 0.015625)"/>
      <use xlink:href="#DejaVuSans-Oblique-62" transform="translate(151.660156 0.015625)"/>
      <use xlink:href="#DejaVuSans-Oblique-65" transform="translate(215.136719 0.015625)"/>
      <use xlink:href="#DejaVuSans-Oblique-74" transform="translate(276.660156 0.015625)"/>
      <use xlink:href="#DejaVuSans-Oblique-74" transform="translate(315.869141 0.015625)"/>
      <use xlink:href="#DejaVuSans-Oblique-65" transform="translate(355.078125 0.015625)"/>
      <use xlink:href="#DejaVuSans-Oblique-72" transform="translate(416.601562 0.015625)"/>
      <use xlink:href="#DejaVuSans-20" transform="translate(457.714844 0.015625)"/>
      <use xlink:href="#DejaVuSans-20" transform="translate(489.501953 0.015625)"/>
      <use xlink:href="#DejaVuSans-20" transform="translate(521.289062 0.015625)"/>
      <use xlink:href="#DejaVuSans-20" transform="translate(553.076172 0.015625)"/>
      <use xlink:href="#DejaVuSans-20" transform="translate(584.863281 0.015625)"/>
      <use xlink:href="#DejaVuSans-20" transform="translate(616.650391 0.015625)"/>
      <use xlink:href="#DejaVuSans-20" transform="translate(648.4375 0.015625)"/>
      <use xlink:href="#DejaVuSans-20" transform="translate(680.224609 0.015625)"/>
      <use xlink:href="#DejaVuSans-20" transform="translate(712.011719 0.015625)"/>
      <use xlink:href="#DejaVuSans-20" transform="translate(743.798828 0.015625)"/>
      <use xlink:href="#DejaVuSans-20" transform="translate(775.585938 0.015625)"/>
      <use xlink:href="#DejaVuSans-20" transform="translate(807.373047 0.015625)"/>
      <use xlink:href="#DejaVuSans-20" transform="translate(839.160156 0.015625)"/>
      <use xlink:href="#DejaVuSans-20" transform="translate(870.947266 0.015625)"/>
      <use xlink:href="#DejaVuSans-20" transform="translate(902.734375 0.015625)"/>
      <use xlink:href="#DejaVuSans-20" transform="translate(934.521484 0.015625)"/>
      <use xlink:href="#DejaVuSans-20" transform="translate(966.308594 0.015625)"/>
      <use xlink:href="#DejaVuSans-Oblique-77" transform="translate(998.095703 0.015625)"/>
      <use xlink:href="#DejaVuSans-Oblique-6f" transform="translate(1079.882812 0.015625)"/>
      <use xlink:href="#DejaVuSans-Oblique-72" transform="translate(1141.064453 0.015625)"/>
      <use xlink:href="#DejaVuSans-Oblique-73" transform="translate(1182.177734 0.015625)"/>
      <use xlink:href="#DejaVuSans-Oblique-65" transform="translate(1234.277344 0.015625)"/>
      <use xlink:href="#DejaVuSans-20" transform="translate(1295.800781 0.015625)"/>
      <use xlink:href="#DejaVuSans-2d" transform="translate(1327.587891 0.015625)"/>
      <use xlink:href="#DejaVuSans-3e" transform="translate(1363.671875 0.015625)"/>
      <use xlink:href="#DejaVuSans-20" transform="translate(1447.460938 0.015625)"/>
     </g>
     <!--   -->
     <g transform="translate(37.383375 137.244688) rotate(-90) scale(0.14 -0.14)">
      <use xlink:href="#DejaVuSans-20"/>
     </g>
     <!--  Aggregated RMSE for TPR &amp; FPR -->
     <g transform="translate(53.060312 250.626094) rotate(-90) scale(0.14 -0.14)">
      <defs>
       <path id="DejaVuSans-41" d="M 2188 4044 
L 1331 1722 
L 3047 1722 
L 2188 4044 
z
M 1831 4666 
L 2547 4666 
L 4325 0 
L 3669 0 
L 3244 1197 
L 1141 1197 
L 716 0 
L 50 0 
L 1831 4666 
z
" transform="scale(0.015625)"/>
       <path id="DejaVuSans-67" d="M 2906 1791 
Q 2906 2416 2648 2759 
Q 2391 3103 1925 3103 
Q 1463 3103 1205 2759 
Q 947 2416 947 1791 
Q 947 1169 1205 825 
Q 1463 481 1925 481 
Q 2391 481 2648 825 
Q 2906 1169 2906 1791 
z
M 3481 434 
Q 3481 -459 3084 -895 
Q 2688 -1331 1869 -1331 
Q 1566 -1331 1297 -1286 
Q 1028 -1241 775 -1147 
L 775 -588 
Q 1028 -725 1275 -790 
Q 1522 -856 1778 -856 
Q 2344 -856 2625 -561 
Q 2906 -266 2906 331 
L 2906 616 
Q 2728 306 2450 153 
Q 2172 0 1784 0 
Q 1141 0 747 490 
Q 353 981 353 1791 
Q 353 2603 747 3093 
Q 1141 3584 1784 3584 
Q 2172 3584 2450 3431 
Q 2728 3278 2906 2969 
L 2906 3500 
L 3481 3500 
L 3481 434 
z
" transform="scale(0.015625)"/>
       <path id="DejaVuSans-65" d="M 3597 1894 
L 3597 1613 
L 953 1613 
Q 991 1019 1311 708 
Q 1631 397 2203 397 
Q 2534 397 2845 478 
Q 3156 559 3463 722 
L 3463 178 
Q 3153 47 2828 -22 
Q 2503 -91 2169 -91 
Q 1331 -91 842 396 
Q 353 884 353 1716 
Q 353 2575 817 3079 
Q 1281 3584 2069 3584 
Q 2775 3584 3186 3129 
Q 3597 2675 3597 1894 
z
M 3022 2063 
Q 3016 2534 2758 2815 
Q 2500 3097 2075 3097 
Q 1594 3097 1305 2825 
Q 1016 2553 972 2059 
L 3022 2063 
z
" transform="scale(0.015625)"/>
       <path id="DejaVuSans-74" d="M 1172 4494 
L 1172 3500 
L 2356 3500 
L 2356 3053 
L 1172 3053 
L 1172 1153 
Q 1172 725 1289 603 
Q 1406 481 1766 481 
L 2356 481 
L 2356 0 
L 1766 0 
Q 1100 0 847 248 
Q 594 497 594 1153 
L 594 3053 
L 172 3053 
L 172 3500 
L 594 3500 
L 594 4494 
L 1172 4494 
z
" transform="scale(0.015625)"/>
       <path id="DejaVuSans-64" d="M 2906 2969 
L 2906 4863 
L 3481 4863 
L 3481 0 
L 2906 0 
L 2906 525 
Q 2725 213 2448 61 
Q 2172 -91 1784 -91 
Q 1150 -91 751 415 
Q 353 922 353 1747 
Q 353 2572 751 3078 
Q 1150 3584 1784 3584 
Q 2172 3584 2448 3432 
Q 2725 3281 2906 2969 
z
M 947 1747 
Q 947 1113 1208 752 
Q 1469 391 1925 391 
Q 2381 391 2643 752 
Q 2906 1113 2906 1747 
Q 2906 2381 2643 2742 
Q 2381 3103 1925 3103 
Q 1469 3103 1208 2742 
Q 947 2381 947 1747 
z
" transform="scale(0.015625)"/>
       <path id="DejaVuSans-52" d="M 2841 2188 
Q 3044 2119 3236 1894 
Q 3428 1669 3622 1275 
L 4263 0 
L 3584 0 
L 2988 1197 
Q 2756 1666 2539 1819 
Q 2322 1972 1947 1972 
L 1259 1972 
L 1259 0 
L 628 0 
L 628 4666 
L 2053 4666 
Q 2853 4666 3247 4331 
Q 3641 3997 3641 3322 
Q 3641 2881 3436 2590 
Q 3231 2300 2841 2188 
z
M 1259 4147 
L 1259 2491 
L 2053 2491 
Q 2509 2491 2742 2702 
Q 2975 2913 2975 3322 
Q 2975 3731 2742 3939 
Q 2509 4147 2053 4147 
L 1259 4147 
z
" transform="scale(0.015625)"/>
       <path id="DejaVuSans-53" d="M 3425 4513 
L 3425 3897 
Q 3066 4069 2747 4153 
Q 2428 4238 2131 4238 
Q 1616 4238 1336 4038 
Q 1056 3838 1056 3469 
Q 1056 3159 1242 3001 
Q 1428 2844 1947 2747 
L 2328 2669 
Q 3034 2534 3370 2195 
Q 3706 1856 3706 1288 
Q 3706 609 3251 259 
Q 2797 -91 1919 -91 
Q 1588 -91 1214 -16 
Q 841 59 441 206 
L 441 856 
Q 825 641 1194 531 
Q 1563 422 1919 422 
Q 2459 422 2753 634 
Q 3047 847 3047 1241 
Q 3047 1584 2836 1778 
Q 2625 1972 2144 2069 
L 1759 2144 
Q 1053 2284 737 2584 
Q 422 2884 422 3419 
Q 422 4038 858 4394 
Q 1294 4750 2059 4750 
Q 2388 4750 2728 4690 
Q 3069 4631 3425 4513 
z
" transform="scale(0.015625)"/>
       <path id="DejaVuSans-45" d="M 628 4666 
L 3578 4666 
L 3578 4134 
L 1259 4134 
L 1259 2753 
L 3481 2753 
L 3481 2222 
L 1259 2222 
L 1259 531 
L 3634 531 
L 3634 0 
L 628 0 
L 628 4666 
z
" transform="scale(0.015625)"/>
       <path id="DejaVuSans-66" d="M 2375 4863 
L 2375 4384 
L 1825 4384 
Q 1516 4384 1395 4259 
Q 1275 4134 1275 3809 
L 1275 3500 
L 2222 3500 
L 2222 3053 
L 1275 3053 
L 1275 0 
L 697 0 
L 697 3053 
L 147 3053 
L 147 3500 
L 697 3500 
L 697 3744 
Q 697 4328 969 4595 
Q 1241 4863 1831 4863 
L 2375 4863 
z
" transform="scale(0.015625)"/>
       <path id="DejaVuSans-54" d="M -19 4666 
L 3928 4666 
L 3928 4134 
L 2272 4134 
L 2272 0 
L 1638 0 
L 1638 4134 
L -19 4134 
L -19 4666 
z
" transform="scale(0.015625)"/>
       <path id="DejaVuSans-50" d="M 1259 4147 
L 1259 2394 
L 2053 2394 
Q 2494 2394 2734 2622 
Q 2975 2850 2975 3272 
Q 2975 3691 2734 3919 
Q 2494 4147 2053 4147 
L 1259 4147 
z
M 628 4666 
L 2053 4666 
Q 2838 4666 3239 4311 
Q 3641 3956 3641 3272 
Q 3641 2581 3239 2228 
Q 2838 1875 2053 1875 
L 1259 1875 
L 1259 0 
L 628 0 
L 628 4666 
z
" transform="scale(0.015625)"/>
       <path id="DejaVuSans-26" d="M 1556 2509 
Q 1272 2256 1139 2004 
Q 1006 1753 1006 1478 
Q 1006 1022 1337 719 
Q 1669 416 2169 416 
Q 2466 416 2725 514 
Q 2984 613 3213 813 
L 1556 2509 
z
M 1997 2859 
L 3584 1234 
Q 3769 1513 3872 1830 
Q 3975 2147 3994 2503 
L 4575 2503 
Q 4538 2091 4375 1687 
Q 4213 1284 3922 891 
L 4794 0 
L 4006 0 
L 3559 459 
Q 3234 181 2878 45 
Q 2522 -91 2113 -91 
Q 1359 -91 881 339 
Q 403 769 403 1441 
Q 403 1841 612 2192 
Q 822 2544 1241 2853 
Q 1091 3050 1012 3245 
Q 934 3441 934 3628 
Q 934 4134 1281 4442 
Q 1628 4750 2203 4750 
Q 2463 4750 2720 4694 
Q 2978 4638 3244 4525 
L 3244 3956 
Q 2972 4103 2725 4179 
Q 2478 4256 2266 4256 
Q 1938 4256 1733 4082 
Q 1528 3909 1528 3634 
Q 1528 3475 1620 3314 
Q 1713 3153 1997 2859 
z
" transform="scale(0.015625)"/>
       <path id="DejaVuSans-46" d="M 628 4666 
L 3309 4666 
L 3309 4134 
L 1259 4134 
L 1259 2759 
L 3109 2759 
L 3109 2228 
L 1259 2228 
L 1259 0 
L 628 0 
L 628 4666 
z
" transform="scale(0.015625)"/>
      </defs>
      <use xlink:href="#DejaVuSans-20"/>
      <use xlink:href="#DejaVuSans-41" x="31.787109"/>
      <use xlink:href="#DejaVuSans-67" x="100.195312"/>
      <use xlink:href="#DejaVuSans-67" x="163.671875"/>
      <use xlink:href="#DejaVuSans-72" x="227.148438"/>
      <use xlink:href="#DejaVuSans-65" x="266.011719"/>
      <use xlink:href="#DejaVuSans-67" x="327.535156"/>
      <use xlink:href="#DejaVuSans-61" x="391.011719"/>
      <use xlink:href="#DejaVuSans-74" x="452.291016"/>
      <use xlink:href="#DejaVuSans-65" x="491.5"/>
      <use xlink:href="#DejaVuSans-64" x="553.023438"/>
      <use xlink:href="#DejaVuSans-20" x="616.5"/>
      <use xlink:href="#DejaVuSans-52" x="648.287109"/>
      <use xlink:href="#DejaVuSans-4d" x="717.769531"/>
      <use xlink:href="#DejaVuSans-53" x="804.048828"/>
      <use xlink:href="#DejaVuSans-45" x="867.525391"/>
      <use xlink:href="#DejaVuSans-20" x="930.708984"/>
      <use xlink:href="#DejaVuSans-66" x="962.496094"/>
      <use xlink:href="#DejaVuSans-6f" x="997.701172"/>
      <use xlink:href="#DejaVuSans-72" x="1058.882812"/>
      <use xlink:href="#DejaVuSans-20" x="1099.996094"/>
      <use xlink:href="#DejaVuSans-54" x="1131.783203"/>
      <use xlink:href="#DejaVuSans-50" x="1192.867188"/>
      <use xlink:href="#DejaVuSans-52" x="1253.169922"/>
      <use xlink:href="#DejaVuSans-20" x="1322.652344"/>
      <use xlink:href="#DejaVuSans-26" x="1354.439453"/>
      <use xlink:href="#DejaVuSans-20" x="1432.417969"/>
      <use xlink:href="#DejaVuSans-46" x="1464.205078"/>
      <use xlink:href="#DejaVuSans-50" x="1521.724609"/>
      <use xlink:href="#DejaVuSans-52" x="1582.027344"/>
     </g>
    </g>
   </g>
   <g id="line2d_13">
    <path d="M 118.749881 173.114253 
L 152.510124 176.258987 
L 195.916151 180.041679 
L 200.739043 194.137568 
L 200.739043 192.964563 
L 200.739043 194.727532 
L 244.14507 198.454609 
L 229.676395 195.054199 
L 258.613746 196.749407 
L 282.728206 194.602301 
L 253.790854 211.461674 
L 229.676395 204.252486 
L 273.082422 205.060474 
L 297.196881 197.997545 
L 326.134233 196.014491 
L 340.602908 201.276811 
L 359.894476 201.663204 
L 359.894476 205.112864 
L 393.654719 180.530547 
L 437.060746 151.578883 
L 465.998098 141.490868 
L 456.352314 129.914756 
L 470.82099 116.997416 
L 485.289665 111.52325 
L 494.935449 113.995132 
L 470.82099 92.147523 
L 485.289665 88.727237 
L 499.758341 69.743737 
L 523.8728 58.233543 
L 547.98726 51.065105 
L 581.747503 46.7099 
" clip-path="url(#p0ddbd6bbd0)" style="fill: none; stroke: #000000; stroke-width: 0.5; stroke-linecap: square"/>
   </g>
   <g id="patch_3">
    <path d="M 95.6 242.44 
L 95.6 27.6 
" style="fill: none; stroke: #000000; stroke-width: 0.8; stroke-linejoin: miter; stroke-linecap: square"/>
   </g>
   <g id="patch_4">
    <path d="M 622.935 242.44 
L 622.935 27.6 
" style="fill: none; stroke: #000000; stroke-width: 0.8; stroke-linejoin: miter; stroke-linecap: square"/>
   </g>
   <g id="patch_5">
    <path d="M 95.6 242.44 
L 622.935 242.44 
" style="fill: none; stroke: #000000; stroke-width: 0.8; stroke-linejoin: miter; stroke-linecap: square"/>
   </g>
   <g id="patch_6">
    <path d="M 95.6 27.6 
L 622.935 27.6 
" style="fill: none; stroke: #000000; stroke-width: 0.8; stroke-linejoin: miter; stroke-linecap: square"/>
   </g>
   <g id="text_15">
    <!-- $\lambda$ = 0.0 -->
    <g transform="translate(96.789881 187.436919) scale(0.12 -0.12)">
     <defs>
      <path id="DejaVuSans-Oblique-3bb" d="M 2350 4316 
L 3125 0 
L 2516 0 
L 2038 2588 
L 328 0 
L -281 0 
L 1903 3356 
L 1794 3975 
Q 1725 4369 1391 4369 
L 1091 4369 
L 1184 4863 
L 1550 4856 
Q 2253 4847 2350 4316 
z
" transform="scale(0.015625)"/>
      <path id="DejaVuSans-3d" d="M 678 2906 
L 4684 2906 
L 4684 2381 
L 678 2381 
L 678 2906 
z
M 678 1631 
L 4684 1631 
L 4684 1100 
L 678 1100 
L 678 1631 
z
" transform="scale(0.015625)"/>
     </defs>
     <use xlink:href="#DejaVuSans-Oblique-3bb" transform="translate(0 0.015625)"/>
     <use xlink:href="#DejaVuSans-20" transform="translate(59.179688 0.015625)"/>
     <use xlink:href="#DejaVuSans-3d" transform="translate(90.966797 0.015625)"/>
     <use xlink:href="#DejaVuSans-20" transform="translate(174.755859 0.015625)"/>
     <use xlink:href="#DejaVuSans-30" transform="translate(206.542969 0.015625)"/>
     <use xlink:href="#DejaVuSans-2e" transform="translate(270.166016 0.015625)"/>
     <use xlink:href="#DejaVuSans-30" transform="translate(301.953125 0.015625)"/>
    </g>
   </g>
   <g id="text_16">
    <!-- $\lambda$ = 0.17 -->
    <g transform="translate(174.939043 209.050199) scale(0.12 -0.12)">
     <defs>
      <path id="DejaVuSans-37" d="M 525 4666 
L 3525 4666 
L 3525 4397 
L 1831 0 
L 1172 0 
L 2766 4134 
L 525 4134 
L 525 4666 
z
" transform="scale(0.015625)"/>
     </defs>
     <use xlink:href="#DejaVuSans-Oblique-3bb" transform="translate(0 0.015625)"/>
     <use xlink:href="#DejaVuSans-20" transform="translate(59.179688 0.015625)"/>
     <use xlink:href="#DejaVuSans-3d" transform="translate(90.966797 0.015625)"/>
     <use xlink:href="#DejaVuSans-20" transform="translate(174.755859 0.015625)"/>
     <use xlink:href="#DejaVuSans-30" transform="translate(206.542969 0.015625)"/>
     <use xlink:href="#DejaVuSans-2e" transform="translate(270.166016 0.015625)"/>
     <use xlink:href="#DejaVuSans-31" transform="translate(301.953125 0.015625)"/>
     <use xlink:href="#DejaVuSans-37" transform="translate(365.576172 0.015625)"/>
    </g>
   </g>
   <g id="text_17">
    <!-- $\lambda$ = 0.33 -->
    <g transform="translate(227.990854 225.784341) scale(0.12 -0.12)">
     <use xlink:href="#DejaVuSans-Oblique-3bb" transform="translate(0 0.015625)"/>
     <use xlink:href="#DejaVuSans-20" transform="translate(59.179688 0.015625)"/>
     <use xlink:href="#DejaVuSans-3d" transform="translate(90.966797 0.015625)"/>
     <use xlink:href="#DejaVuSans-20" transform="translate(174.755859 0.015625)"/>
     <use xlink:href="#DejaVuSans-30" transform="translate(206.542969 0.015625)"/>
     <use xlink:href="#DejaVuSans-2e" transform="translate(270.166016 0.015625)"/>
     <use xlink:href="#DejaVuSans-33" transform="translate(301.953125 0.015625)"/>
     <use xlink:href="#DejaVuSans-33" transform="translate(365.576172 0.015625)"/>
    </g>
   </g>
   <g id="text_18">
    <!-- $\lambda$ = 0.5 -->
    <g transform="translate(318.642908 215.599478) scale(0.12 -0.12)">
     <use xlink:href="#DejaVuSans-Oblique-3bb" transform="translate(0 0.015625)"/>
     <use xlink:href="#DejaVuSans-20" transform="translate(59.179688 0.015625)"/>
     <use xlink:href="#DejaVuSans-3d" transform="translate(90.966797 0.015625)"/>
     <use xlink:href="#DejaVuSans-20" transform="translate(174.755859 0.015625)"/>
     <use xlink:href="#DejaVuSans-30" transform="translate(206.542969 0.015625)"/>
     <use xlink:href="#DejaVuSans-2e" transform="translate(270.166016 0.015625)"/>
     <use xlink:href="#DejaVuSans-35" transform="translate(301.953125 0.015625)"/>
    </g>
   </g>
   <g id="text_19">
    <!-- $\lambda$ = 0.67 -->
    <g transform="translate(440.198098 155.813535) scale(0.12 -0.12)">
     <use xlink:href="#DejaVuSans-Oblique-3bb" transform="translate(0 0.015625)"/>
     <use xlink:href="#DejaVuSans-20" transform="translate(59.179688 0.015625)"/>
     <use xlink:href="#DejaVuSans-3d" transform="translate(90.966797 0.015625)"/>
     <use xlink:href="#DejaVuSans-20" transform="translate(174.755859 0.015625)"/>
     <use xlink:href="#DejaVuSans-30" transform="translate(206.542969 0.015625)"/>
     <use xlink:href="#DejaVuSans-2e" transform="translate(270.166016 0.015625)"/>
     <use xlink:href="#DejaVuSans-36" transform="translate(301.953125 0.015625)"/>
     <use xlink:href="#DejaVuSans-37" transform="translate(365.576172 0.015625)"/>
    </g>
   </g>
   <g id="text_20">
    <!-- $\lambda$ = 0.83 -->
    <g transform="translate(445.20099 106.47019) scale(0.12 -0.12)">
     <use xlink:href="#DejaVuSans-Oblique-3bb" transform="translate(0 0.015625)"/>
     <use xlink:href="#DejaVuSans-20" transform="translate(59.179688 0.015625)"/>
     <use xlink:href="#DejaVuSans-3d" transform="translate(90.966797 0.015625)"/>
     <use xlink:href="#DejaVuSans-20" transform="translate(174.755859 0.015625)"/>
     <use xlink:href="#DejaVuSans-30" transform="translate(206.542969 0.015625)"/>
     <use xlink:href="#DejaVuSans-2e" transform="translate(270.166016 0.015625)"/>
     <use xlink:href="#DejaVuSans-38" transform="translate(299.328125 0.015625)"/>
     <use xlink:href="#DejaVuSans-33" transform="translate(362.951172 0.015625)"/>
    </g>
   </g>
   <g id="text_21">
    <!-- $\lambda$ = 1.0 -->
    <g transform="translate(559.787503 61.032566) scale(0.12 -0.12)">
     <use xlink:href="#DejaVuSans-Oblique-3bb" transform="translate(0 0.015625)"/>
     <use xlink:href="#DejaVuSans-20" transform="translate(59.179688 0.015625)"/>
     <use xlink:href="#DejaVuSans-3d" transform="translate(90.966797 0.015625)"/>
     <use xlink:href="#DejaVuSans-20" transform="translate(174.755859 0.015625)"/>
     <use xlink:href="#DejaVuSans-31" transform="translate(206.542969 0.015625)"/>
     <use xlink:href="#DejaVuSans-2e" transform="translate(270.166016 0.015625)"/>
     <use xlink:href="#DejaVuSans-30" transform="translate(301.953125 0.015625)"/>
    </g>
   </g>
   <g id="text_22">
    <!-- Fairness vs. Accuracy -->
    <g transform="translate(284.430937 21.6) scale(0.14 -0.14)">
     <defs>
      <path id="DejaVuSans-69" d="M 603 3500 
L 1178 3500 
L 1178 0 
L 603 0 
L 603 3500 
z
M 603 4863 
L 1178 4863 
L 1178 4134 
L 603 4134 
L 603 4863 
z
" transform="scale(0.015625)"/>
      <path id="DejaVuSans-6e" d="M 3513 2113 
L 3513 0 
L 2938 0 
L 2938 2094 
Q 2938 2591 2744 2837 
Q 2550 3084 2163 3084 
Q 1697 3084 1428 2787 
Q 1159 2491 1159 1978 
L 1159 0 
L 581 0 
L 581 3500 
L 1159 3500 
L 1159 2956 
Q 1366 3272 1645 3428 
Q 1925 3584 2291 3584 
Q 2894 3584 3203 3211 
Q 3513 2838 3513 2113 
z
" transform="scale(0.015625)"/>
      <path id="DejaVuSans-73" d="M 2834 3397 
L 2834 2853 
Q 2591 2978 2328 3040 
Q 2066 3103 1784 3103 
Q 1356 3103 1142 2972 
Q 928 2841 928 2578 
Q 928 2378 1081 2264 
Q 1234 2150 1697 2047 
L 1894 2003 
Q 2506 1872 2764 1633 
Q 3022 1394 3022 966 
Q 3022 478 2636 193 
Q 2250 -91 1575 -91 
Q 1294 -91 989 -36 
Q 684 19 347 128 
L 347 722 
Q 666 556 975 473 
Q 1284 391 1588 391 
Q 1994 391 2212 530 
Q 2431 669 2431 922 
Q 2431 1156 2273 1281 
Q 2116 1406 1581 1522 
L 1381 1569 
Q 847 1681 609 1914 
Q 372 2147 372 2553 
Q 372 3047 722 3315 
Q 1072 3584 1716 3584 
Q 2034 3584 2315 3537 
Q 2597 3491 2834 3397 
z
" transform="scale(0.015625)"/>
      <path id="DejaVuSans-76" d="M 191 3500 
L 800 3500 
L 1894 563 
L 2988 3500 
L 3597 3500 
L 2284 0 
L 1503 0 
L 191 3500 
z
" transform="scale(0.015625)"/>
     </defs>
     <use xlink:href="#DejaVuSans-46"/>
     <use xlink:href="#DejaVuSans-61" x="48.394531"/>
     <use xlink:href="#DejaVuSans-69" x="109.673828"/>
     <use xlink:href="#DejaVuSans-72" x="137.457031"/>
     <use xlink:href="#DejaVuSans-6e" x="176.820312"/>
     <use xlink:href="#DejaVuSans-65" x="240.199219"/>
     <use xlink:href="#DejaVuSans-73" x="301.722656"/>
     <use xlink:href="#DejaVuSans-73" x="353.822266"/>
     <use xlink:href="#DejaVuSans-20" x="405.921875"/>
     <use xlink:href="#DejaVuSans-76" x="437.708984"/>
     <use xlink:href="#DejaVuSans-73" x="496.888672"/>
     <use xlink:href="#DejaVuSans-2e" x="548.988281"/>
     <use xlink:href="#DejaVuSans-20" x="580.775391"/>
     <use xlink:href="#DejaVuSans-41" x="612.5625"/>
     <use xlink:href="#DejaVuSans-63" x="679.220703"/>
     <use xlink:href="#DejaVuSans-63" x="734.201172"/>
     <use xlink:href="#DejaVuSans-75" x="789.181641"/>
     <use xlink:href="#DejaVuSans-72" x="852.560547"/>
     <use xlink:href="#DejaVuSans-61" x="893.673828"/>
     <use xlink:href="#DejaVuSans-63" x="954.953125"/>
     <use xlink:href="#DejaVuSans-79" x="1009.933594"/>
    </g>
   </g>
  </g>
 </g>
 <defs>
  <clipPath id="p0ddbd6bbd0">
   <rect x="95.6" y="27.6" width="527.335" height="214.84"/>
  </clipPath>
 </defs>
</svg>
