<?xml version="1.0" encoding="utf-8" standalone="no"?>
<!DOCTYPE svg PUBLIC "-//W3C//DTD SVG 1.1//EN"
  "http://www.w3.org/Graphics/SVG/1.1/DTD/svg11.dtd">
<svg xmlns:xlink="http://www.w3.org/1999/xlink" width="1152pt" height="504pt" viewBox="0 0 1152 504" xmlns="http://www.w3.org/2000/svg" version="1.1">
 <metadata>
  <rdf:RDF xmlns:dc="http://purl.org/dc/elements/1.1/" xmlns:cc="http://creativecommons.org/ns#" xmlns:rdf="http://www.w3.org/1999/02/22-rdf-syntax-ns#">
   <cc:Work>
    <dc:type rdf:resource="http://purl.org/dc/dcmitype/StillImage"/>
    <dc:date>2024-05-18T20:07:56.325148</dc:date>
    <dc:format>image/svg+xml</dc:format>
    <dc:creator>
     <cc:Agent>
      <dc:title>Matplotlib v3.7.0, https://matplotlib.org/</dc:title>
     </cc:Agent>
    </dc:creator>
   </cc:Work>
  </rdf:RDF>
 </metadata>
 <defs>
  <style type="text/css">*{stroke-linejoin: round; stroke-linecap: butt}</style>
 </defs>
 <g id="figure_1">
  <g id="patch_1">
   <path d="M 0 504 
L 1152 504 
L 1152 0 
L 0 0 
z
" style="fill: #ffffff"/>
  </g>
  <g id="axes_1">
   <g id="patch_2">
    <path d="M 57.62 235.15 
L 387.986667 235.15 
L 387.986667 26.88 
L 57.62 26.88 
z
" style="fill: #ffffff"/>
   </g>
   <g id="PolyCollection_1"/>
   <g id="PolyCollection_2"/>
   <g id="PolyCollection_3"/>
   <g id="matplotlib.axis_1">
    <g id="xtick_1">
     <g id="line2d_1">
      <defs>
       <path id="m6007f1235e" d="M 0 0 
L 0 3.5 
" style="stroke: #000000; stroke-width: 0.8"/>
      </defs>
      <g>
       <use xlink:href="#m6007f1235e" x="72.636667" y="235.15" style="stroke: #000000; stroke-width: 0.8"/>
      </g>
     </g>
    </g>
    <g id="xtick_2">
     <g id="line2d_2">
      <g>
       <use xlink:href="#m6007f1235e" x="132.703333" y="235.15" style="stroke: #000000; stroke-width: 0.8"/>
      </g>
     </g>
    </g>
    <g id="xtick_3">
     <g id="line2d_3">
      <g>
       <use xlink:href="#m6007f1235e" x="192.77" y="235.15" style="stroke: #000000; stroke-width: 0.8"/>
      </g>
     </g>
    </g>
    <g id="xtick_4">
     <g id="line2d_4">
      <g>
       <use xlink:href="#m6007f1235e" x="252.836667" y="235.15" style="stroke: #000000; stroke-width: 0.8"/>
      </g>
     </g>
    </g>
    <g id="xtick_5">
     <g id="line2d_5">
      <g>
       <use xlink:href="#m6007f1235e" x="312.903333" y="235.15" style="stroke: #000000; stroke-width: 0.8"/>
      </g>
     </g>
    </g>
    <g id="xtick_6">
     <g id="line2d_6">
      <g>
       <use xlink:href="#m6007f1235e" x="372.97" y="235.15" style="stroke: #000000; stroke-width: 0.8"/>
      </g>
     </g>
    </g>
   </g>
   <g id="matplotlib.axis_2">
    <g id="ytick_1">
     <g id="line2d_7">
      <defs>
       <path id="m1ba6231bd1" d="M 0 0 
L -3.5 0 
" style="stroke: #000000; stroke-width: 0.8"/>
      </defs>
      <g>
       <use xlink:href="#m1ba6231bd1" x="57.62" y="212.050964" style="stroke: #000000; stroke-width: 0.8"/>
      </g>
     </g>
     <g id="text_1">
      <!-- 0.40 -->
      <g transform="translate(28.354375 215.850182) scale(0.1 -0.1)">
       <defs>
        <path id="DejaVuSans-30" d="M 2034 4250 
Q 1547 4250 1301 3770 
Q 1056 3291 1056 2328 
Q 1056 1369 1301 889 
Q 1547 409 2034 409 
Q 2525 409 2770 889 
Q 3016 1369 3016 2328 
Q 3016 3291 2770 3770 
Q 2525 4250 2034 4250 
z
M 2034 4750 
Q 2819 4750 3233 4129 
Q 3647 3509 3647 2328 
Q 3647 1150 3233 529 
Q 2819 -91 2034 -91 
Q 1250 -91 836 529 
Q 422 1150 422 2328 
Q 422 3509 836 4129 
Q 1250 4750 2034 4750 
z
" transform="scale(0.015625)"/>
        <path id="DejaVuSans-2e" d="M 684 794 
L 1344 794 
L 1344 0 
L 684 0 
L 684 794 
z
" transform="scale(0.015625)"/>
        <path id="DejaVuSans-34" d="M 2419 4116 
L 825 1625 
L 2419 1625 
L 2419 4116 
z
M 2253 4666 
L 3047 4666 
L 3047 1625 
L 3713 1625 
L 3713 1100 
L 3047 1100 
L 3047 0 
L 2419 0 
L 2419 1100 
L 313 1100 
L 313 1709 
L 2253 4666 
z
" transform="scale(0.015625)"/>
       </defs>
       <use xlink:href="#DejaVuSans-30"/>
       <use xlink:href="#DejaVuSans-2e" x="63.623047"/>
       <use xlink:href="#DejaVuSans-34" x="95.410156"/>
       <use xlink:href="#DejaVuSans-30" x="159.033203"/>
      </g>
     </g>
    </g>
    <g id="ytick_2">
     <g id="line2d_8">
      <g>
       <use xlink:href="#m1ba6231bd1" x="57.62" y="171.532982" style="stroke: #000000; stroke-width: 0.8"/>
      </g>
     </g>
     <g id="text_2">
      <!-- 0.45 -->
      <g transform="translate(28.354375 175.332201) scale(0.1 -0.1)">
       <defs>
        <path id="DejaVuSans-35" d="M 691 4666 
L 3169 4666 
L 3169 4134 
L 1269 4134 
L 1269 2991 
Q 1406 3038 1543 3061 
Q 1681 3084 1819 3084 
Q 2600 3084 3056 2656 
Q 3513 2228 3513 1497 
Q 3513 744 3044 326 
Q 2575 -91 1722 -91 
Q 1428 -91 1123 -41 
Q 819 9 494 109 
L 494 744 
Q 775 591 1075 516 
Q 1375 441 1709 441 
Q 2250 441 2565 725 
Q 2881 1009 2881 1497 
Q 2881 1984 2565 2268 
Q 2250 2553 1709 2553 
Q 1456 2553 1204 2497 
Q 953 2441 691 2322 
L 691 4666 
z
" transform="scale(0.015625)"/>
       </defs>
       <use xlink:href="#DejaVuSans-30"/>
       <use xlink:href="#DejaVuSans-2e" x="63.623047"/>
       <use xlink:href="#DejaVuSans-34" x="95.410156"/>
       <use xlink:href="#DejaVuSans-35" x="159.033203"/>
      </g>
     </g>
    </g>
    <g id="ytick_3">
     <g id="line2d_9">
      <g>
       <use xlink:href="#m1ba6231bd1" x="57.62" y="131.015" style="stroke: #000000; stroke-width: 0.8"/>
      </g>
     </g>
     <g id="text_3">
      <!-- 0.50 -->
      <g transform="translate(28.354375 134.814219) scale(0.1 -0.1)">
       <use xlink:href="#DejaVuSans-30"/>
       <use xlink:href="#DejaVuSans-2e" x="63.623047"/>
       <use xlink:href="#DejaVuSans-35" x="95.410156"/>
       <use xlink:href="#DejaVuSans-30" x="159.033203"/>
      </g>
     </g>
    </g>
    <g id="ytick_4">
     <g id="line2d_10">
      <g>
       <use xlink:href="#m1ba6231bd1" x="57.62" y="90.497018" style="stroke: #000000; stroke-width: 0.8"/>
      </g>
     </g>
     <g id="text_4">
      <!-- 0.55 -->
      <g transform="translate(28.354375 94.296237) scale(0.1 -0.1)">
       <use xlink:href="#DejaVuSans-30"/>
       <use xlink:href="#DejaVuSans-2e" x="63.623047"/>
       <use xlink:href="#DejaVuSans-35" x="95.410156"/>
       <use xlink:href="#DejaVuSans-35" x="159.033203"/>
      </g>
     </g>
    </g>
    <g id="ytick_5">
     <g id="line2d_11">
      <g>
       <use xlink:href="#m1ba6231bd1" x="57.62" y="49.979036" style="stroke: #000000; stroke-width: 0.8"/>
      </g>
     </g>
     <g id="text_5">
      <!-- 0.60 -->
      <g transform="translate(28.354375 53.778255) scale(0.1 -0.1)">
       <defs>
        <path id="DejaVuSans-36" d="M 2113 2584 
Q 1688 2584 1439 2293 
Q 1191 2003 1191 1497 
Q 1191 994 1439 701 
Q 1688 409 2113 409 
Q 2538 409 2786 701 
Q 3034 994 3034 1497 
Q 3034 2003 2786 2293 
Q 2538 2584 2113 2584 
z
M 3366 4563 
L 3366 3988 
Q 3128 4100 2886 4159 
Q 2644 4219 2406 4219 
Q 1781 4219 1451 3797 
Q 1122 3375 1075 2522 
Q 1259 2794 1537 2939 
Q 1816 3084 2150 3084 
Q 2853 3084 3261 2657 
Q 3669 2231 3669 1497 
Q 3669 778 3244 343 
Q 2819 -91 2113 -91 
Q 1303 -91 875 529 
Q 447 1150 447 2328 
Q 447 3434 972 4092 
Q 1497 4750 2381 4750 
Q 2619 4750 2861 4703 
Q 3103 4656 3366 4563 
z
" transform="scale(0.015625)"/>
       </defs>
       <use xlink:href="#DejaVuSans-30"/>
       <use xlink:href="#DejaVuSans-2e" x="63.623047"/>
       <use xlink:href="#DejaVuSans-36" x="95.410156"/>
       <use xlink:href="#DejaVuSans-30" x="159.033203"/>
      </g>
     </g>
    </g>
    <g id="text_6">
     <!-- True Positive Rate -->
     <g transform="translate(21.442812 193.356562) rotate(-90) scale(0.14 -0.14)">
      <defs>
       <path id="DejaVuSans-54" d="M -19 4666 
L 3928 4666 
L 3928 4134 
L 2272 4134 
L 2272 0 
L 1638 0 
L 1638 4134 
L -19 4134 
L -19 4666 
z
" transform="scale(0.015625)"/>
       <path id="DejaVuSans-72" d="M 2631 2963 
Q 2534 3019 2420 3045 
Q 2306 3072 2169 3072 
Q 1681 3072 1420 2755 
Q 1159 2438 1159 1844 
L 1159 0 
L 581 0 
L 581 3500 
L 1159 3500 
L 1159 2956 
Q 1341 3275 1631 3429 
Q 1922 3584 2338 3584 
Q 2397 3584 2469 3576 
Q 2541 3569 2628 3553 
L 2631 2963 
z
" transform="scale(0.015625)"/>
       <path id="DejaVuSans-75" d="M 544 1381 
L 544 3500 
L 1119 3500 
L 1119 1403 
Q 1119 906 1312 657 
Q 1506 409 1894 409 
Q 2359 409 2629 706 
Q 2900 1003 2900 1516 
L 2900 3500 
L 3475 3500 
L 3475 0 
L 2900 0 
L 2900 538 
Q 2691 219 2414 64 
Q 2138 -91 1772 -91 
Q 1169 -91 856 284 
Q 544 659 544 1381 
z
M 1991 3584 
L 1991 3584 
z
" transform="scale(0.015625)"/>
       <path id="DejaVuSans-65" d="M 3597 1894 
L 3597 1613 
L 953 1613 
Q 991 1019 1311 708 
Q 1631 397 2203 397 
Q 2534 397 2845 478 
Q 3156 559 3463 722 
L 3463 178 
Q 3153 47 2828 -22 
Q 2503 -91 2169 -91 
Q 1331 -91 842 396 
Q 353 884 353 1716 
Q 353 2575 817 3079 
Q 1281 3584 2069 3584 
Q 2775 3584 3186 3129 
Q 3597 2675 3597 1894 
z
M 3022 2063 
Q 3016 2534 2758 2815 
Q 2500 3097 2075 3097 
Q 1594 3097 1305 2825 
Q 1016 2553 972 2059 
L 3022 2063 
z
" transform="scale(0.015625)"/>
       <path id="DejaVuSans-20" transform="scale(0.015625)"/>
       <path id="DejaVuSans-50" d="M 1259 4147 
L 1259 2394 
L 2053 2394 
Q 2494 2394 2734 2622 
Q 2975 2850 2975 3272 
Q 2975 3691 2734 3919 
Q 2494 4147 2053 4147 
L 1259 4147 
z
M 628 4666 
L 2053 4666 
Q 2838 4666 3239 4311 
Q 3641 3956 3641 3272 
Q 3641 2581 3239 2228 
Q 2838 1875 2053 1875 
L 1259 1875 
L 1259 0 
L 628 0 
L 628 4666 
z
" transform="scale(0.015625)"/>
       <path id="DejaVuSans-6f" d="M 1959 3097 
Q 1497 3097 1228 2736 
Q 959 2375 959 1747 
Q 959 1119 1226 758 
Q 1494 397 1959 397 
Q 2419 397 2687 759 
Q 2956 1122 2956 1747 
Q 2956 2369 2687 2733 
Q 2419 3097 1959 3097 
z
M 1959 3584 
Q 2709 3584 3137 3096 
Q 3566 2609 3566 1747 
Q 3566 888 3137 398 
Q 2709 -91 1959 -91 
Q 1206 -91 779 398 
Q 353 888 353 1747 
Q 353 2609 779 3096 
Q 1206 3584 1959 3584 
z
" transform="scale(0.015625)"/>
       <path id="DejaVuSans-73" d="M 2834 3397 
L 2834 2853 
Q 2591 2978 2328 3040 
Q 2066 3103 1784 3103 
Q 1356 3103 1142 2972 
Q 928 2841 928 2578 
Q 928 2378 1081 2264 
Q 1234 2150 1697 2047 
L 1894 2003 
Q 2506 1872 2764 1633 
Q 3022 1394 3022 966 
Q 3022 478 2636 193 
Q 2250 -91 1575 -91 
Q 1294 -91 989 -36 
Q 684 19 347 128 
L 347 722 
Q 666 556 975 473 
Q 1284 391 1588 391 
Q 1994 391 2212 530 
Q 2431 669 2431 922 
Q 2431 1156 2273 1281 
Q 2116 1406 1581 1522 
L 1381 1569 
Q 847 1681 609 1914 
Q 372 2147 372 2553 
Q 372 3047 722 3315 
Q 1072 3584 1716 3584 
Q 2034 3584 2315 3537 
Q 2597 3491 2834 3397 
z
" transform="scale(0.015625)"/>
       <path id="DejaVuSans-69" d="M 603 3500 
L 1178 3500 
L 1178 0 
L 603 0 
L 603 3500 
z
M 603 4863 
L 1178 4863 
L 1178 4134 
L 603 4134 
L 603 4863 
z
" transform="scale(0.015625)"/>
       <path id="DejaVuSans-74" d="M 1172 4494 
L 1172 3500 
L 2356 3500 
L 2356 3053 
L 1172 3053 
L 1172 1153 
Q 1172 725 1289 603 
Q 1406 481 1766 481 
L 2356 481 
L 2356 0 
L 1766 0 
Q 1100 0 847 248 
Q 594 497 594 1153 
L 594 3053 
L 172 3053 
L 172 3500 
L 594 3500 
L 594 4494 
L 1172 4494 
z
" transform="scale(0.015625)"/>
       <path id="DejaVuSans-76" d="M 191 3500 
L 800 3500 
L 1894 563 
L 2988 3500 
L 3597 3500 
L 2284 0 
L 1503 0 
L 191 3500 
z
" transform="scale(0.015625)"/>
       <path id="DejaVuSans-52" d="M 2841 2188 
Q 3044 2119 3236 1894 
Q 3428 1669 3622 1275 
L 4263 0 
L 3584 0 
L 2988 1197 
Q 2756 1666 2539 1819 
Q 2322 1972 1947 1972 
L 1259 1972 
L 1259 0 
L 628 0 
L 628 4666 
L 2053 4666 
Q 2853 4666 3247 4331 
Q 3641 3997 3641 3322 
Q 3641 2881 3436 2590 
Q 3231 2300 2841 2188 
z
M 1259 4147 
L 1259 2491 
L 2053 2491 
Q 2509 2491 2742 2702 
Q 2975 2913 2975 3322 
Q 2975 3731 2742 3939 
Q 2509 4147 2053 4147 
L 1259 4147 
z
" transform="scale(0.015625)"/>
       <path id="DejaVuSans-61" d="M 2194 1759 
Q 1497 1759 1228 1600 
Q 959 1441 959 1056 
Q 959 750 1161 570 
Q 1363 391 1709 391 
Q 2188 391 2477 730 
Q 2766 1069 2766 1631 
L 2766 1759 
L 2194 1759 
z
M 3341 1997 
L 3341 0 
L 2766 0 
L 2766 531 
Q 2569 213 2275 61 
Q 1981 -91 1556 -91 
Q 1019 -91 701 211 
Q 384 513 384 1019 
Q 384 1609 779 1909 
Q 1175 2209 1959 2209 
L 2766 2209 
L 2766 2266 
Q 2766 2663 2505 2880 
Q 2244 3097 1772 3097 
Q 1472 3097 1187 3025 
Q 903 2953 641 2809 
L 641 3341 
Q 956 3463 1253 3523 
Q 1550 3584 1831 3584 
Q 2591 3584 2966 3190 
Q 3341 2797 3341 1997 
z
" transform="scale(0.015625)"/>
      </defs>
      <use xlink:href="#DejaVuSans-54"/>
      <use xlink:href="#DejaVuSans-72" x="46.333984"/>
      <use xlink:href="#DejaVuSans-75" x="87.447266"/>
      <use xlink:href="#DejaVuSans-65" x="150.826172"/>
      <use xlink:href="#DejaVuSans-20" x="212.349609"/>
      <use xlink:href="#DejaVuSans-50" x="244.136719"/>
      <use xlink:href="#DejaVuSans-6f" x="300.814453"/>
      <use xlink:href="#DejaVuSans-73" x="361.996094"/>
      <use xlink:href="#DejaVuSans-69" x="414.095703"/>
      <use xlink:href="#DejaVuSans-74" x="441.878906"/>
      <use xlink:href="#DejaVuSans-69" x="481.087891"/>
      <use xlink:href="#DejaVuSans-76" x="508.871094"/>
      <use xlink:href="#DejaVuSans-65" x="568.050781"/>
      <use xlink:href="#DejaVuSans-20" x="629.574219"/>
      <use xlink:href="#DejaVuSans-52" x="661.361328"/>
      <use xlink:href="#DejaVuSans-61" x="728.59375"/>
      <use xlink:href="#DejaVuSans-74" x="789.873047"/>
      <use xlink:href="#DejaVuSans-65" x="829.082031"/>
     </g>
    </g>
   </g>
   <g id="line2d_12">
    <path d="M 72.636667 36.346818 
L 82.647778 36.346818 
L 92.658889 43.920273 
L 102.67 43.920273 
L 112.681111 43.920273 
L 122.692222 43.920273 
L 132.703333 59.067182 
L 142.714444 74.214091 
L 152.725556 74.214091 
L 162.736667 81.787545 
L 172.747778 81.787545 
L 182.758889 89.361 
L 192.77 89.361 
L 202.781111 104.507909 
L 212.792222 127.228273 
L 222.803333 134.801727 
L 232.814444 142.375182 
L 242.825556 142.375182 
L 252.836667 157.522091 
L 262.847778 165.095545 
L 272.858889 165.095545 
L 282.87 180.242455 
L 292.881111 187.815909 
L 302.892222 187.815909 
L 312.903333 187.815909 
L 322.914444 187.815909 
L 332.925556 187.815909 
L 342.936667 187.815909 
L 352.947778 195.389364 
L 362.958889 202.962818 
L 372.97 225.683182 
" clip-path="url(#pa1e3c7581e)" style="fill: none; stroke: #4878d0; stroke-width: 1.5; stroke-linecap: square"/>
   </g>
   <g id="line2d_13">
    <path d="M 72.636667 83.399633 
L 82.647778 85.795375 
L 92.658889 86.39431 
L 102.67 86.993246 
L 112.681111 88.191117 
L 122.692222 88.790052 
L 132.703333 88.790052 
L 142.714444 90.586858 
L 152.725556 94.779407 
L 162.736667 97.175148 
L 172.747778 98.373019 
L 182.758889 98.373019 
L 192.77 99.57089 
L 202.781111 99.57089 
L 212.792222 99.57089 
L 222.803333 100.169825 
L 232.814444 101.966632 
L 242.825556 104.362373 
L 252.836667 104.961309 
L 262.847778 106.758115 
L 272.858889 108.554921 
L 282.87 115.143211 
L 292.881111 116.341082 
L 302.892222 116.940017 
L 312.903333 123.528307 
L 322.914444 125.325113 
L 332.925556 127.720855 
L 342.936667 129.517661 
L 352.947778 131.314468 
L 362.958889 133.111274 
L 372.97 144.491047 
" clip-path="url(#pa1e3c7581e)" style="fill: none; stroke: #ee854a; stroke-width: 1.5; stroke-linecap: square"/>
   </g>
   <g id="line2d_14">
    <path d="M 72.636667 111.170931 
L 82.647778 109.96826 
L 92.658889 109.246657 
L 102.67 108.525055 
L 112.681111 107.08185 
L 122.692222 106.360247 
L 132.703333 105.157576 
L 142.714444 103.954905 
L 152.725556 103.233303 
L 162.736667 99.62529 
L 172.747778 98.182085 
L 182.758889 97.701017 
L 192.77 96.017278 
L 202.781111 93.85247 
L 212.792222 92.890333 
L 222.803333 89.522855 
L 232.814444 88.560718 
L 242.825556 87.358047 
L 252.836667 85.914842 
L 262.847778 83.750035 
L 272.858889 82.30683 
L 282.87 80.62309 
L 292.881111 79.420419 
L 302.892222 78.458283 
L 312.903333 76.293475 
L 322.914444 74.85027 
L 332.925556 73.647599 
L 342.936667 73.166531 
L 352.947778 72.685463 
L 362.958889 72.444928 
L 372.97 65.950506 
" clip-path="url(#pa1e3c7581e)" style="fill: none; stroke: #6acc64; stroke-width: 1.5; stroke-linecap: square"/>
   </g>
   <g id="line2d_15"/>
   <g id="line2d_16"/>
   <g id="line2d_17"/>
   <g id="patch_3">
    <path d="M 57.62 235.15 
L 57.62 26.88 
" style="fill: none; stroke: #000000; stroke-width: 0.8; stroke-linejoin: miter; stroke-linecap: square"/>
   </g>
   <g id="patch_4">
    <path d="M 387.986667 235.15 
L 387.986667 26.88 
" style="fill: none; stroke: #000000; stroke-width: 0.8; stroke-linejoin: miter; stroke-linecap: square"/>
   </g>
   <g id="patch_5">
    <path d="M 57.62 235.15 
L 387.986667 235.15 
" style="fill: none; stroke: #000000; stroke-width: 0.8; stroke-linejoin: miter; stroke-linecap: square"/>
   </g>
   <g id="patch_6">
    <path d="M 57.62 26.88 
L 387.986667 26.88 
" style="fill: none; stroke: #000000; stroke-width: 0.8; stroke-linejoin: miter; stroke-linecap: square"/>
   </g>
   <g id="text_7">
    <!-- Age -->
    <g transform="translate(211.198021 20.88) scale(0.12 -0.12)">
     <defs>
      <path id="DejaVuSans-41" d="M 2188 4044 
L 1331 1722 
L 3047 1722 
L 2188 4044 
z
M 1831 4666 
L 2547 4666 
L 4325 0 
L 3669 0 
L 3244 1197 
L 1141 1197 
L 716 0 
L 50 0 
L 1831 4666 
z
" transform="scale(0.015625)"/>
      <path id="DejaVuSans-67" d="M 2906 1791 
Q 2906 2416 2648 2759 
Q 2391 3103 1925 3103 
Q 1463 3103 1205 2759 
Q 947 2416 947 1791 
Q 947 1169 1205 825 
Q 1463 481 1925 481 
Q 2391 481 2648 825 
Q 2906 1169 2906 1791 
z
M 3481 434 
Q 3481 -459 3084 -895 
Q 2688 -1331 1869 -1331 
Q 1566 -1331 1297 -1286 
Q 1028 -1241 775 -1147 
L 775 -588 
Q 1028 -725 1275 -790 
Q 1522 -856 1778 -856 
Q 2344 -856 2625 -561 
Q 2906 -266 2906 331 
L 2906 616 
Q 2728 306 2450 153 
Q 2172 0 1784 0 
Q 1141 0 747 490 
Q 353 981 353 1791 
Q 353 2603 747 3093 
Q 1141 3584 1784 3584 
Q 2172 3584 2450 3431 
Q 2728 3278 2906 2969 
L 2906 3500 
L 3481 3500 
L 3481 434 
z
" transform="scale(0.015625)"/>
     </defs>
     <use xlink:href="#DejaVuSans-41"/>
     <use xlink:href="#DejaVuSans-67" x="68.408203"/>
     <use xlink:href="#DejaVuSans-65" x="131.884766"/>
    </g>
   </g>
   <g id="legend_1">
    <g id="patch_7">
     <path d="M 64.62 230.15 
L 139.843437 230.15 
Q 141.843437 230.15 141.843437 228.15 
L 141.843437 185.115625 
Q 141.843437 183.115625 139.843437 183.115625 
L 64.62 183.115625 
Q 62.62 183.115625 62.62 185.115625 
L 62.62 228.15 
Q 62.62 230.15 64.62 230.15 
z
" style="fill: #ffffff; opacity: 0.8; stroke: #cccccc; stroke-linejoin: miter"/>
    </g>
    <g id="line2d_18">
     <path d="M 66.62 191.214062 
L 76.62 191.214062 
L 86.62 191.214062 
" style="fill: none; stroke: #4878d0; stroke-width: 1.5; stroke-linecap: square"/>
    </g>
    <g id="text_8">
     <!-- [0-30) -->
     <g transform="translate(94.62 194.714062) scale(0.1 -0.1)">
      <defs>
       <path id="DejaVuSans-5b" d="M 550 4863 
L 1875 4863 
L 1875 4416 
L 1125 4416 
L 1125 -397 
L 1875 -397 
L 1875 -844 
L 550 -844 
L 550 4863 
z
" transform="scale(0.015625)"/>
       <path id="DejaVuSans-2d" d="M 313 2009 
L 1997 2009 
L 1997 1497 
L 313 1497 
L 313 2009 
z
" transform="scale(0.015625)"/>
       <path id="DejaVuSans-33" d="M 2597 2516 
Q 3050 2419 3304 2112 
Q 3559 1806 3559 1356 
Q 3559 666 3084 287 
Q 2609 -91 1734 -91 
Q 1441 -91 1130 -33 
Q 819 25 488 141 
L 488 750 
Q 750 597 1062 519 
Q 1375 441 1716 441 
Q 2309 441 2620 675 
Q 2931 909 2931 1356 
Q 2931 1769 2642 2001 
Q 2353 2234 1838 2234 
L 1294 2234 
L 1294 2753 
L 1863 2753 
Q 2328 2753 2575 2939 
Q 2822 3125 2822 3475 
Q 2822 3834 2567 4026 
Q 2313 4219 1838 4219 
Q 1578 4219 1281 4162 
Q 984 4106 628 3988 
L 628 4550 
Q 988 4650 1302 4700 
Q 1616 4750 1894 4750 
Q 2613 4750 3031 4423 
Q 3450 4097 3450 3541 
Q 3450 3153 3228 2886 
Q 3006 2619 2597 2516 
z
" transform="scale(0.015625)"/>
       <path id="DejaVuSans-29" d="M 513 4856 
L 1013 4856 
Q 1481 4119 1714 3412 
Q 1947 2706 1947 2009 
Q 1947 1309 1714 600 
Q 1481 -109 1013 -844 
L 513 -844 
Q 928 -128 1133 580 
Q 1338 1288 1338 2009 
Q 1338 2731 1133 3434 
Q 928 4138 513 4856 
z
" transform="scale(0.015625)"/>
      </defs>
      <use xlink:href="#DejaVuSans-5b"/>
      <use xlink:href="#DejaVuSans-30" x="39.013672"/>
      <use xlink:href="#DejaVuSans-2d" x="102.636719"/>
      <use xlink:href="#DejaVuSans-33" x="138.720703"/>
      <use xlink:href="#DejaVuSans-30" x="202.34375"/>
      <use xlink:href="#DejaVuSans-29" x="265.966797"/>
     </g>
    </g>
    <g id="line2d_19">
     <path d="M 66.62 205.892187 
L 76.62 205.892187 
L 86.62 205.892187 
" style="fill: none; stroke: #ee854a; stroke-width: 1.5; stroke-linecap: square"/>
    </g>
    <g id="text_9">
     <!-- [30-60) -->
     <g transform="translate(94.62 209.392187) scale(0.1 -0.1)">
      <use xlink:href="#DejaVuSans-5b"/>
      <use xlink:href="#DejaVuSans-33" x="39.013672"/>
      <use xlink:href="#DejaVuSans-30" x="102.636719"/>
      <use xlink:href="#DejaVuSans-2d" x="166.259766"/>
      <use xlink:href="#DejaVuSans-36" x="202.34375"/>
      <use xlink:href="#DejaVuSans-30" x="265.966797"/>
      <use xlink:href="#DejaVuSans-29" x="329.589844"/>
     </g>
    </g>
    <g id="line2d_20">
     <path d="M 66.62 220.570312 
L 76.62 220.570312 
L 86.62 220.570312 
" style="fill: none; stroke: #6acc64; stroke-width: 1.5; stroke-linecap: square"/>
    </g>
    <g id="text_10">
     <!-- [60-100) -->
     <g transform="translate(94.62 224.070312) scale(0.1 -0.1)">
      <defs>
       <path id="DejaVuSans-31" d="M 794 531 
L 1825 531 
L 1825 4091 
L 703 3866 
L 703 4441 
L 1819 4666 
L 2450 4666 
L 2450 531 
L 3481 531 
L 3481 0 
L 794 0 
L 794 531 
z
" transform="scale(0.015625)"/>
      </defs>
      <use xlink:href="#DejaVuSans-5b"/>
      <use xlink:href="#DejaVuSans-36" x="39.013672"/>
      <use xlink:href="#DejaVuSans-30" x="102.636719"/>
      <use xlink:href="#DejaVuSans-2d" x="166.259766"/>
      <use xlink:href="#DejaVuSans-31" x="202.34375"/>
      <use xlink:href="#DejaVuSans-30" x="265.966797"/>
      <use xlink:href="#DejaVuSans-30" x="329.589844"/>
      <use xlink:href="#DejaVuSans-29" x="393.212891"/>
     </g>
    </g>
   </g>
  </g>
  <g id="axes_2">
   <g id="patch_8">
    <path d="M 434.226667 235.15 
L 764.593333 235.15 
L 764.593333 26.88 
L 434.226667 26.88 
z
" style="fill: #ffffff"/>
   </g>
   <g id="PolyCollection_4"/>
   <g id="PolyCollection_5"/>
   <g id="PolyCollection_6"/>
   <g id="PolyCollection_7"/>
   <g id="matplotlib.axis_3">
    <g id="xtick_7">
     <g id="line2d_21">
      <g>
       <use xlink:href="#m6007f1235e" x="449.243333" y="235.15" style="stroke: #000000; stroke-width: 0.8"/>
      </g>
     </g>
    </g>
    <g id="xtick_8">
     <g id="line2d_22">
      <g>
       <use xlink:href="#m6007f1235e" x="509.31" y="235.15" style="stroke: #000000; stroke-width: 0.8"/>
      </g>
     </g>
    </g>
    <g id="xtick_9">
     <g id="line2d_23">
      <g>
       <use xlink:href="#m6007f1235e" x="569.376667" y="235.15" style="stroke: #000000; stroke-width: 0.8"/>
      </g>
     </g>
    </g>
    <g id="xtick_10">
     <g id="line2d_24">
      <g>
       <use xlink:href="#m6007f1235e" x="629.443333" y="235.15" style="stroke: #000000; stroke-width: 0.8"/>
      </g>
     </g>
    </g>
    <g id="xtick_11">
     <g id="line2d_25">
      <g>
       <use xlink:href="#m6007f1235e" x="689.51" y="235.15" style="stroke: #000000; stroke-width: 0.8"/>
      </g>
     </g>
    </g>
    <g id="xtick_12">
     <g id="line2d_26">
      <g>
       <use xlink:href="#m6007f1235e" x="749.576667" y="235.15" style="stroke: #000000; stroke-width: 0.8"/>
      </g>
     </g>
    </g>
   </g>
   <g id="matplotlib.axis_4">
    <g id="ytick_6">
     <g id="line2d_27">
      <g>
       <use xlink:href="#m1ba6231bd1" x="434.226667" y="225.683182" style="stroke: #000000; stroke-width: 0.8"/>
      </g>
     </g>
     <g id="text_11">
      <!-- 0.50 -->
      <g transform="translate(404.961042 229.482401) scale(0.1 -0.1)">
       <use xlink:href="#DejaVuSans-30"/>
       <use xlink:href="#DejaVuSans-2e" x="63.623047"/>
       <use xlink:href="#DejaVuSans-35" x="95.410156"/>
       <use xlink:href="#DejaVuSans-30" x="159.033203"/>
      </g>
     </g>
    </g>
    <g id="ytick_7">
     <g id="line2d_28">
      <g>
       <use xlink:href="#m1ba6231bd1" x="434.226667" y="201.069455" style="stroke: #000000; stroke-width: 0.8"/>
      </g>
     </g>
     <g id="text_12">
      <!-- 0.52 -->
      <g transform="translate(404.961042 204.868673) scale(0.1 -0.1)">
       <defs>
        <path id="DejaVuSans-32" d="M 1228 531 
L 3431 531 
L 3431 0 
L 469 0 
L 469 531 
Q 828 903 1448 1529 
Q 2069 2156 2228 2338 
Q 2531 2678 2651 2914 
Q 2772 3150 2772 3378 
Q 2772 3750 2511 3984 
Q 2250 4219 1831 4219 
Q 1534 4219 1204 4116 
Q 875 4013 500 3803 
L 500 4441 
Q 881 4594 1212 4672 
Q 1544 4750 1819 4750 
Q 2544 4750 2975 4387 
Q 3406 4025 3406 3419 
Q 3406 3131 3298 2873 
Q 3191 2616 2906 2266 
Q 2828 2175 2409 1742 
Q 1991 1309 1228 531 
z
" transform="scale(0.015625)"/>
       </defs>
       <use xlink:href="#DejaVuSans-30"/>
       <use xlink:href="#DejaVuSans-2e" x="63.623047"/>
       <use xlink:href="#DejaVuSans-35" x="95.410156"/>
       <use xlink:href="#DejaVuSans-32" x="159.033203"/>
      </g>
     </g>
    </g>
    <g id="ytick_8">
     <g id="line2d_29">
      <g>
       <use xlink:href="#m1ba6231bd1" x="434.226667" y="176.455727" style="stroke: #000000; stroke-width: 0.8"/>
      </g>
     </g>
     <g id="text_13">
      <!-- 0.54 -->
      <g transform="translate(404.961042 180.254946) scale(0.1 -0.1)">
       <use xlink:href="#DejaVuSans-30"/>
       <use xlink:href="#DejaVuSans-2e" x="63.623047"/>
       <use xlink:href="#DejaVuSans-35" x="95.410156"/>
       <use xlink:href="#DejaVuSans-34" x="159.033203"/>
      </g>
     </g>
    </g>
    <g id="ytick_9">
     <g id="line2d_30">
      <g>
       <use xlink:href="#m1ba6231bd1" x="434.226667" y="151.842" style="stroke: #000000; stroke-width: 0.8"/>
      </g>
     </g>
     <g id="text_14">
      <!-- 0.56 -->
      <g transform="translate(404.961042 155.641219) scale(0.1 -0.1)">
       <use xlink:href="#DejaVuSans-30"/>
       <use xlink:href="#DejaVuSans-2e" x="63.623047"/>
       <use xlink:href="#DejaVuSans-35" x="95.410156"/>
       <use xlink:href="#DejaVuSans-36" x="159.033203"/>
      </g>
     </g>
    </g>
    <g id="ytick_10">
     <g id="line2d_31">
      <g>
       <use xlink:href="#m1ba6231bd1" x="434.226667" y="127.228273" style="stroke: #000000; stroke-width: 0.8"/>
      </g>
     </g>
     <g id="text_15">
      <!-- 0.58 -->
      <g transform="translate(404.961042 131.027491) scale(0.1 -0.1)">
       <defs>
        <path id="DejaVuSans-38" d="M 2034 2216 
Q 1584 2216 1326 1975 
Q 1069 1734 1069 1313 
Q 1069 891 1326 650 
Q 1584 409 2034 409 
Q 2484 409 2743 651 
Q 3003 894 3003 1313 
Q 3003 1734 2745 1975 
Q 2488 2216 2034 2216 
z
M 1403 2484 
Q 997 2584 770 2862 
Q 544 3141 544 3541 
Q 544 4100 942 4425 
Q 1341 4750 2034 4750 
Q 2731 4750 3128 4425 
Q 3525 4100 3525 3541 
Q 3525 3141 3298 2862 
Q 3072 2584 2669 2484 
Q 3125 2378 3379 2068 
Q 3634 1759 3634 1313 
Q 3634 634 3220 271 
Q 2806 -91 2034 -91 
Q 1263 -91 848 271 
Q 434 634 434 1313 
Q 434 1759 690 2068 
Q 947 2378 1403 2484 
z
M 1172 3481 
Q 1172 3119 1398 2916 
Q 1625 2713 2034 2713 
Q 2441 2713 2670 2916 
Q 2900 3119 2900 3481 
Q 2900 3844 2670 4047 
Q 2441 4250 2034 4250 
Q 1625 4250 1398 4047 
Q 1172 3844 1172 3481 
z
" transform="scale(0.015625)"/>
       </defs>
       <use xlink:href="#DejaVuSans-30"/>
       <use xlink:href="#DejaVuSans-2e" x="63.623047"/>
       <use xlink:href="#DejaVuSans-35" x="95.410156"/>
       <use xlink:href="#DejaVuSans-38" x="159.033203"/>
      </g>
     </g>
    </g>
    <g id="ytick_11">
     <g id="line2d_32">
      <g>
       <use xlink:href="#m1ba6231bd1" x="434.226667" y="102.614545" style="stroke: #000000; stroke-width: 0.8"/>
      </g>
     </g>
     <g id="text_16">
      <!-- 0.60 -->
      <g transform="translate(404.961042 106.413764) scale(0.1 -0.1)">
       <use xlink:href="#DejaVuSans-30"/>
       <use xlink:href="#DejaVuSans-2e" x="63.623047"/>
       <use xlink:href="#DejaVuSans-36" x="95.410156"/>
       <use xlink:href="#DejaVuSans-30" x="159.033203"/>
      </g>
     </g>
    </g>
    <g id="ytick_12">
     <g id="line2d_33">
      <g>
       <use xlink:href="#m1ba6231bd1" x="434.226667" y="78.000818" style="stroke: #000000; stroke-width: 0.8"/>
      </g>
     </g>
     <g id="text_17">
      <!-- 0.62 -->
      <g transform="translate(404.961042 81.800037) scale(0.1 -0.1)">
       <use xlink:href="#DejaVuSans-30"/>
       <use xlink:href="#DejaVuSans-2e" x="63.623047"/>
       <use xlink:href="#DejaVuSans-36" x="95.410156"/>
       <use xlink:href="#DejaVuSans-32" x="159.033203"/>
      </g>
     </g>
    </g>
    <g id="ytick_13">
     <g id="line2d_34">
      <g>
       <use xlink:href="#m1ba6231bd1" x="434.226667" y="53.387091" style="stroke: #000000; stroke-width: 0.8"/>
      </g>
     </g>
     <g id="text_18">
      <!-- 0.64 -->
      <g transform="translate(404.961042 57.18631) scale(0.1 -0.1)">
       <use xlink:href="#DejaVuSans-30"/>
       <use xlink:href="#DejaVuSans-2e" x="63.623047"/>
       <use xlink:href="#DejaVuSans-36" x="95.410156"/>
       <use xlink:href="#DejaVuSans-34" x="159.033203"/>
      </g>
     </g>
    </g>
    <g id="ytick_14">
     <g id="line2d_35">
      <g>
       <use xlink:href="#m1ba6231bd1" x="434.226667" y="28.773364" style="stroke: #000000; stroke-width: 0.8"/>
      </g>
     </g>
     <g id="text_19">
      <!-- 0.66 -->
      <g transform="translate(404.961042 32.572582) scale(0.1 -0.1)">
       <use xlink:href="#DejaVuSans-30"/>
       <use xlink:href="#DejaVuSans-2e" x="63.623047"/>
       <use xlink:href="#DejaVuSans-36" x="95.410156"/>
       <use xlink:href="#DejaVuSans-36" x="159.033203"/>
      </g>
     </g>
    </g>
   </g>
   <g id="line2d_36">
    <path d="M 449.243333 186.673696 
L 459.254444 187.932066 
L 469.265556 189.190437 
L 479.276667 190.448807 
L 489.287778 187.932066 
L 499.298889 189.190437 
L 509.31 190.448807 
L 519.321111 192.965548 
L 529.332222 197.99903 
L 539.343333 196.74066 
L 549.354444 195.482289 
L 559.365556 194.223919 
L 569.376667 192.965548 
L 579.387778 191.707178 
L 589.398889 190.448807 
L 599.41 186.673696 
L 609.421111 187.932066 
L 619.432222 190.448807 
L 629.443333 189.190437 
L 639.454444 190.448807 
L 649.465556 190.448807 
L 659.476667 196.74066 
L 669.487778 195.482289 
L 679.498889 191.707178 
L 689.51 194.223919 
L 699.521111 195.482289 
L 709.532222 196.74066 
L 719.543333 196.74066 
L 729.554444 197.99903 
L 739.565556 199.257401 
L 749.576667 210.582736 
" clip-path="url(#p6505dbedec)" style="fill: none; stroke: #d65f5f; stroke-width: 1.5; stroke-linecap: square"/>
   </g>
   <g id="line2d_37">
    <path d="M 449.243333 36.346818 
L 459.254444 36.346818 
L 469.265556 36.346818 
L 479.276667 83.680909 
L 489.287778 83.680909 
L 499.298889 83.680909 
L 509.31 83.680909 
L 519.321111 131.015 
L 529.332222 131.015 
L 539.343333 131.015 
L 549.354444 131.015 
L 559.365556 131.015 
L 569.376667 131.015 
L 579.387778 131.015 
L 589.398889 131.015 
L 599.41 131.015 
L 609.421111 131.015 
L 619.432222 131.015 
L 629.443333 178.349091 
L 639.454444 178.349091 
L 649.465556 178.349091 
L 659.476667 178.349091 
L 669.487778 178.349091 
L 679.498889 178.349091 
L 689.51 178.349091 
L 699.521111 178.349091 
L 709.532222 178.349091 
L 719.543333 178.349091 
L 729.554444 225.683182 
L 739.565556 225.683182 
L 749.576667 225.683182 
" clip-path="url(#p6505dbedec)" style="fill: none; stroke: #956cb4; stroke-width: 1.5; stroke-linecap: square"/>
   </g>
   <g id="line2d_38">
    <path d="M 449.243333 181.378473 
L 459.254444 180.393924 
L 469.265556 179.737558 
L 479.276667 178.424825 
L 489.287778 177.768459 
L 499.298889 176.78391 
L 509.31 175.471178 
L 519.321111 174.486629 
L 529.332222 174.486629 
L 539.343333 171.532982 
L 549.354444 170.548433 
L 559.365556 170.548433 
L 569.376667 169.235701 
L 579.387778 167.266602 
L 589.398889 167.266602 
L 599.41 164.312955 
L 609.421111 163.984772 
L 619.432222 163.000223 
L 629.443333 162.015674 
L 639.454444 160.046576 
L 649.465556 159.062027 
L 659.476667 159.39021 
L 669.487778 159.062027 
L 679.498889 159.062027 
L 689.51 159.062027 
L 699.521111 157.749295 
L 709.532222 156.764745 
L 719.543333 157.092928 
L 729.554444 157.092928 
L 739.565556 157.749295 
L 749.576667 153.154732 
" clip-path="url(#p6505dbedec)" style="fill: none; stroke: #8c613c; stroke-width: 1.5; stroke-linecap: square"/>
   </g>
   <g id="line2d_39">
    <path d="M 449.243333 151.842 
L 459.254444 168.251152 
L 469.265556 168.251152 
L 479.276667 168.251152 
L 489.287778 168.251152 
L 499.298889 168.251152 
L 509.31 168.251152 
L 519.321111 168.251152 
L 529.332222 168.251152 
L 539.343333 168.251152 
L 549.354444 168.251152 
L 559.365556 168.251152 
L 569.376667 168.251152 
L 579.387778 168.251152 
L 589.398889 168.251152 
L 599.41 168.251152 
L 609.421111 168.251152 
L 619.432222 168.251152 
L 629.443333 168.251152 
L 639.454444 168.251152 
L 649.465556 168.251152 
L 659.476667 168.251152 
L 669.487778 168.251152 
L 679.498889 168.251152 
L 689.51 168.251152 
L 699.521111 168.251152 
L 709.532222 184.660303 
L 719.543333 184.660303 
L 729.554444 184.660303 
L 739.565556 184.660303 
L 749.576667 184.660303 
" clip-path="url(#p6505dbedec)" style="fill: none; stroke: #dc7ec0; stroke-width: 1.5; stroke-linecap: square"/>
   </g>
   <g id="line2d_40"/>
   <g id="line2d_41"/>
   <g id="line2d_42"/>
   <g id="line2d_43"/>
   <g id="patch_9">
    <path d="M 434.226667 235.15 
L 434.226667 26.88 
" style="fill: none; stroke: #000000; stroke-width: 0.8; stroke-linejoin: miter; stroke-linecap: square"/>
   </g>
   <g id="patch_10">
    <path d="M 764.593333 235.15 
L 764.593333 26.88 
" style="fill: none; stroke: #000000; stroke-width: 0.8; stroke-linejoin: miter; stroke-linecap: square"/>
   </g>
   <g id="patch_11">
    <path d="M 434.226667 235.15 
L 764.593333 235.15 
" style="fill: none; stroke: #000000; stroke-width: 0.8; stroke-linejoin: miter; stroke-linecap: square"/>
   </g>
   <g id="patch_12">
    <path d="M 434.226667 26.88 
L 764.593333 26.88 
" style="fill: none; stroke: #000000; stroke-width: 0.8; stroke-linejoin: miter; stroke-linecap: square"/>
   </g>
   <g id="text_20">
    <!-- Race -->
    <g transform="translate(584.708125 20.88) scale(0.12 -0.12)">
     <defs>
      <path id="DejaVuSans-63" d="M 3122 3366 
L 3122 2828 
Q 2878 2963 2633 3030 
Q 2388 3097 2138 3097 
Q 1578 3097 1268 2742 
Q 959 2388 959 1747 
Q 959 1106 1268 751 
Q 1578 397 2138 397 
Q 2388 397 2633 464 
Q 2878 531 3122 666 
L 3122 134 
Q 2881 22 2623 -34 
Q 2366 -91 2075 -91 
Q 1284 -91 818 406 
Q 353 903 353 1747 
Q 353 2603 823 3093 
Q 1294 3584 2113 3584 
Q 2378 3584 2631 3529 
Q 2884 3475 3122 3366 
z
" transform="scale(0.015625)"/>
     </defs>
     <use xlink:href="#DejaVuSans-52"/>
     <use xlink:href="#DejaVuSans-61" x="67.232422"/>
     <use xlink:href="#DejaVuSans-63" x="128.511719"/>
     <use xlink:href="#DejaVuSans-65" x="183.492188"/>
    </g>
   </g>
   <g id="legend_2">
    <g id="patch_13">
     <path d="M 643.154271 93.5925 
L 757.593333 93.5925 
Q 759.593333 93.5925 759.593333 91.5925 
L 759.593333 33.88 
Q 759.593333 31.88 757.593333 31.88 
L 643.154271 31.88 
Q 641.154271 31.88 641.154271 33.88 
L 641.154271 91.5925 
Q 641.154271 93.5925 643.154271 93.5925 
z
" style="fill: #ffffff; opacity: 0.8; stroke: #cccccc; stroke-linejoin: miter"/>
    </g>
    <g id="line2d_44">
     <path d="M 645.154271 39.978437 
L 655.154271 39.978437 
L 665.154271 39.978437 
" style="fill: none; stroke: #d65f5f; stroke-width: 1.5; stroke-linecap: square"/>
    </g>
    <g id="text_21">
     <!-- AfricanAmerican -->
     <g transform="translate(673.154271 43.478437) scale(0.1 -0.1)">
      <defs>
       <path id="DejaVuSans-66" d="M 2375 4863 
L 2375 4384 
L 1825 4384 
Q 1516 4384 1395 4259 
Q 1275 4134 1275 3809 
L 1275 3500 
L 2222 3500 
L 2222 3053 
L 1275 3053 
L 1275 0 
L 697 0 
L 697 3053 
L 147 3053 
L 147 3500 
L 697 3500 
L 697 3744 
Q 697 4328 969 4595 
Q 1241 4863 1831 4863 
L 2375 4863 
z
" transform="scale(0.015625)"/>
       <path id="DejaVuSans-6e" d="M 3513 2113 
L 3513 0 
L 2938 0 
L 2938 2094 
Q 2938 2591 2744 2837 
Q 2550 3084 2163 3084 
Q 1697 3084 1428 2787 
Q 1159 2491 1159 1978 
L 1159 0 
L 581 0 
L 581 3500 
L 1159 3500 
L 1159 2956 
Q 1366 3272 1645 3428 
Q 1925 3584 2291 3584 
Q 2894 3584 3203 3211 
Q 3513 2838 3513 2113 
z
" transform="scale(0.015625)"/>
       <path id="DejaVuSans-6d" d="M 3328 2828 
Q 3544 3216 3844 3400 
Q 4144 3584 4550 3584 
Q 5097 3584 5394 3201 
Q 5691 2819 5691 2113 
L 5691 0 
L 5113 0 
L 5113 2094 
Q 5113 2597 4934 2840 
Q 4756 3084 4391 3084 
Q 3944 3084 3684 2787 
Q 3425 2491 3425 1978 
L 3425 0 
L 2847 0 
L 2847 2094 
Q 2847 2600 2669 2842 
Q 2491 3084 2119 3084 
Q 1678 3084 1418 2786 
Q 1159 2488 1159 1978 
L 1159 0 
L 581 0 
L 581 3500 
L 1159 3500 
L 1159 2956 
Q 1356 3278 1631 3431 
Q 1906 3584 2284 3584 
Q 2666 3584 2933 3390 
Q 3200 3197 3328 2828 
z
" transform="scale(0.015625)"/>
      </defs>
      <use xlink:href="#DejaVuSans-41"/>
      <use xlink:href="#DejaVuSans-66" x="64.783203"/>
      <use xlink:href="#DejaVuSans-72" x="99.988281"/>
      <use xlink:href="#DejaVuSans-69" x="141.101562"/>
      <use xlink:href="#DejaVuSans-63" x="168.884766"/>
      <use xlink:href="#DejaVuSans-61" x="223.865234"/>
      <use xlink:href="#DejaVuSans-6e" x="285.144531"/>
      <use xlink:href="#DejaVuSans-41" x="348.523438"/>
      <use xlink:href="#DejaVuSans-6d" x="416.931641"/>
      <use xlink:href="#DejaVuSans-65" x="514.34375"/>
      <use xlink:href="#DejaVuSans-72" x="575.867188"/>
      <use xlink:href="#DejaVuSans-69" x="616.980469"/>
      <use xlink:href="#DejaVuSans-63" x="644.763672"/>
      <use xlink:href="#DejaVuSans-61" x="699.744141"/>
      <use xlink:href="#DejaVuSans-6e" x="761.023438"/>
     </g>
    </g>
    <g id="line2d_45">
     <path d="M 645.154271 54.656563 
L 655.154271 54.656563 
L 665.154271 54.656563 
" style="fill: none; stroke: #956cb4; stroke-width: 1.5; stroke-linecap: square"/>
    </g>
    <g id="text_22">
     <!-- Asian -->
     <g transform="translate(673.154271 58.156563) scale(0.1 -0.1)">
      <use xlink:href="#DejaVuSans-41"/>
      <use xlink:href="#DejaVuSans-73" x="68.408203"/>
      <use xlink:href="#DejaVuSans-69" x="120.507812"/>
      <use xlink:href="#DejaVuSans-61" x="148.291016"/>
      <use xlink:href="#DejaVuSans-6e" x="209.570312"/>
     </g>
    </g>
    <g id="line2d_46">
     <path d="M 645.154271 69.334687 
L 655.154271 69.334687 
L 665.154271 69.334687 
" style="fill: none; stroke: #8c613c; stroke-width: 1.5; stroke-linecap: square"/>
    </g>
    <g id="text_23">
     <!-- Caucasian -->
     <g transform="translate(673.154271 72.834687) scale(0.1 -0.1)">
      <defs>
       <path id="DejaVuSans-43" d="M 4122 4306 
L 4122 3641 
Q 3803 3938 3442 4084 
Q 3081 4231 2675 4231 
Q 1875 4231 1450 3742 
Q 1025 3253 1025 2328 
Q 1025 1406 1450 917 
Q 1875 428 2675 428 
Q 3081 428 3442 575 
Q 3803 722 4122 1019 
L 4122 359 
Q 3791 134 3420 21 
Q 3050 -91 2638 -91 
Q 1578 -91 968 557 
Q 359 1206 359 2328 
Q 359 3453 968 4101 
Q 1578 4750 2638 4750 
Q 3056 4750 3426 4639 
Q 3797 4528 4122 4306 
z
" transform="scale(0.015625)"/>
      </defs>
      <use xlink:href="#DejaVuSans-43"/>
      <use xlink:href="#DejaVuSans-61" x="69.824219"/>
      <use xlink:href="#DejaVuSans-75" x="131.103516"/>
      <use xlink:href="#DejaVuSans-63" x="194.482422"/>
      <use xlink:href="#DejaVuSans-61" x="249.462891"/>
      <use xlink:href="#DejaVuSans-73" x="310.742188"/>
      <use xlink:href="#DejaVuSans-69" x="362.841797"/>
      <use xlink:href="#DejaVuSans-61" x="390.625"/>
      <use xlink:href="#DejaVuSans-6e" x="451.904297"/>
     </g>
    </g>
    <g id="line2d_47">
     <path d="M 645.154271 84.012812 
L 655.154271 84.012812 
L 665.154271 84.012812 
" style="fill: none; stroke: #dc7ec0; stroke-width: 1.5; stroke-linecap: square"/>
    </g>
    <g id="text_24">
     <!-- Hispanic -->
     <g transform="translate(673.154271 87.512812) scale(0.1 -0.1)">
      <defs>
       <path id="DejaVuSans-48" d="M 628 4666 
L 1259 4666 
L 1259 2753 
L 3553 2753 
L 3553 4666 
L 4184 4666 
L 4184 0 
L 3553 0 
L 3553 2222 
L 1259 2222 
L 1259 0 
L 628 0 
L 628 4666 
z
" transform="scale(0.015625)"/>
       <path id="DejaVuSans-70" d="M 1159 525 
L 1159 -1331 
L 581 -1331 
L 581 3500 
L 1159 3500 
L 1159 2969 
Q 1341 3281 1617 3432 
Q 1894 3584 2278 3584 
Q 2916 3584 3314 3078 
Q 3713 2572 3713 1747 
Q 3713 922 3314 415 
Q 2916 -91 2278 -91 
Q 1894 -91 1617 61 
Q 1341 213 1159 525 
z
M 3116 1747 
Q 3116 2381 2855 2742 
Q 2594 3103 2138 3103 
Q 1681 3103 1420 2742 
Q 1159 2381 1159 1747 
Q 1159 1113 1420 752 
Q 1681 391 2138 391 
Q 2594 391 2855 752 
Q 3116 1113 3116 1747 
z
" transform="scale(0.015625)"/>
      </defs>
      <use xlink:href="#DejaVuSans-48"/>
      <use xlink:href="#DejaVuSans-69" x="75.195312"/>
      <use xlink:href="#DejaVuSans-73" x="102.978516"/>
      <use xlink:href="#DejaVuSans-70" x="155.078125"/>
      <use xlink:href="#DejaVuSans-61" x="218.554688"/>
      <use xlink:href="#DejaVuSans-6e" x="279.833984"/>
      <use xlink:href="#DejaVuSans-69" x="343.212891"/>
      <use xlink:href="#DejaVuSans-63" x="370.996094"/>
     </g>
    </g>
   </g>
  </g>
  <g id="axes_3">
   <g id="patch_14">
    <path d="M 810.833333 235.15 
L 1141.2 235.15 
L 1141.2 26.88 
L 810.833333 26.88 
z
" style="fill: #ffffff"/>
   </g>
   <g id="PolyCollection_8"/>
   <g id="PolyCollection_9"/>
   <g id="matplotlib.axis_5">
    <g id="xtick_13">
     <g id="line2d_48">
      <g>
       <use xlink:href="#m6007f1235e" x="825.85" y="235.15" style="stroke: #000000; stroke-width: 0.8"/>
      </g>
     </g>
    </g>
    <g id="xtick_14">
     <g id="line2d_49">
      <g>
       <use xlink:href="#m6007f1235e" x="885.916667" y="235.15" style="stroke: #000000; stroke-width: 0.8"/>
      </g>
     </g>
    </g>
    <g id="xtick_15">
     <g id="line2d_50">
      <g>
       <use xlink:href="#m6007f1235e" x="945.983333" y="235.15" style="stroke: #000000; stroke-width: 0.8"/>
      </g>
     </g>
    </g>
    <g id="xtick_16">
     <g id="line2d_51">
      <g>
       <use xlink:href="#m6007f1235e" x="1006.05" y="235.15" style="stroke: #000000; stroke-width: 0.8"/>
      </g>
     </g>
    </g>
    <g id="xtick_17">
     <g id="line2d_52">
      <g>
       <use xlink:href="#m6007f1235e" x="1066.116667" y="235.15" style="stroke: #000000; stroke-width: 0.8"/>
      </g>
     </g>
    </g>
    <g id="xtick_18">
     <g id="line2d_53">
      <g>
       <use xlink:href="#m6007f1235e" x="1126.183333" y="235.15" style="stroke: #000000; stroke-width: 0.8"/>
      </g>
     </g>
    </g>
   </g>
   <g id="matplotlib.axis_6">
    <g id="ytick_15">
     <g id="line2d_54">
      <g>
       <use xlink:href="#m1ba6231bd1" x="810.833333" y="216.031706" style="stroke: #000000; stroke-width: 0.8"/>
      </g>
     </g>
     <g id="text_25">
      <!-- 0.535 -->
      <g transform="translate(775.205208 219.830925) scale(0.1 -0.1)">
       <use xlink:href="#DejaVuSans-30"/>
       <use xlink:href="#DejaVuSans-2e" x="63.623047"/>
       <use xlink:href="#DejaVuSans-35" x="95.410156"/>
       <use xlink:href="#DejaVuSans-33" x="159.033203"/>
       <use xlink:href="#DejaVuSans-35" x="222.65625"/>
      </g>
     </g>
    </g>
    <g id="ytick_16">
     <g id="line2d_55">
      <g>
       <use xlink:href="#m1ba6231bd1" x="810.833333" y="182.159331" style="stroke: #000000; stroke-width: 0.8"/>
      </g>
     </g>
     <g id="text_26">
      <!-- 0.540 -->
      <g transform="translate(775.205208 185.958549) scale(0.1 -0.1)">
       <use xlink:href="#DejaVuSans-30"/>
       <use xlink:href="#DejaVuSans-2e" x="63.623047"/>
       <use xlink:href="#DejaVuSans-35" x="95.410156"/>
       <use xlink:href="#DejaVuSans-34" x="159.033203"/>
       <use xlink:href="#DejaVuSans-30" x="222.65625"/>
      </g>
     </g>
    </g>
    <g id="ytick_17">
     <g id="line2d_56">
      <g>
       <use xlink:href="#m1ba6231bd1" x="810.833333" y="148.286955" style="stroke: #000000; stroke-width: 0.8"/>
      </g>
     </g>
     <g id="text_27">
      <!-- 0.545 -->
      <g transform="translate(775.205208 152.086174) scale(0.1 -0.1)">
       <use xlink:href="#DejaVuSans-30"/>
       <use xlink:href="#DejaVuSans-2e" x="63.623047"/>
       <use xlink:href="#DejaVuSans-35" x="95.410156"/>
       <use xlink:href="#DejaVuSans-34" x="159.033203"/>
       <use xlink:href="#DejaVuSans-35" x="222.65625"/>
      </g>
     </g>
    </g>
    <g id="ytick_18">
     <g id="line2d_57">
      <g>
       <use xlink:href="#m1ba6231bd1" x="810.833333" y="114.414579" style="stroke: #000000; stroke-width: 0.8"/>
      </g>
     </g>
     <g id="text_28">
      <!-- 0.550 -->
      <g transform="translate(775.205208 118.213798) scale(0.1 -0.1)">
       <use xlink:href="#DejaVuSans-30"/>
       <use xlink:href="#DejaVuSans-2e" x="63.623047"/>
       <use xlink:href="#DejaVuSans-35" x="95.410156"/>
       <use xlink:href="#DejaVuSans-35" x="159.033203"/>
       <use xlink:href="#DejaVuSans-30" x="222.65625"/>
      </g>
     </g>
    </g>
    <g id="ytick_19">
     <g id="line2d_58">
      <g>
       <use xlink:href="#m1ba6231bd1" x="810.833333" y="80.542204" style="stroke: #000000; stroke-width: 0.8"/>
      </g>
     </g>
     <g id="text_29">
      <!-- 0.555 -->
      <g transform="translate(775.205208 84.341422) scale(0.1 -0.1)">
       <use xlink:href="#DejaVuSans-30"/>
       <use xlink:href="#DejaVuSans-2e" x="63.623047"/>
       <use xlink:href="#DejaVuSans-35" x="95.410156"/>
       <use xlink:href="#DejaVuSans-35" x="159.033203"/>
       <use xlink:href="#DejaVuSans-35" x="222.65625"/>
      </g>
     </g>
    </g>
    <g id="ytick_20">
     <g id="line2d_59">
      <g>
       <use xlink:href="#m1ba6231bd1" x="810.833333" y="46.669828" style="stroke: #000000; stroke-width: 0.8"/>
      </g>
     </g>
     <g id="text_30">
      <!-- 0.560 -->
      <g transform="translate(775.205208 50.469047) scale(0.1 -0.1)">
       <use xlink:href="#DejaVuSans-30"/>
       <use xlink:href="#DejaVuSans-2e" x="63.623047"/>
       <use xlink:href="#DejaVuSans-35" x="95.410156"/>
       <use xlink:href="#DejaVuSans-36" x="159.033203"/>
       <use xlink:href="#DejaVuSans-30" x="222.65625"/>
      </g>
     </g>
    </g>
   </g>
   <g id="line2d_60">
    <path d="M 825.85 201.514974 
L 835.861111 196.353469 
L 845.872222 198.934221 
L 855.883333 201.514974 
L 865.894444 191.191964 
L 875.905556 186.030459 
L 885.916667 188.611212 
L 895.927778 191.191964 
L 905.938889 196.353469 
L 915.95 186.030459 
L 925.961111 175.70745 
L 935.972222 173.126697 
L 945.983333 162.803687 
L 955.994444 142.157668 
L 966.005556 147.319173 
L 976.016667 124.092401 
L 986.027778 116.350144 
L 996.038889 108.607886 
L 1006.05 108.607886 
L 1016.061111 95.704124 
L 1026.072222 90.542619 
L 1036.083333 95.704124 
L 1046.094444 85.381114 
L 1056.105556 80.21961 
L 1066.116667 62.154343 
L 1076.127778 59.57359 
L 1086.138889 51.831333 
L 1096.15 49.25058 
L 1106.161111 51.831333 
L 1116.172222 56.992838 
L 1126.183333 36.346818 
" clip-path="url(#p462256eb63)" style="fill: none; stroke: #797979; stroke-width: 1.5; stroke-linecap: square"/>
   </g>
   <g id="line2d_61">
    <path d="M 825.85 216.462027 
L 835.861111 219.535745 
L 845.872222 213.388309 
L 855.883333 204.167154 
L 865.894444 204.167154 
L 875.905556 204.167154 
L 885.916667 191.87228 
L 895.927778 188.798562 
L 905.938889 194.945999 
L 915.95 176.503689 
L 925.961111 176.503689 
L 935.972222 176.503689 
L 945.983333 173.429971 
L 955.994444 176.503689 
L 966.005556 167.282534 
L 976.016667 158.061379 
L 986.027778 167.282534 
L 996.038889 173.429971 
L 1006.05 164.208816 
L 1016.061111 164.208816 
L 1026.072222 161.135097 
L 1036.083333 173.429971 
L 1046.094444 179.577407 
L 1056.105556 176.503689 
L 1066.116667 204.167154 
L 1076.127778 198.019717 
L 1086.138889 204.167154 
L 1096.15 210.31459 
L 1106.161111 213.388309 
L 1116.172222 216.462027 
L 1126.183333 225.683182 
" clip-path="url(#p462256eb63)" style="fill: none; stroke: #d5bb67; stroke-width: 1.5; stroke-linecap: square"/>
   </g>
   <g id="line2d_62"/>
   <g id="line2d_63"/>
   <g id="patch_15">
    <path d="M 810.833333 235.15 
L 810.833333 26.88 
" style="fill: none; stroke: #000000; stroke-width: 0.8; stroke-linejoin: miter; stroke-linecap: square"/>
   </g>
   <g id="patch_16">
    <path d="M 1141.2 235.15 
L 1141.2 26.88 
" style="fill: none; stroke: #000000; stroke-width: 0.8; stroke-linejoin: miter; stroke-linecap: square"/>
   </g>
   <g id="patch_17">
    <path d="M 810.833333 235.15 
L 1141.2 235.15 
" style="fill: none; stroke: #000000; stroke-width: 0.8; stroke-linejoin: miter; stroke-linecap: square"/>
   </g>
   <g id="patch_18">
    <path d="M 810.833333 26.88 
L 1141.2 26.88 
" style="fill: none; stroke: #000000; stroke-width: 0.8; stroke-linejoin: miter; stroke-linecap: square"/>
   </g>
   <g id="text_31">
    <!-- Gender -->
    <g transform="translate(953.905729 20.88) scale(0.12 -0.12)">
     <defs>
      <path id="DejaVuSans-47" d="M 3809 666 
L 3809 1919 
L 2778 1919 
L 2778 2438 
L 4434 2438 
L 4434 434 
Q 4069 175 3628 42 
Q 3188 -91 2688 -91 
Q 1594 -91 976 548 
Q 359 1188 359 2328 
Q 359 3472 976 4111 
Q 1594 4750 2688 4750 
Q 3144 4750 3555 4637 
Q 3966 4525 4313 4306 
L 4313 3634 
Q 3963 3931 3569 4081 
Q 3175 4231 2741 4231 
Q 1884 4231 1454 3753 
Q 1025 3275 1025 2328 
Q 1025 1384 1454 906 
Q 1884 428 2741 428 
Q 3075 428 3337 486 
Q 3600 544 3809 666 
z
" transform="scale(0.015625)"/>
      <path id="DejaVuSans-64" d="M 2906 2969 
L 2906 4863 
L 3481 4863 
L 3481 0 
L 2906 0 
L 2906 525 
Q 2725 213 2448 61 
Q 2172 -91 1784 -91 
Q 1150 -91 751 415 
Q 353 922 353 1747 
Q 353 2572 751 3078 
Q 1150 3584 1784 3584 
Q 2172 3584 2448 3432 
Q 2725 3281 2906 2969 
z
M 947 1747 
Q 947 1113 1208 752 
Q 1469 391 1925 391 
Q 2381 391 2643 752 
Q 2906 1113 2906 1747 
Q 2906 2381 2643 2742 
Q 2381 3103 1925 3103 
Q 1469 3103 1208 2742 
Q 947 2381 947 1747 
z
" transform="scale(0.015625)"/>
     </defs>
     <use xlink:href="#DejaVuSans-47"/>
     <use xlink:href="#DejaVuSans-65" x="77.490234"/>
     <use xlink:href="#DejaVuSans-6e" x="139.013672"/>
     <use xlink:href="#DejaVuSans-64" x="202.392578"/>
     <use xlink:href="#DejaVuSans-65" x="265.869141"/>
     <use xlink:href="#DejaVuSans-72" x="327.392578"/>
    </g>
   </g>
   <g id="legend_3">
    <g id="patch_19">
     <path d="M 817.833333 64.23625 
L 885.988021 64.23625 
Q 887.988021 64.23625 887.988021 62.23625 
L 887.988021 33.88 
Q 887.988021 31.88 885.988021 31.88 
L 817.833333 31.88 
Q 815.833333 31.88 815.833333 33.88 
L 815.833333 62.23625 
Q 815.833333 64.23625 817.833333 64.23625 
z
" style="fill: #ffffff; opacity: 0.8; stroke: #cccccc; stroke-linejoin: miter"/>
    </g>
    <g id="line2d_64">
     <path d="M 819.833333 39.978437 
L 829.833333 39.978437 
L 839.833333 39.978437 
" style="fill: none; stroke: #797979; stroke-width: 1.5; stroke-linecap: square"/>
    </g>
    <g id="text_32">
     <!-- Female -->
     <g transform="translate(847.833333 43.478437) scale(0.1 -0.1)">
      <defs>
       <path id="DejaVuSans-46" d="M 628 4666 
L 3309 4666 
L 3309 4134 
L 1259 4134 
L 1259 2759 
L 3109 2759 
L 3109 2228 
L 1259 2228 
L 1259 0 
L 628 0 
L 628 4666 
z
" transform="scale(0.015625)"/>
       <path id="DejaVuSans-6c" d="M 603 4863 
L 1178 4863 
L 1178 0 
L 603 0 
L 603 4863 
z
" transform="scale(0.015625)"/>
      </defs>
      <use xlink:href="#DejaVuSans-46"/>
      <use xlink:href="#DejaVuSans-65" x="52.019531"/>
      <use xlink:href="#DejaVuSans-6d" x="113.542969"/>
      <use xlink:href="#DejaVuSans-61" x="210.955078"/>
      <use xlink:href="#DejaVuSans-6c" x="272.234375"/>
      <use xlink:href="#DejaVuSans-65" x="300.017578"/>
     </g>
    </g>
    <g id="line2d_65">
     <path d="M 819.833333 54.656562 
L 829.833333 54.656562 
L 839.833333 54.656562 
" style="fill: none; stroke: #d5bb67; stroke-width: 1.5; stroke-linecap: square"/>
    </g>
    <g id="text_33">
     <!-- Male -->
     <g transform="translate(847.833333 58.156562) scale(0.1 -0.1)">
      <defs>
       <path id="DejaVuSans-4d" d="M 628 4666 
L 1569 4666 
L 2759 1491 
L 3956 4666 
L 4897 4666 
L 4897 0 
L 4281 0 
L 4281 4097 
L 3078 897 
L 2444 897 
L 1241 4097 
L 1241 0 
L 628 0 
L 628 4666 
z
" transform="scale(0.015625)"/>
      </defs>
      <use xlink:href="#DejaVuSans-4d"/>
      <use xlink:href="#DejaVuSans-61" x="86.279297"/>
      <use xlink:href="#DejaVuSans-6c" x="147.558594"/>
      <use xlink:href="#DejaVuSans-65" x="175.341797"/>
     </g>
    </g>
   </g>
  </g>
  <g id="axes_4">
   <g id="patch_20">
    <path d="M 57.62 457.72 
L 387.986667 457.72 
L 387.986667 249.45 
L 57.62 249.45 
z
" style="fill: #ffffff"/>
   </g>
   <g id="PolyCollection_10"/>
   <g id="PolyCollection_11"/>
   <g id="PolyCollection_12"/>
   <g id="matplotlib.axis_7">
    <g id="xtick_19">
     <g id="line2d_66">
      <g>
       <use xlink:href="#m6007f1235e" x="72.636667" y="457.72" style="stroke: #000000; stroke-width: 0.8"/>
      </g>
     </g>
     <g id="text_34">
      <!-- 0.0 -->
      <g transform="translate(64.685104 472.318438) scale(0.1 -0.1)">
       <use xlink:href="#DejaVuSans-30"/>
       <use xlink:href="#DejaVuSans-2e" x="63.623047"/>
       <use xlink:href="#DejaVuSans-30" x="95.410156"/>
      </g>
     </g>
    </g>
    <g id="xtick_20">
     <g id="line2d_67">
      <g>
       <use xlink:href="#m6007f1235e" x="132.703333" y="457.72" style="stroke: #000000; stroke-width: 0.8"/>
      </g>
     </g>
     <g id="text_35">
      <!-- 0.2 -->
      <g transform="translate(124.751771 472.318438) scale(0.1 -0.1)">
       <use xlink:href="#DejaVuSans-30"/>
       <use xlink:href="#DejaVuSans-2e" x="63.623047"/>
       <use xlink:href="#DejaVuSans-32" x="95.410156"/>
      </g>
     </g>
    </g>
    <g id="xtick_21">
     <g id="line2d_68">
      <g>
       <use xlink:href="#m6007f1235e" x="192.77" y="457.72" style="stroke: #000000; stroke-width: 0.8"/>
      </g>
     </g>
     <g id="text_36">
      <!-- 0.4 -->
      <g transform="translate(184.818438 472.318438) scale(0.1 -0.1)">
       <use xlink:href="#DejaVuSans-30"/>
       <use xlink:href="#DejaVuSans-2e" x="63.623047"/>
       <use xlink:href="#DejaVuSans-34" x="95.410156"/>
      </g>
     </g>
    </g>
    <g id="xtick_22">
     <g id="line2d_69">
      <g>
       <use xlink:href="#m6007f1235e" x="252.836667" y="457.72" style="stroke: #000000; stroke-width: 0.8"/>
      </g>
     </g>
     <g id="text_37">
      <!-- 0.6 -->
      <g transform="translate(244.885104 472.318438) scale(0.1 -0.1)">
       <use xlink:href="#DejaVuSans-30"/>
       <use xlink:href="#DejaVuSans-2e" x="63.623047"/>
       <use xlink:href="#DejaVuSans-36" x="95.410156"/>
      </g>
     </g>
    </g>
    <g id="xtick_23">
     <g id="line2d_70">
      <g>
       <use xlink:href="#m6007f1235e" x="312.903333" y="457.72" style="stroke: #000000; stroke-width: 0.8"/>
      </g>
     </g>
     <g id="text_38">
      <!-- 0.8 -->
      <g transform="translate(304.951771 472.318438) scale(0.1 -0.1)">
       <use xlink:href="#DejaVuSans-30"/>
       <use xlink:href="#DejaVuSans-2e" x="63.623047"/>
       <use xlink:href="#DejaVuSans-38" x="95.410156"/>
      </g>
     </g>
    </g>
    <g id="xtick_24">
     <g id="line2d_71">
      <g>
       <use xlink:href="#m6007f1235e" x="372.97" y="457.72" style="stroke: #000000; stroke-width: 0.8"/>
      </g>
     </g>
     <g id="text_39">
      <!-- 1.0 -->
      <g transform="translate(365.018438 472.318438) scale(0.1 -0.1)">
       <use xlink:href="#DejaVuSans-31"/>
       <use xlink:href="#DejaVuSans-2e" x="63.623047"/>
       <use xlink:href="#DejaVuSans-30" x="95.410156"/>
      </g>
     </g>
    </g>
    <g id="text_40">
     <!-- lambda ($\lambda$) -->
     <g transform="translate(187.443333 488.276094) scale(0.13 -0.13)">
      <defs>
       <path id="DejaVuSans-62" d="M 3116 1747 
Q 3116 2381 2855 2742 
Q 2594 3103 2138 3103 
Q 1681 3103 1420 2742 
Q 1159 2381 1159 1747 
Q 1159 1113 1420 752 
Q 1681 391 2138 391 
Q 2594 391 2855 752 
Q 3116 1113 3116 1747 
z
M 1159 2969 
Q 1341 3281 1617 3432 
Q 1894 3584 2278 3584 
Q 2916 3584 3314 3078 
Q 3713 2572 3713 1747 
Q 3713 922 3314 415 
Q 2916 -91 2278 -91 
Q 1894 -91 1617 61 
Q 1341 213 1159 525 
L 1159 0 
L 581 0 
L 581 4863 
L 1159 4863 
L 1159 2969 
z
" transform="scale(0.015625)"/>
       <path id="DejaVuSans-28" d="M 1984 4856 
Q 1566 4138 1362 3434 
Q 1159 2731 1159 2009 
Q 1159 1288 1364 580 
Q 1569 -128 1984 -844 
L 1484 -844 
Q 1016 -109 783 600 
Q 550 1309 550 2009 
Q 550 2706 781 3412 
Q 1013 4119 1484 4856 
L 1984 4856 
z
" transform="scale(0.015625)"/>
       <path id="DejaVuSans-Oblique-3bb" d="M 2350 4316 
L 3125 0 
L 2516 0 
L 2038 2588 
L 328 0 
L -281 0 
L 1903 3356 
L 1794 3975 
Q 1725 4369 1391 4369 
L 1091 4369 
L 1184 4863 
L 1550 4856 
Q 2253 4847 2350 4316 
z
" transform="scale(0.015625)"/>
      </defs>
      <use xlink:href="#DejaVuSans-6c" transform="translate(0 0.015625)"/>
      <use xlink:href="#DejaVuSans-61" transform="translate(27.783203 0.015625)"/>
      <use xlink:href="#DejaVuSans-6d" transform="translate(89.0625 0.015625)"/>
      <use xlink:href="#DejaVuSans-62" transform="translate(186.474609 0.015625)"/>
      <use xlink:href="#DejaVuSans-64" transform="translate(249.951172 0.015625)"/>
      <use xlink:href="#DejaVuSans-61" transform="translate(313.427734 0.015625)"/>
      <use xlink:href="#DejaVuSans-20" transform="translate(374.707031 0.015625)"/>
      <use xlink:href="#DejaVuSans-28" transform="translate(406.494141 0.015625)"/>
      <use xlink:href="#DejaVuSans-Oblique-3bb" transform="translate(445.507812 0.015625)"/>
      <use xlink:href="#DejaVuSans-29" transform="translate(504.6875 0.015625)"/>
     </g>
    </g>
   </g>
   <g id="matplotlib.axis_8">
    <g id="ytick_21">
     <g id="line2d_72">
      <g>
       <use xlink:href="#m1ba6231bd1" x="57.62" y="438.786364" style="stroke: #000000; stroke-width: 0.8"/>
      </g>
     </g>
     <g id="text_41">
      <!-- 0.20 -->
      <g transform="translate(28.354375 442.585582) scale(0.1 -0.1)">
       <use xlink:href="#DejaVuSans-30"/>
       <use xlink:href="#DejaVuSans-2e" x="63.623047"/>
       <use xlink:href="#DejaVuSans-32" x="95.410156"/>
       <use xlink:href="#DejaVuSans-30" x="159.033203"/>
      </g>
     </g>
    </g>
    <g id="ytick_22">
     <g id="line2d_73">
      <g>
       <use xlink:href="#m1ba6231bd1" x="57.62" y="403.285795" style="stroke: #000000; stroke-width: 0.8"/>
      </g>
     </g>
     <g id="text_42">
      <!-- 0.25 -->
      <g transform="translate(28.354375 407.085014) scale(0.1 -0.1)">
       <use xlink:href="#DejaVuSans-30"/>
       <use xlink:href="#DejaVuSans-2e" x="63.623047"/>
       <use xlink:href="#DejaVuSans-32" x="95.410156"/>
       <use xlink:href="#DejaVuSans-35" x="159.033203"/>
      </g>
     </g>
    </g>
    <g id="ytick_23">
     <g id="line2d_74">
      <g>
       <use xlink:href="#m1ba6231bd1" x="57.62" y="367.785227" style="stroke: #000000; stroke-width: 0.8"/>
      </g>
     </g>
     <g id="text_43">
      <!-- 0.30 -->
      <g transform="translate(28.354375 371.584446) scale(0.1 -0.1)">
       <use xlink:href="#DejaVuSans-30"/>
       <use xlink:href="#DejaVuSans-2e" x="63.623047"/>
       <use xlink:href="#DejaVuSans-33" x="95.410156"/>
       <use xlink:href="#DejaVuSans-30" x="159.033203"/>
      </g>
     </g>
    </g>
    <g id="ytick_24">
     <g id="line2d_75">
      <g>
       <use xlink:href="#m1ba6231bd1" x="57.62" y="332.284659" style="stroke: #000000; stroke-width: 0.8"/>
      </g>
     </g>
     <g id="text_44">
      <!-- 0.35 -->
      <g transform="translate(28.354375 336.083878) scale(0.1 -0.1)">
       <use xlink:href="#DejaVuSans-30"/>
       <use xlink:href="#DejaVuSans-2e" x="63.623047"/>
       <use xlink:href="#DejaVuSans-33" x="95.410156"/>
       <use xlink:href="#DejaVuSans-35" x="159.033203"/>
      </g>
     </g>
    </g>
    <g id="ytick_25">
     <g id="line2d_76">
      <g>
       <use xlink:href="#m1ba6231bd1" x="57.62" y="296.784091" style="stroke: #000000; stroke-width: 0.8"/>
      </g>
     </g>
     <g id="text_45">
      <!-- 0.40 -->
      <g transform="translate(28.354375 300.58331) scale(0.1 -0.1)">
       <use xlink:href="#DejaVuSans-30"/>
       <use xlink:href="#DejaVuSans-2e" x="63.623047"/>
       <use xlink:href="#DejaVuSans-34" x="95.410156"/>
       <use xlink:href="#DejaVuSans-30" x="159.033203"/>
      </g>
     </g>
    </g>
    <g id="ytick_26">
     <g id="line2d_77">
      <g>
       <use xlink:href="#m1ba6231bd1" x="57.62" y="261.283523" style="stroke: #000000; stroke-width: 0.8"/>
      </g>
     </g>
     <g id="text_46">
      <!-- 0.45 -->
      <g transform="translate(28.354375 265.082741) scale(0.1 -0.1)">
       <use xlink:href="#DejaVuSans-30"/>
       <use xlink:href="#DejaVuSans-2e" x="63.623047"/>
       <use xlink:href="#DejaVuSans-34" x="95.410156"/>
       <use xlink:href="#DejaVuSans-35" x="159.033203"/>
      </g>
     </g>
    </g>
    <g id="text_47">
     <!-- False Positive Rate -->
     <g transform="translate(21.442812 418.637969) rotate(-90) scale(0.14 -0.14)">
      <use xlink:href="#DejaVuSans-46"/>
      <use xlink:href="#DejaVuSans-61" x="48.394531"/>
      <use xlink:href="#DejaVuSans-6c" x="109.673828"/>
      <use xlink:href="#DejaVuSans-73" x="137.457031"/>
      <use xlink:href="#DejaVuSans-65" x="189.556641"/>
      <use xlink:href="#DejaVuSans-20" x="251.080078"/>
      <use xlink:href="#DejaVuSans-50" x="282.867188"/>
      <use xlink:href="#DejaVuSans-6f" x="339.544922"/>
      <use xlink:href="#DejaVuSans-73" x="400.726562"/>
      <use xlink:href="#DejaVuSans-69" x="452.826172"/>
      <use xlink:href="#DejaVuSans-74" x="480.609375"/>
      <use xlink:href="#DejaVuSans-69" x="519.818359"/>
      <use xlink:href="#DejaVuSans-76" x="547.601562"/>
      <use xlink:href="#DejaVuSans-65" x="606.78125"/>
      <use xlink:href="#DejaVuSans-20" x="668.304688"/>
      <use xlink:href="#DejaVuSans-52" x="700.091797"/>
      <use xlink:href="#DejaVuSans-61" x="767.324219"/>
      <use xlink:href="#DejaVuSans-74" x="828.603516"/>
      <use xlink:href="#DejaVuSans-65" x="867.8125"/>
     </g>
    </g>
   </g>
   <g id="line2d_78">
    <path d="M 72.636667 258.916818 
L 82.647778 263.650227 
L 92.658889 282.583864 
L 102.67 282.583864 
L 112.681111 282.583864 
L 122.692222 282.583864 
L 132.703333 287.317273 
L 142.714444 292.050682 
L 152.725556 296.784091 
L 162.736667 315.717727 
L 172.747778 315.717727 
L 182.758889 325.184545 
L 192.77 334.651364 
L 202.781111 339.384773 
L 212.792222 339.384773 
L 222.803333 339.384773 
L 232.814444 339.384773 
L 242.825556 353.585 
L 252.836667 353.585 
L 262.847778 363.051818 
L 272.858889 386.718864 
L 282.87 391.452273 
L 292.881111 400.919091 
L 302.892222 405.6525 
L 312.903333 405.6525 
L 322.914444 405.6525 
L 332.925556 415.119318 
L 342.936667 415.119318 
L 352.947778 438.786364 
L 362.958889 438.786364 
L 372.97 448.253182 
" clip-path="url(#pfcbfba0f9b)" style="fill: none; stroke: #4878d0; stroke-width: 1.5; stroke-linecap: square"/>
   </g>
   <g id="line2d_79">
    <path d="M 72.636667 301.416655 
L 82.647778 301.416655 
L 92.658889 299.998523 
L 102.67 300.471234 
L 112.681111 301.889366 
L 122.692222 303.307498 
L 132.703333 304.252919 
L 142.714444 304.725629 
L 152.725556 305.671051 
L 162.736667 307.561893 
L 172.747778 308.507314 
L 182.758889 308.980025 
L 192.77 310.398157 
L 202.781111 313.234421 
L 212.792222 314.179842 
L 222.803333 316.070685 
L 232.814444 317.016106 
L 242.825556 319.379659 
L 252.836667 320.32508 
L 262.847778 322.688633 
L 272.858889 325.997608 
L 282.87 330.724714 
L 292.881111 332.615557 
L 302.892222 333.088267 
L 312.903333 334.97911 
L 322.914444 335.45182 
L 332.925556 337.815373 
L 342.936667 340.178927 
L 352.947778 341.597058 
L 362.958889 341.597058 
L 372.97 351.051271 
" clip-path="url(#pfcbfba0f9b)" style="fill: none; stroke: #ee854a; stroke-width: 1.5; stroke-linecap: square"/>
   </g>
   <g id="line2d_80">
    <path d="M 72.636667 324.707689 
L 82.647778 323.790658 
L 92.658889 322.873627 
L 102.67 321.039565 
L 112.681111 320.122534 
L 122.692222 318.517729 
L 132.703333 318.288471 
L 142.714444 316.912925 
L 152.725556 316.454409 
L 162.736667 314.391089 
L 172.747778 312.327769 
L 182.758889 311.410738 
L 192.77 310.264449 
L 202.781111 308.201129 
L 212.792222 306.825582 
L 222.803333 303.845231 
L 232.814444 302.698942 
L 242.825556 301.552653 
L 252.836667 299.947848 
L 262.847778 297.884528 
L 272.858889 296.738239 
L 282.87 295.59195 
L 292.881111 293.070115 
L 302.892222 291.46531 
L 312.903333 289.860506 
L 322.914444 287.33867 
L 332.925556 286.192381 
L 342.936667 285.504608 
L 352.947778 284.816834 
L 362.958889 284.587577 
L 372.97 276.792812 
" clip-path="url(#pfcbfba0f9b)" style="fill: none; stroke: #6acc64; stroke-width: 1.5; stroke-linecap: square"/>
   </g>
   <g id="line2d_81"/>
   <g id="line2d_82"/>
   <g id="line2d_83"/>
   <g id="patch_21">
    <path d="M 57.62 457.72 
L 57.62 249.45 
" style="fill: none; stroke: #000000; stroke-width: 0.8; stroke-linejoin: miter; stroke-linecap: square"/>
   </g>
   <g id="patch_22">
    <path d="M 387.986667 457.72 
L 387.986667 249.45 
" style="fill: none; stroke: #000000; stroke-width: 0.8; stroke-linejoin: miter; stroke-linecap: square"/>
   </g>
   <g id="patch_23">
    <path d="M 57.62 457.72 
L 387.986667 457.72 
" style="fill: none; stroke: #000000; stroke-width: 0.8; stroke-linejoin: miter; stroke-linecap: square"/>
   </g>
   <g id="patch_24">
    <path d="M 57.62 249.45 
L 387.986667 249.45 
" style="fill: none; stroke: #000000; stroke-width: 0.8; stroke-linejoin: miter; stroke-linecap: square"/>
   </g>
   <g id="legend_4">
    <g id="patch_25">
     <path d="M 64.62 452.72 
L 139.843437 452.72 
Q 141.843437 452.72 141.843437 450.72 
L 141.843437 407.685625 
Q 141.843437 405.685625 139.843437 405.685625 
L 64.62 405.685625 
Q 62.62 405.685625 62.62 407.685625 
L 62.62 450.72 
Q 62.62 452.72 64.62 452.72 
z
" style="fill: #ffffff; opacity: 0.8; stroke: #cccccc; stroke-linejoin: miter"/>
    </g>
    <g id="line2d_84">
     <path d="M 66.62 413.784063 
L 76.62 413.784063 
L 86.62 413.784063 
" style="fill: none; stroke: #4878d0; stroke-width: 1.5; stroke-linecap: square"/>
    </g>
    <g id="text_48">
     <!-- [0-30) -->
     <g transform="translate(94.62 417.284063) scale(0.1 -0.1)">
      <use xlink:href="#DejaVuSans-5b"/>
      <use xlink:href="#DejaVuSans-30" x="39.013672"/>
      <use xlink:href="#DejaVuSans-2d" x="102.636719"/>
      <use xlink:href="#DejaVuSans-33" x="138.720703"/>
      <use xlink:href="#DejaVuSans-30" x="202.34375"/>
      <use xlink:href="#DejaVuSans-29" x="265.966797"/>
     </g>
    </g>
    <g id="line2d_85">
     <path d="M 66.62 428.462188 
L 76.62 428.462188 
L 86.62 428.462188 
" style="fill: none; stroke: #ee854a; stroke-width: 1.5; stroke-linecap: square"/>
    </g>
    <g id="text_49">
     <!-- [30-60) -->
     <g transform="translate(94.62 431.962188) scale(0.1 -0.1)">
      <use xlink:href="#DejaVuSans-5b"/>
      <use xlink:href="#DejaVuSans-33" x="39.013672"/>
      <use xlink:href="#DejaVuSans-30" x="102.636719"/>
      <use xlink:href="#DejaVuSans-2d" x="166.259766"/>
      <use xlink:href="#DejaVuSans-36" x="202.34375"/>
      <use xlink:href="#DejaVuSans-30" x="265.966797"/>
      <use xlink:href="#DejaVuSans-29" x="329.589844"/>
     </g>
    </g>
    <g id="line2d_86">
     <path d="M 66.62 443.140313 
L 76.62 443.140313 
L 86.62 443.140313 
" style="fill: none; stroke: #6acc64; stroke-width: 1.5; stroke-linecap: square"/>
    </g>
    <g id="text_50">
     <!-- [60-100) -->
     <g transform="translate(94.62 446.640313) scale(0.1 -0.1)">
      <use xlink:href="#DejaVuSans-5b"/>
      <use xlink:href="#DejaVuSans-36" x="39.013672"/>
      <use xlink:href="#DejaVuSans-30" x="102.636719"/>
      <use xlink:href="#DejaVuSans-2d" x="166.259766"/>
      <use xlink:href="#DejaVuSans-31" x="202.34375"/>
      <use xlink:href="#DejaVuSans-30" x="265.966797"/>
      <use xlink:href="#DejaVuSans-30" x="329.589844"/>
      <use xlink:href="#DejaVuSans-29" x="393.212891"/>
     </g>
    </g>
   </g>
  </g>
  <g id="axes_5">
   <g id="patch_26">
    <path d="M 434.226667 457.72 
L 764.593333 457.72 
L 764.593333 249.45 
L 434.226667 249.45 
z
" style="fill: #ffffff"/>
   </g>
   <g id="PolyCollection_13"/>
   <g id="PolyCollection_14"/>
   <g id="PolyCollection_15"/>
   <g id="PolyCollection_16"/>
   <g id="matplotlib.axis_9">
    <g id="xtick_25">
     <g id="line2d_87">
      <g>
       <use xlink:href="#m6007f1235e" x="449.243333" y="457.72" style="stroke: #000000; stroke-width: 0.8"/>
      </g>
     </g>
     <g id="text_51">
      <!-- 0.0 -->
      <g transform="translate(441.291771 472.318438) scale(0.1 -0.1)">
       <use xlink:href="#DejaVuSans-30"/>
       <use xlink:href="#DejaVuSans-2e" x="63.623047"/>
       <use xlink:href="#DejaVuSans-30" x="95.410156"/>
      </g>
     </g>
    </g>
    <g id="xtick_26">
     <g id="line2d_88">
      <g>
       <use xlink:href="#m6007f1235e" x="509.31" y="457.72" style="stroke: #000000; stroke-width: 0.8"/>
      </g>
     </g>
     <g id="text_52">
      <!-- 0.2 -->
      <g transform="translate(501.358438 472.318438) scale(0.1 -0.1)">
       <use xlink:href="#DejaVuSans-30"/>
       <use xlink:href="#DejaVuSans-2e" x="63.623047"/>
       <use xlink:href="#DejaVuSans-32" x="95.410156"/>
      </g>
     </g>
    </g>
    <g id="xtick_27">
     <g id="line2d_89">
      <g>
       <use xlink:href="#m6007f1235e" x="569.376667" y="457.72" style="stroke: #000000; stroke-width: 0.8"/>
      </g>
     </g>
     <g id="text_53">
      <!-- 0.4 -->
      <g transform="translate(561.425104 472.318438) scale(0.1 -0.1)">
       <use xlink:href="#DejaVuSans-30"/>
       <use xlink:href="#DejaVuSans-2e" x="63.623047"/>
       <use xlink:href="#DejaVuSans-34" x="95.410156"/>
      </g>
     </g>
    </g>
    <g id="xtick_28">
     <g id="line2d_90">
      <g>
       <use xlink:href="#m6007f1235e" x="629.443333" y="457.72" style="stroke: #000000; stroke-width: 0.8"/>
      </g>
     </g>
     <g id="text_54">
      <!-- 0.6 -->
      <g transform="translate(621.491771 472.318438) scale(0.1 -0.1)">
       <use xlink:href="#DejaVuSans-30"/>
       <use xlink:href="#DejaVuSans-2e" x="63.623047"/>
       <use xlink:href="#DejaVuSans-36" x="95.410156"/>
      </g>
     </g>
    </g>
    <g id="xtick_29">
     <g id="line2d_91">
      <g>
       <use xlink:href="#m6007f1235e" x="689.51" y="457.72" style="stroke: #000000; stroke-width: 0.8"/>
      </g>
     </g>
     <g id="text_55">
      <!-- 0.8 -->
      <g transform="translate(681.558438 472.318438) scale(0.1 -0.1)">
       <use xlink:href="#DejaVuSans-30"/>
       <use xlink:href="#DejaVuSans-2e" x="63.623047"/>
       <use xlink:href="#DejaVuSans-38" x="95.410156"/>
      </g>
     </g>
    </g>
    <g id="xtick_30">
     <g id="line2d_92">
      <g>
       <use xlink:href="#m6007f1235e" x="749.576667" y="457.72" style="stroke: #000000; stroke-width: 0.8"/>
      </g>
     </g>
     <g id="text_56">
      <!-- 1.0 -->
      <g transform="translate(741.625104 472.318438) scale(0.1 -0.1)">
       <use xlink:href="#DejaVuSans-31"/>
       <use xlink:href="#DejaVuSans-2e" x="63.623047"/>
       <use xlink:href="#DejaVuSans-30" x="95.410156"/>
      </g>
     </g>
    </g>
    <g id="text_57">
     <!-- lambda ($\lambda$) -->
     <g transform="translate(564.05 488.276094) scale(0.13 -0.13)">
      <use xlink:href="#DejaVuSans-6c" transform="translate(0 0.015625)"/>
      <use xlink:href="#DejaVuSans-61" transform="translate(27.783203 0.015625)"/>
      <use xlink:href="#DejaVuSans-6d" transform="translate(89.0625 0.015625)"/>
      <use xlink:href="#DejaVuSans-62" transform="translate(186.474609 0.015625)"/>
      <use xlink:href="#DejaVuSans-64" transform="translate(249.951172 0.015625)"/>
      <use xlink:href="#DejaVuSans-61" transform="translate(313.427734 0.015625)"/>
      <use xlink:href="#DejaVuSans-20" transform="translate(374.707031 0.015625)"/>
      <use xlink:href="#DejaVuSans-28" transform="translate(406.494141 0.015625)"/>
      <use xlink:href="#DejaVuSans-Oblique-3bb" transform="translate(445.507812 0.015625)"/>
      <use xlink:href="#DejaVuSans-29" transform="translate(504.6875 0.015625)"/>
     </g>
    </g>
   </g>
   <g id="matplotlib.axis_10">
    <g id="ytick_27">
     <g id="line2d_93">
      <g>
       <use xlink:href="#m1ba6231bd1" x="434.226667" y="423.521119" style="stroke: #000000; stroke-width: 0.8"/>
      </g>
     </g>
     <g id="text_58">
      <!-- 0.36 -->
      <g transform="translate(404.961042 427.320338) scale(0.1 -0.1)">
       <use xlink:href="#DejaVuSans-30"/>
       <use xlink:href="#DejaVuSans-2e" x="63.623047"/>
       <use xlink:href="#DejaVuSans-33" x="95.410156"/>
       <use xlink:href="#DejaVuSans-36" x="159.033203"/>
      </g>
     </g>
    </g>
    <g id="ytick_28">
     <g id="line2d_94">
      <g>
       <use xlink:href="#m1ba6231bd1" x="434.226667" y="388.700979" style="stroke: #000000; stroke-width: 0.8"/>
      </g>
     </g>
     <g id="text_59">
      <!-- 0.38 -->
      <g transform="translate(404.961042 392.500197) scale(0.1 -0.1)">
       <use xlink:href="#DejaVuSans-30"/>
       <use xlink:href="#DejaVuSans-2e" x="63.623047"/>
       <use xlink:href="#DejaVuSans-33" x="95.410156"/>
       <use xlink:href="#DejaVuSans-38" x="159.033203"/>
      </g>
     </g>
    </g>
    <g id="ytick_29">
     <g id="line2d_95">
      <g>
       <use xlink:href="#m1ba6231bd1" x="434.226667" y="353.880838" style="stroke: #000000; stroke-width: 0.8"/>
      </g>
     </g>
     <g id="text_60">
      <!-- 0.40 -->
      <g transform="translate(404.961042 357.680057) scale(0.1 -0.1)">
       <use xlink:href="#DejaVuSans-30"/>
       <use xlink:href="#DejaVuSans-2e" x="63.623047"/>
       <use xlink:href="#DejaVuSans-34" x="95.410156"/>
       <use xlink:href="#DejaVuSans-30" x="159.033203"/>
      </g>
     </g>
    </g>
    <g id="ytick_30">
     <g id="line2d_96">
      <g>
       <use xlink:href="#m1ba6231bd1" x="434.226667" y="319.060697" style="stroke: #000000; stroke-width: 0.8"/>
      </g>
     </g>
     <g id="text_61">
      <!-- 0.42 -->
      <g transform="translate(404.961042 322.859916) scale(0.1 -0.1)">
       <use xlink:href="#DejaVuSans-30"/>
       <use xlink:href="#DejaVuSans-2e" x="63.623047"/>
       <use xlink:href="#DejaVuSans-34" x="95.410156"/>
       <use xlink:href="#DejaVuSans-32" x="159.033203"/>
      </g>
     </g>
    </g>
    <g id="ytick_31">
     <g id="line2d_97">
      <g>
       <use xlink:href="#m1ba6231bd1" x="434.226667" y="284.240557" style="stroke: #000000; stroke-width: 0.8"/>
      </g>
     </g>
     <g id="text_62">
      <!-- 0.44 -->
      <g transform="translate(404.961042 288.039776) scale(0.1 -0.1)">
       <use xlink:href="#DejaVuSans-30"/>
       <use xlink:href="#DejaVuSans-2e" x="63.623047"/>
       <use xlink:href="#DejaVuSans-34" x="95.410156"/>
       <use xlink:href="#DejaVuSans-34" x="159.033203"/>
      </g>
     </g>
    </g>
   </g>
   <g id="line2d_98">
    <path d="M 449.243333 387.661572 
L 459.254444 387.661572 
L 469.265556 385.805487 
L 479.276667 385.805487 
L 489.287778 387.661572 
L 499.298889 385.805487 
L 509.31 383.949403 
L 519.321111 385.805487 
L 529.332222 385.805487 
L 539.343333 383.949403 
L 549.354444 382.093319 
L 559.365556 382.093319 
L 569.376667 383.949403 
L 579.387778 382.093319 
L 589.398889 382.093319 
L 599.41 378.38115 
L 609.421111 380.237234 
L 619.432222 383.949403 
L 629.443333 382.093319 
L 639.454444 385.805487 
L 649.465556 391.37374 
L 659.476667 396.941993 
L 669.487778 396.941993 
L 679.498889 395.085909 
L 689.51 393.229824 
L 699.521111 391.37374 
L 709.532222 391.37374 
L 719.543333 395.085909 
L 729.554444 400.654161 
L 739.565556 400.654161 
L 749.576667 400.654161 
" clip-path="url(#p00e2bf5cd7)" style="fill: none; stroke: #d65f5f; stroke-width: 1.5; stroke-linecap: square"/>
   </g>
   <g id="line2d_99">
    <path d="M 449.243333 258.916818 
L 459.254444 258.916818 
L 469.265556 258.916818 
L 479.276667 258.916818 
L 489.287778 258.916818 
L 499.298889 258.916818 
L 509.31 258.916818 
L 519.321111 258.916818 
L 529.332222 258.916818 
L 539.343333 258.916818 
L 549.354444 258.916818 
L 559.365556 298.48516 
L 569.376667 298.48516 
L 579.387778 298.48516 
L 589.398889 298.48516 
L 599.41 298.48516 
L 609.421111 298.48516 
L 619.432222 298.48516 
L 629.443333 298.48516 
L 639.454444 298.48516 
L 649.465556 298.48516 
L 659.476667 298.48516 
L 669.487778 298.48516 
L 679.498889 298.48516 
L 689.51 298.48516 
L 699.521111 298.48516 
L 709.532222 298.48516 
L 719.543333 298.48516 
L 729.554444 298.48516 
L 739.565556 298.48516 
L 749.576667 298.48516 
" clip-path="url(#p00e2bf5cd7)" style="fill: none; stroke: #956cb4; stroke-width: 1.5; stroke-linecap: square"/>
   </g>
   <g id="line2d_100">
    <path d="M 449.243333 406.206186 
L 459.254444 404.779131 
L 469.265556 403.827761 
L 479.276667 400.497966 
L 489.287778 399.546596 
L 499.298889 397.643856 
L 509.31 399.070911 
L 519.321111 396.692486 
L 529.332222 396.692486 
L 539.343333 396.692486 
L 549.354444 393.362692 
L 559.365556 392.411322 
L 569.376667 391.935637 
L 579.387778 390.984267 
L 589.398889 389.081527 
L 599.41 385.276047 
L 609.421111 383.373307 
L 619.432222 383.848992 
L 629.443333 381.946252 
L 639.454444 379.567827 
L 649.465556 381.470567 
L 659.476667 382.897622 
L 669.487778 380.519197 
L 679.498889 378.140772 
L 689.51 377.189402 
L 699.521111 372.908237 
L 709.532222 373.859607 
L 719.543333 373.859607 
L 729.554444 374.810977 
L 739.565556 374.335292 
L 749.576667 368.151388 
" clip-path="url(#p00e2bf5cd7)" style="fill: none; stroke: #8c613c; stroke-width: 1.5; stroke-linecap: square"/>
   </g>
   <g id="line2d_101">
    <path d="M 449.243333 318.084432 
L 459.254444 318.084432 
L 469.265556 318.084432 
L 479.276667 318.084432 
L 489.287778 318.084432 
L 499.298889 334.355526 
L 509.31 334.355526 
L 519.321111 334.355526 
L 529.332222 350.626619 
L 539.343333 350.626619 
L 549.354444 366.897713 
L 559.365556 366.897713 
L 569.376667 366.897713 
L 579.387778 383.168807 
L 589.398889 383.168807 
L 599.41 399.439901 
L 609.421111 399.439901 
L 619.432222 399.439901 
L 629.443333 399.439901 
L 639.454444 415.710994 
L 649.465556 415.710994 
L 659.476667 415.710994 
L 669.487778 415.710994 
L 679.498889 431.982088 
L 689.51 431.982088 
L 699.521111 431.982088 
L 709.532222 431.982088 
L 719.543333 431.982088 
L 729.554444 431.982088 
L 739.565556 431.982088 
L 749.576667 448.253182 
" clip-path="url(#p00e2bf5cd7)" style="fill: none; stroke: #dc7ec0; stroke-width: 1.5; stroke-linecap: square"/>
   </g>
   <g id="line2d_102"/>
   <g id="line2d_103"/>
   <g id="line2d_104"/>
   <g id="line2d_105"/>
   <g id="patch_27">
    <path d="M 434.226667 457.72 
L 434.226667 249.45 
" style="fill: none; stroke: #000000; stroke-width: 0.8; stroke-linejoin: miter; stroke-linecap: square"/>
   </g>
   <g id="patch_28">
    <path d="M 764.593333 457.72 
L 764.593333 249.45 
" style="fill: none; stroke: #000000; stroke-width: 0.8; stroke-linejoin: miter; stroke-linecap: square"/>
   </g>
   <g id="patch_29">
    <path d="M 434.226667 457.72 
L 764.593333 457.72 
" style="fill: none; stroke: #000000; stroke-width: 0.8; stroke-linejoin: miter; stroke-linecap: square"/>
   </g>
   <g id="patch_30">
    <path d="M 434.226667 249.45 
L 764.593333 249.45 
" style="fill: none; stroke: #000000; stroke-width: 0.8; stroke-linejoin: miter; stroke-linecap: square"/>
   </g>
   <g id="legend_5">
    <g id="patch_31">
     <path d="M 643.154271 316.1625 
L 757.593333 316.1625 
Q 759.593333 316.1625 759.593333 314.1625 
L 759.593333 256.45 
Q 759.593333 254.45 757.593333 254.45 
L 643.154271 254.45 
Q 641.154271 254.45 641.154271 256.45 
L 641.154271 314.1625 
Q 641.154271 316.1625 643.154271 316.1625 
z
" style="fill: #ffffff; opacity: 0.8; stroke: #cccccc; stroke-linejoin: miter"/>
    </g>
    <g id="line2d_106">
     <path d="M 645.154271 262.548438 
L 655.154271 262.548438 
L 665.154271 262.548438 
" style="fill: none; stroke: #d65f5f; stroke-width: 1.5; stroke-linecap: square"/>
    </g>
    <g id="text_63">
     <!-- AfricanAmerican -->
     <g transform="translate(673.154271 266.048438) scale(0.1 -0.1)">
      <use xlink:href="#DejaVuSans-41"/>
      <use xlink:href="#DejaVuSans-66" x="64.783203"/>
      <use xlink:href="#DejaVuSans-72" x="99.988281"/>
      <use xlink:href="#DejaVuSans-69" x="141.101562"/>
      <use xlink:href="#DejaVuSans-63" x="168.884766"/>
      <use xlink:href="#DejaVuSans-61" x="223.865234"/>
      <use xlink:href="#DejaVuSans-6e" x="285.144531"/>
      <use xlink:href="#DejaVuSans-41" x="348.523438"/>
      <use xlink:href="#DejaVuSans-6d" x="416.931641"/>
      <use xlink:href="#DejaVuSans-65" x="514.34375"/>
      <use xlink:href="#DejaVuSans-72" x="575.867188"/>
      <use xlink:href="#DejaVuSans-69" x="616.980469"/>
      <use xlink:href="#DejaVuSans-63" x="644.763672"/>
      <use xlink:href="#DejaVuSans-61" x="699.744141"/>
      <use xlink:href="#DejaVuSans-6e" x="761.023438"/>
     </g>
    </g>
    <g id="line2d_107">
     <path d="M 645.154271 277.226562 
L 655.154271 277.226562 
L 665.154271 277.226562 
" style="fill: none; stroke: #956cb4; stroke-width: 1.5; stroke-linecap: square"/>
    </g>
    <g id="text_64">
     <!-- Asian -->
     <g transform="translate(673.154271 280.726562) scale(0.1 -0.1)">
      <use xlink:href="#DejaVuSans-41"/>
      <use xlink:href="#DejaVuSans-73" x="68.408203"/>
      <use xlink:href="#DejaVuSans-69" x="120.507812"/>
      <use xlink:href="#DejaVuSans-61" x="148.291016"/>
      <use xlink:href="#DejaVuSans-6e" x="209.570312"/>
     </g>
    </g>
    <g id="line2d_108">
     <path d="M 645.154271 291.904688 
L 655.154271 291.904688 
L 665.154271 291.904688 
" style="fill: none; stroke: #8c613c; stroke-width: 1.5; stroke-linecap: square"/>
    </g>
    <g id="text_65">
     <!-- Caucasian -->
     <g transform="translate(673.154271 295.404688) scale(0.1 -0.1)">
      <use xlink:href="#DejaVuSans-43"/>
      <use xlink:href="#DejaVuSans-61" x="69.824219"/>
      <use xlink:href="#DejaVuSans-75" x="131.103516"/>
      <use xlink:href="#DejaVuSans-63" x="194.482422"/>
      <use xlink:href="#DejaVuSans-61" x="249.462891"/>
      <use xlink:href="#DejaVuSans-73" x="310.742188"/>
      <use xlink:href="#DejaVuSans-69" x="362.841797"/>
      <use xlink:href="#DejaVuSans-61" x="390.625"/>
      <use xlink:href="#DejaVuSans-6e" x="451.904297"/>
     </g>
    </g>
    <g id="line2d_109">
     <path d="M 645.154271 306.582813 
L 655.154271 306.582813 
L 665.154271 306.582813 
" style="fill: none; stroke: #dc7ec0; stroke-width: 1.5; stroke-linecap: square"/>
    </g>
    <g id="text_66">
     <!-- Hispanic -->
     <g transform="translate(673.154271 310.082813) scale(0.1 -0.1)">
      <use xlink:href="#DejaVuSans-48"/>
      <use xlink:href="#DejaVuSans-69" x="75.195312"/>
      <use xlink:href="#DejaVuSans-73" x="102.978516"/>
      <use xlink:href="#DejaVuSans-70" x="155.078125"/>
      <use xlink:href="#DejaVuSans-61" x="218.554688"/>
      <use xlink:href="#DejaVuSans-6e" x="279.833984"/>
      <use xlink:href="#DejaVuSans-69" x="343.212891"/>
      <use xlink:href="#DejaVuSans-63" x="370.996094"/>
     </g>
    </g>
   </g>
  </g>
  <g id="axes_6">
   <g id="patch_32">
    <path d="M 810.833333 457.72 
L 1141.2 457.72 
L 1141.2 249.45 
L 810.833333 249.45 
z
" style="fill: #ffffff"/>
   </g>
   <g id="PolyCollection_17"/>
   <g id="PolyCollection_18"/>
   <g id="matplotlib.axis_11">
    <g id="xtick_31">
     <g id="line2d_110">
      <g>
       <use xlink:href="#m6007f1235e" x="825.85" y="457.72" style="stroke: #000000; stroke-width: 0.8"/>
      </g>
     </g>
     <g id="text_67">
      <!-- 0.0 -->
      <g transform="translate(817.898438 472.318438) scale(0.1 -0.1)">
       <use xlink:href="#DejaVuSans-30"/>
       <use xlink:href="#DejaVuSans-2e" x="63.623047"/>
       <use xlink:href="#DejaVuSans-30" x="95.410156"/>
      </g>
     </g>
    </g>
    <g id="xtick_32">
     <g id="line2d_111">
      <g>
       <use xlink:href="#m6007f1235e" x="885.916667" y="457.72" style="stroke: #000000; stroke-width: 0.8"/>
      </g>
     </g>
     <g id="text_68">
      <!-- 0.2 -->
      <g transform="translate(877.965104 472.318438) scale(0.1 -0.1)">
       <use xlink:href="#DejaVuSans-30"/>
       <use xlink:href="#DejaVuSans-2e" x="63.623047"/>
       <use xlink:href="#DejaVuSans-32" x="95.410156"/>
      </g>
     </g>
    </g>
    <g id="xtick_33">
     <g id="line2d_112">
      <g>
       <use xlink:href="#m6007f1235e" x="945.983333" y="457.72" style="stroke: #000000; stroke-width: 0.8"/>
      </g>
     </g>
     <g id="text_69">
      <!-- 0.4 -->
      <g transform="translate(938.031771 472.318438) scale(0.1 -0.1)">
       <use xlink:href="#DejaVuSans-30"/>
       <use xlink:href="#DejaVuSans-2e" x="63.623047"/>
       <use xlink:href="#DejaVuSans-34" x="95.410156"/>
      </g>
     </g>
    </g>
    <g id="xtick_34">
     <g id="line2d_113">
      <g>
       <use xlink:href="#m6007f1235e" x="1006.05" y="457.72" style="stroke: #000000; stroke-width: 0.8"/>
      </g>
     </g>
     <g id="text_70">
      <!-- 0.6 -->
      <g transform="translate(998.098438 472.318438) scale(0.1 -0.1)">
       <use xlink:href="#DejaVuSans-30"/>
       <use xlink:href="#DejaVuSans-2e" x="63.623047"/>
       <use xlink:href="#DejaVuSans-36" x="95.410156"/>
      </g>
     </g>
    </g>
    <g id="xtick_35">
     <g id="line2d_114">
      <g>
       <use xlink:href="#m6007f1235e" x="1066.116667" y="457.72" style="stroke: #000000; stroke-width: 0.8"/>
      </g>
     </g>
     <g id="text_71">
      <!-- 0.8 -->
      <g transform="translate(1058.165104 472.318438) scale(0.1 -0.1)">
       <use xlink:href="#DejaVuSans-30"/>
       <use xlink:href="#DejaVuSans-2e" x="63.623047"/>
       <use xlink:href="#DejaVuSans-38" x="95.410156"/>
      </g>
     </g>
    </g>
    <g id="xtick_36">
     <g id="line2d_115">
      <g>
       <use xlink:href="#m6007f1235e" x="1126.183333" y="457.72" style="stroke: #000000; stroke-width: 0.8"/>
      </g>
     </g>
     <g id="text_72">
      <!-- 1.0 -->
      <g transform="translate(1118.231771 472.318438) scale(0.1 -0.1)">
       <use xlink:href="#DejaVuSans-31"/>
       <use xlink:href="#DejaVuSans-2e" x="63.623047"/>
       <use xlink:href="#DejaVuSans-30" x="95.410156"/>
      </g>
     </g>
    </g>
    <g id="text_73">
     <!-- lambda ($\lambda$) -->
     <g transform="translate(940.656667 488.276094) scale(0.13 -0.13)">
      <use xlink:href="#DejaVuSans-6c" transform="translate(0 0.015625)"/>
      <use xlink:href="#DejaVuSans-61" transform="translate(27.783203 0.015625)"/>
      <use xlink:href="#DejaVuSans-6d" transform="translate(89.0625 0.015625)"/>
      <use xlink:href="#DejaVuSans-62" transform="translate(186.474609 0.015625)"/>
      <use xlink:href="#DejaVuSans-64" transform="translate(249.951172 0.015625)"/>
      <use xlink:href="#DejaVuSans-61" transform="translate(313.427734 0.015625)"/>
      <use xlink:href="#DejaVuSans-20" transform="translate(374.707031 0.015625)"/>
      <use xlink:href="#DejaVuSans-28" transform="translate(406.494141 0.015625)"/>
      <use xlink:href="#DejaVuSans-Oblique-3bb" transform="translate(445.507812 0.015625)"/>
      <use xlink:href="#DejaVuSans-29" transform="translate(504.6875 0.015625)"/>
     </g>
    </g>
   </g>
   <g id="matplotlib.axis_12">
    <g id="ytick_32">
     <g id="line2d_116">
      <g>
       <use xlink:href="#m1ba6231bd1" x="810.833333" y="427.206706" style="stroke: #000000; stroke-width: 0.8"/>
      </g>
     </g>
     <g id="text_74">
      <!-- 0.36 -->
      <g transform="translate(781.567708 431.005925) scale(0.1 -0.1)">
       <use xlink:href="#DejaVuSans-30"/>
       <use xlink:href="#DejaVuSans-2e" x="63.623047"/>
       <use xlink:href="#DejaVuSans-33" x="95.410156"/>
       <use xlink:href="#DejaVuSans-36" x="159.033203"/>
      </g>
     </g>
    </g>
    <g id="ytick_33">
     <g id="line2d_117">
      <g>
       <use xlink:href="#m1ba6231bd1" x="810.833333" y="381.96045" style="stroke: #000000; stroke-width: 0.8"/>
      </g>
     </g>
     <g id="text_75">
      <!-- 0.37 -->
      <g transform="translate(781.567708 385.759669) scale(0.1 -0.1)">
       <defs>
        <path id="DejaVuSans-37" d="M 525 4666 
L 3525 4666 
L 3525 4397 
L 1831 0 
L 1172 0 
L 2766 4134 
L 525 4134 
L 525 4666 
z
" transform="scale(0.015625)"/>
       </defs>
       <use xlink:href="#DejaVuSans-30"/>
       <use xlink:href="#DejaVuSans-2e" x="63.623047"/>
       <use xlink:href="#DejaVuSans-33" x="95.410156"/>
       <use xlink:href="#DejaVuSans-37" x="159.033203"/>
      </g>
     </g>
    </g>
    <g id="ytick_34">
     <g id="line2d_118">
      <g>
       <use xlink:href="#m1ba6231bd1" x="810.833333" y="336.714195" style="stroke: #000000; stroke-width: 0.8"/>
      </g>
     </g>
     <g id="text_76">
      <!-- 0.38 -->
      <g transform="translate(781.567708 340.513413) scale(0.1 -0.1)">
       <use xlink:href="#DejaVuSans-30"/>
       <use xlink:href="#DejaVuSans-2e" x="63.623047"/>
       <use xlink:href="#DejaVuSans-33" x="95.410156"/>
       <use xlink:href="#DejaVuSans-38" x="159.033203"/>
      </g>
     </g>
    </g>
    <g id="ytick_35">
     <g id="line2d_119">
      <g>
       <use xlink:href="#m1ba6231bd1" x="810.833333" y="291.467939" style="stroke: #000000; stroke-width: 0.8"/>
      </g>
     </g>
     <g id="text_77">
      <!-- 0.39 -->
      <g transform="translate(781.567708 295.267157) scale(0.1 -0.1)">
       <defs>
        <path id="DejaVuSans-39" d="M 703 97 
L 703 672 
Q 941 559 1184 500 
Q 1428 441 1663 441 
Q 2288 441 2617 861 
Q 2947 1281 2994 2138 
Q 2813 1869 2534 1725 
Q 2256 1581 1919 1581 
Q 1219 1581 811 2004 
Q 403 2428 403 3163 
Q 403 3881 828 4315 
Q 1253 4750 1959 4750 
Q 2769 4750 3195 4129 
Q 3622 3509 3622 2328 
Q 3622 1225 3098 567 
Q 2575 -91 1691 -91 
Q 1453 -91 1209 -44 
Q 966 3 703 97 
z
M 1959 2075 
Q 2384 2075 2632 2365 
Q 2881 2656 2881 3163 
Q 2881 3666 2632 3958 
Q 2384 4250 1959 4250 
Q 1534 4250 1286 3958 
Q 1038 3666 1038 3163 
Q 1038 2656 1286 2365 
Q 1534 2075 1959 2075 
z
" transform="scale(0.015625)"/>
       </defs>
       <use xlink:href="#DejaVuSans-30"/>
       <use xlink:href="#DejaVuSans-2e" x="63.623047"/>
       <use xlink:href="#DejaVuSans-33" x="95.410156"/>
       <use xlink:href="#DejaVuSans-39" x="159.033203"/>
      </g>
     </g>
    </g>
   </g>
   <g id="line2d_120">
    <path d="M 825.85 448.253182 
L 835.861111 444.586548 
L 845.872222 437.253282 
L 855.883333 435.419965 
L 865.894444 435.419965 
L 875.905556 426.253382 
L 885.916667 428.086698 
L 895.927778 422.586748 
L 905.938889 418.920115 
L 915.95 422.586748 
L 925.961111 407.920215 
L 935.972222 404.253581 
L 945.983333 406.086898 
L 955.994444 395.086998 
L 966.005556 391.420364 
L 976.016667 378.587148 
L 986.027778 373.087198 
L 996.038889 373.087198 
L 1006.05 367.587248 
L 1016.061111 360.253981 
L 1026.072222 367.587248 
L 1036.083333 371.253881 
L 1046.094444 362.087297 
L 1056.105556 356.587347 
L 1066.116667 351.087397 
L 1076.127778 343.754131 
L 1086.138889 340.087497 
L 1096.15 338.254181 
L 1106.161111 341.920814 
L 1116.172222 341.920814 
L 1126.183333 332.75423 
" clip-path="url(#pae16fb3708)" style="fill: none; stroke: #797979; stroke-width: 1.5; stroke-linecap: square"/>
   </g>
   <g id="line2d_121">
    <path d="M 825.85 272.802122 
L 835.861111 270.818508 
L 845.872222 272.802122 
L 855.883333 260.900433 
L 865.894444 258.916818 
L 875.905556 260.900433 
L 885.916667 262.884048 
L 895.927778 260.900433 
L 905.938889 266.851278 
L 915.95 260.900433 
L 925.961111 262.884048 
L 935.972222 264.867663 
L 945.983333 262.884048 
L 955.994444 270.818508 
L 966.005556 266.851278 
L 976.016667 262.884048 
L 986.027778 262.884048 
L 996.038889 268.834893 
L 1006.05 264.867663 
L 1016.061111 268.834893 
L 1026.072222 274.785737 
L 1036.083333 282.720197 
L 1046.094444 282.720197 
L 1056.105556 278.752967 
L 1066.116667 278.752967 
L 1076.127778 266.851278 
L 1086.138889 274.785737 
L 1096.15 280.736582 
L 1106.161111 286.687427 
L 1116.172222 284.703812 
L 1126.183333 270.818508 
" clip-path="url(#pae16fb3708)" style="fill: none; stroke: #d5bb67; stroke-width: 1.5; stroke-linecap: square"/>
   </g>
   <g id="line2d_122"/>
   <g id="line2d_123"/>
   <g id="patch_33">
    <path d="M 810.833333 457.72 
L 810.833333 249.45 
" style="fill: none; stroke: #000000; stroke-width: 0.8; stroke-linejoin: miter; stroke-linecap: square"/>
   </g>
   <g id="patch_34">
    <path d="M 1141.2 457.72 
L 1141.2 249.45 
" style="fill: none; stroke: #000000; stroke-width: 0.8; stroke-linejoin: miter; stroke-linecap: square"/>
   </g>
   <g id="patch_35">
    <path d="M 810.833333 457.72 
L 1141.2 457.72 
" style="fill: none; stroke: #000000; stroke-width: 0.8; stroke-linejoin: miter; stroke-linecap: square"/>
   </g>
   <g id="patch_36">
    <path d="M 810.833333 249.45 
L 1141.2 249.45 
" style="fill: none; stroke: #000000; stroke-width: 0.8; stroke-linejoin: miter; stroke-linecap: square"/>
   </g>
   <g id="legend_6">
    <g id="patch_37">
     <path d="M 1066.045313 452.72 
L 1134.2 452.72 
Q 1136.2 452.72 1136.2 450.72 
L 1136.2 422.36375 
Q 1136.2 420.36375 1134.2 420.36375 
L 1066.045313 420.36375 
Q 1064.045313 420.36375 1064.045313 422.36375 
L 1064.045313 450.72 
Q 1064.045313 452.72 1066.045313 452.72 
z
" style="fill: #ffffff; opacity: 0.8; stroke: #cccccc; stroke-linejoin: miter"/>
    </g>
    <g id="line2d_124">
     <path d="M 1068.045313 428.462188 
L 1078.045313 428.462188 
L 1088.045313 428.462188 
" style="fill: none; stroke: #797979; stroke-width: 1.5; stroke-linecap: square"/>
    </g>
    <g id="text_78">
     <!-- Female -->
     <g transform="translate(1096.045313 431.962188) scale(0.1 -0.1)">
      <use xlink:href="#DejaVuSans-46"/>
      <use xlink:href="#DejaVuSans-65" x="52.019531"/>
      <use xlink:href="#DejaVuSans-6d" x="113.542969"/>
      <use xlink:href="#DejaVuSans-61" x="210.955078"/>
      <use xlink:href="#DejaVuSans-6c" x="272.234375"/>
      <use xlink:href="#DejaVuSans-65" x="300.017578"/>
     </g>
    </g>
    <g id="line2d_125">
     <path d="M 1068.045313 443.140313 
L 1078.045313 443.140313 
L 1088.045313 443.140313 
" style="fill: none; stroke: #d5bb67; stroke-width: 1.5; stroke-linecap: square"/>
    </g>
    <g id="text_79">
     <!-- Male -->
     <g transform="translate(1096.045313 446.640313) scale(0.1 -0.1)">
      <use xlink:href="#DejaVuSans-4d"/>
      <use xlink:href="#DejaVuSans-61" x="86.279297"/>
      <use xlink:href="#DejaVuSans-6c" x="147.558594"/>
      <use xlink:href="#DejaVuSans-65" x="175.341797"/>
     </g>
    </g>
   </g>
  </g>
 </g>
 <defs>
  <clipPath id="pa1e3c7581e">
   <rect x="57.62" y="26.88" width="330.366667" height="208.27"/>
  </clipPath>
  <clipPath id="p6505dbedec">
   <rect x="434.226667" y="26.88" width="330.366667" height="208.27"/>
  </clipPath>
  <clipPath id="p462256eb63">
   <rect x="810.833333" y="26.88" width="330.366667" height="208.27"/>
  </clipPath>
  <clipPath id="pfcbfba0f9b">
   <rect x="57.62" y="249.45" width="330.366667" height="208.27"/>
  </clipPath>
  <clipPath id="p00e2bf5cd7">
   <rect x="434.226667" y="249.45" width="330.366667" height="208.27"/>
  </clipPath>
  <clipPath id="pae16fb3708">
   <rect x="810.833333" y="249.45" width="330.366667" height="208.27"/>
  </clipPath>
 </defs>
</svg>
