<?xml version="1.0" encoding="utf-8" standalone="no"?>
<!DOCTYPE svg PUBLIC "-//W3C//DTD SVG 1.1//EN"
  "http://www.w3.org/Graphics/SVG/1.1/DTD/svg11.dtd">
<svg xmlns:xlink="http://www.w3.org/1999/xlink" width="1152pt" height="504pt" viewBox="0 0 1152 504" xmlns="http://www.w3.org/2000/svg" version="1.1">
 <metadata>
  <rdf:RDF xmlns:dc="http://purl.org/dc/elements/1.1/" xmlns:cc="http://creativecommons.org/ns#" xmlns:rdf="http://www.w3.org/1999/02/22-rdf-syntax-ns#">
   <cc:Work>
    <dc:type rdf:resource="http://purl.org/dc/dcmitype/StillImage"/>
    <dc:date>2024-05-20T21:46:54.540524</dc:date>
    <dc:format>image/svg+xml</dc:format>
    <dc:creator>
     <cc:Agent>
      <dc:title>Matplotlib v3.7.0, https://matplotlib.org/</dc:title>
     </cc:Agent>
    </dc:creator>
   </cc:Work>
  </rdf:RDF>
 </metadata>
 <defs>
  <style type="text/css">*{stroke-linejoin: round; stroke-linecap: butt}</style>
 </defs>
 <g id="figure_1">
  <g id="patch_1">
   <path d="M 0 504 
L 1152 504 
L 1152 0 
L 0 0 
z
" style="fill: #ffffff"/>
  </g>
  <g id="axes_1">
   <g id="patch_2">
    <path d="M 57.62 235.15 
L 409.28 235.15 
L 409.28 26.88 
L 57.62 26.88 
z
" style="fill: #ffffff"/>
   </g>
   <g id="PolyCollection_1"/>
   <g id="PolyCollection_2"/>
   <g id="PolyCollection_3"/>
   <g id="matplotlib.axis_1">
    <g id="xtick_1">
     <g id="line2d_1">
      <defs>
       <path id="mdceb7fce77" d="M 0 0 
L 0 3.5 
" style="stroke: #000000; stroke-width: 0.8"/>
      </defs>
      <g>
       <use xlink:href="#mdceb7fce77" x="73.604545" y="235.15" style="stroke: #000000; stroke-width: 0.8"/>
      </g>
     </g>
    </g>
    <g id="xtick_2">
     <g id="line2d_2">
      <g>
       <use xlink:href="#mdceb7fce77" x="137.542727" y="235.15" style="stroke: #000000; stroke-width: 0.8"/>
      </g>
     </g>
    </g>
    <g id="xtick_3">
     <g id="line2d_3">
      <g>
       <use xlink:href="#mdceb7fce77" x="201.480909" y="235.15" style="stroke: #000000; stroke-width: 0.8"/>
      </g>
     </g>
    </g>
    <g id="xtick_4">
     <g id="line2d_4">
      <g>
       <use xlink:href="#mdceb7fce77" x="265.419091" y="235.15" style="stroke: #000000; stroke-width: 0.8"/>
      </g>
     </g>
    </g>
    <g id="xtick_5">
     <g id="line2d_5">
      <g>
       <use xlink:href="#mdceb7fce77" x="329.357273" y="235.15" style="stroke: #000000; stroke-width: 0.8"/>
      </g>
     </g>
    </g>
    <g id="xtick_6">
     <g id="line2d_6">
      <g>
       <use xlink:href="#mdceb7fce77" x="393.295455" y="235.15" style="stroke: #000000; stroke-width: 0.8"/>
      </g>
     </g>
    </g>
   </g>
   <g id="matplotlib.axis_2">
    <g id="ytick_1">
     <g id="line2d_7">
      <defs>
       <path id="mc402196290" d="M 0 0 
L -3.5 0 
" style="stroke: #000000; stroke-width: 0.8"/>
      </defs>
      <g>
       <use xlink:href="#mc402196290" x="57.62" y="219.097569" style="stroke: #000000; stroke-width: 0.8"/>
      </g>
     </g>
     <g id="text_1">
      <!-- 0.40 -->
      <g transform="translate(28.354375 222.896788) scale(0.1 -0.1)">
       <defs>
        <path id="DejaVuSans-30" d="M 2034 4250 
Q 1547 4250 1301 3770 
Q 1056 3291 1056 2328 
Q 1056 1369 1301 889 
Q 1547 409 2034 409 
Q 2525 409 2770 889 
Q 3016 1369 3016 2328 
Q 3016 3291 2770 3770 
Q 2525 4250 2034 4250 
z
M 2034 4750 
Q 2819 4750 3233 4129 
Q 3647 3509 3647 2328 
Q 3647 1150 3233 529 
Q 2819 -91 2034 -91 
Q 1250 -91 836 529 
Q 422 1150 422 2328 
Q 422 3509 836 4129 
Q 1250 4750 2034 4750 
z
" transform="scale(0.015625)"/>
        <path id="DejaVuSans-2e" d="M 684 794 
L 1344 794 
L 1344 0 
L 684 0 
L 684 794 
z
" transform="scale(0.015625)"/>
        <path id="DejaVuSans-34" d="M 2419 4116 
L 825 1625 
L 2419 1625 
L 2419 4116 
z
M 2253 4666 
L 3047 4666 
L 3047 1625 
L 3713 1625 
L 3713 1100 
L 3047 1100 
L 3047 0 
L 2419 0 
L 2419 1100 
L 313 1100 
L 313 1709 
L 2253 4666 
z
" transform="scale(0.015625)"/>
       </defs>
       <use xlink:href="#DejaVuSans-30"/>
       <use xlink:href="#DejaVuSans-2e" x="63.623047"/>
       <use xlink:href="#DejaVuSans-34" x="95.410156"/>
       <use xlink:href="#DejaVuSans-30" x="159.033203"/>
      </g>
     </g>
    </g>
    <g id="ytick_2">
     <g id="line2d_8">
      <g>
       <use xlink:href="#mc402196290" x="57.62" y="177.114289" style="stroke: #000000; stroke-width: 0.8"/>
      </g>
     </g>
     <g id="text_2">
      <!-- 0.45 -->
      <g transform="translate(28.354375 180.913507) scale(0.1 -0.1)">
       <defs>
        <path id="DejaVuSans-35" d="M 691 4666 
L 3169 4666 
L 3169 4134 
L 1269 4134 
L 1269 2991 
Q 1406 3038 1543 3061 
Q 1681 3084 1819 3084 
Q 2600 3084 3056 2656 
Q 3513 2228 3513 1497 
Q 3513 744 3044 326 
Q 2575 -91 1722 -91 
Q 1428 -91 1123 -41 
Q 819 9 494 109 
L 494 744 
Q 775 591 1075 516 
Q 1375 441 1709 441 
Q 2250 441 2565 725 
Q 2881 1009 2881 1497 
Q 2881 1984 2565 2268 
Q 2250 2553 1709 2553 
Q 1456 2553 1204 2497 
Q 953 2441 691 2322 
L 691 4666 
z
" transform="scale(0.015625)"/>
       </defs>
       <use xlink:href="#DejaVuSans-30"/>
       <use xlink:href="#DejaVuSans-2e" x="63.623047"/>
       <use xlink:href="#DejaVuSans-34" x="95.410156"/>
       <use xlink:href="#DejaVuSans-35" x="159.033203"/>
      </g>
     </g>
    </g>
    <g id="ytick_3">
     <g id="line2d_9">
      <g>
       <use xlink:href="#mc402196290" x="57.62" y="135.131008" style="stroke: #000000; stroke-width: 0.8"/>
      </g>
     </g>
     <g id="text_3">
      <!-- 0.50 -->
      <g transform="translate(28.354375 138.930227) scale(0.1 -0.1)">
       <use xlink:href="#DejaVuSans-30"/>
       <use xlink:href="#DejaVuSans-2e" x="63.623047"/>
       <use xlink:href="#DejaVuSans-35" x="95.410156"/>
       <use xlink:href="#DejaVuSans-30" x="159.033203"/>
      </g>
     </g>
    </g>
    <g id="ytick_4">
     <g id="line2d_10">
      <g>
       <use xlink:href="#mc402196290" x="57.62" y="93.147727" style="stroke: #000000; stroke-width: 0.8"/>
      </g>
     </g>
     <g id="text_4">
      <!-- 0.55 -->
      <g transform="translate(28.354375 96.946946) scale(0.1 -0.1)">
       <use xlink:href="#DejaVuSans-30"/>
       <use xlink:href="#DejaVuSans-2e" x="63.623047"/>
       <use xlink:href="#DejaVuSans-35" x="95.410156"/>
       <use xlink:href="#DejaVuSans-35" x="159.033203"/>
      </g>
     </g>
    </g>
    <g id="ytick_5">
     <g id="line2d_11">
      <g>
       <use xlink:href="#mc402196290" x="57.62" y="51.164447" style="stroke: #000000; stroke-width: 0.8"/>
      </g>
     </g>
     <g id="text_5">
      <!-- 0.60 -->
      <g transform="translate(28.354375 54.963665) scale(0.1 -0.1)">
       <defs>
        <path id="DejaVuSans-36" d="M 2113 2584 
Q 1688 2584 1439 2293 
Q 1191 2003 1191 1497 
Q 1191 994 1439 701 
Q 1688 409 2113 409 
Q 2538 409 2786 701 
Q 3034 994 3034 1497 
Q 3034 2003 2786 2293 
Q 2538 2584 2113 2584 
z
M 3366 4563 
L 3366 3988 
Q 3128 4100 2886 4159 
Q 2644 4219 2406 4219 
Q 1781 4219 1451 3797 
Q 1122 3375 1075 2522 
Q 1259 2794 1537 2939 
Q 1816 3084 2150 3084 
Q 2853 3084 3261 2657 
Q 3669 2231 3669 1497 
Q 3669 778 3244 343 
Q 2819 -91 2113 -91 
Q 1303 -91 875 529 
Q 447 1150 447 2328 
Q 447 3434 972 4092 
Q 1497 4750 2381 4750 
Q 2619 4750 2861 4703 
Q 3103 4656 3366 4563 
z
" transform="scale(0.015625)"/>
       </defs>
       <use xlink:href="#DejaVuSans-30"/>
       <use xlink:href="#DejaVuSans-2e" x="63.623047"/>
       <use xlink:href="#DejaVuSans-36" x="95.410156"/>
       <use xlink:href="#DejaVuSans-30" x="159.033203"/>
      </g>
     </g>
    </g>
    <g id="text_6">
     <!-- True Positive Rate -->
     <g transform="translate(21.442812 193.356562) rotate(-90) scale(0.14 -0.14)">
      <defs>
       <path id="DejaVuSans-54" d="M -19 4666 
L 3928 4666 
L 3928 4134 
L 2272 4134 
L 2272 0 
L 1638 0 
L 1638 4134 
L -19 4134 
L -19 4666 
z
" transform="scale(0.015625)"/>
       <path id="DejaVuSans-72" d="M 2631 2963 
Q 2534 3019 2420 3045 
Q 2306 3072 2169 3072 
Q 1681 3072 1420 2755 
Q 1159 2438 1159 1844 
L 1159 0 
L 581 0 
L 581 3500 
L 1159 3500 
L 1159 2956 
Q 1341 3275 1631 3429 
Q 1922 3584 2338 3584 
Q 2397 3584 2469 3576 
Q 2541 3569 2628 3553 
L 2631 2963 
z
" transform="scale(0.015625)"/>
       <path id="DejaVuSans-75" d="M 544 1381 
L 544 3500 
L 1119 3500 
L 1119 1403 
Q 1119 906 1312 657 
Q 1506 409 1894 409 
Q 2359 409 2629 706 
Q 2900 1003 2900 1516 
L 2900 3500 
L 3475 3500 
L 3475 0 
L 2900 0 
L 2900 538 
Q 2691 219 2414 64 
Q 2138 -91 1772 -91 
Q 1169 -91 856 284 
Q 544 659 544 1381 
z
M 1991 3584 
L 1991 3584 
z
" transform="scale(0.015625)"/>
       <path id="DejaVuSans-65" d="M 3597 1894 
L 3597 1613 
L 953 1613 
Q 991 1019 1311 708 
Q 1631 397 2203 397 
Q 2534 397 2845 478 
Q 3156 559 3463 722 
L 3463 178 
Q 3153 47 2828 -22 
Q 2503 -91 2169 -91 
Q 1331 -91 842 396 
Q 353 884 353 1716 
Q 353 2575 817 3079 
Q 1281 3584 2069 3584 
Q 2775 3584 3186 3129 
Q 3597 2675 3597 1894 
z
M 3022 2063 
Q 3016 2534 2758 2815 
Q 2500 3097 2075 3097 
Q 1594 3097 1305 2825 
Q 1016 2553 972 2059 
L 3022 2063 
z
" transform="scale(0.015625)"/>
       <path id="DejaVuSans-20" transform="scale(0.015625)"/>
       <path id="DejaVuSans-50" d="M 1259 4147 
L 1259 2394 
L 2053 2394 
Q 2494 2394 2734 2622 
Q 2975 2850 2975 3272 
Q 2975 3691 2734 3919 
Q 2494 4147 2053 4147 
L 1259 4147 
z
M 628 4666 
L 2053 4666 
Q 2838 4666 3239 4311 
Q 3641 3956 3641 3272 
Q 3641 2581 3239 2228 
Q 2838 1875 2053 1875 
L 1259 1875 
L 1259 0 
L 628 0 
L 628 4666 
z
" transform="scale(0.015625)"/>
       <path id="DejaVuSans-6f" d="M 1959 3097 
Q 1497 3097 1228 2736 
Q 959 2375 959 1747 
Q 959 1119 1226 758 
Q 1494 397 1959 397 
Q 2419 397 2687 759 
Q 2956 1122 2956 1747 
Q 2956 2369 2687 2733 
Q 2419 3097 1959 3097 
z
M 1959 3584 
Q 2709 3584 3137 3096 
Q 3566 2609 3566 1747 
Q 3566 888 3137 398 
Q 2709 -91 1959 -91 
Q 1206 -91 779 398 
Q 353 888 353 1747 
Q 353 2609 779 3096 
Q 1206 3584 1959 3584 
z
" transform="scale(0.015625)"/>
       <path id="DejaVuSans-73" d="M 2834 3397 
L 2834 2853 
Q 2591 2978 2328 3040 
Q 2066 3103 1784 3103 
Q 1356 3103 1142 2972 
Q 928 2841 928 2578 
Q 928 2378 1081 2264 
Q 1234 2150 1697 2047 
L 1894 2003 
Q 2506 1872 2764 1633 
Q 3022 1394 3022 966 
Q 3022 478 2636 193 
Q 2250 -91 1575 -91 
Q 1294 -91 989 -36 
Q 684 19 347 128 
L 347 722 
Q 666 556 975 473 
Q 1284 391 1588 391 
Q 1994 391 2212 530 
Q 2431 669 2431 922 
Q 2431 1156 2273 1281 
Q 2116 1406 1581 1522 
L 1381 1569 
Q 847 1681 609 1914 
Q 372 2147 372 2553 
Q 372 3047 722 3315 
Q 1072 3584 1716 3584 
Q 2034 3584 2315 3537 
Q 2597 3491 2834 3397 
z
" transform="scale(0.015625)"/>
       <path id="DejaVuSans-69" d="M 603 3500 
L 1178 3500 
L 1178 0 
L 603 0 
L 603 3500 
z
M 603 4863 
L 1178 4863 
L 1178 4134 
L 603 4134 
L 603 4863 
z
" transform="scale(0.015625)"/>
       <path id="DejaVuSans-74" d="M 1172 4494 
L 1172 3500 
L 2356 3500 
L 2356 3053 
L 1172 3053 
L 1172 1153 
Q 1172 725 1289 603 
Q 1406 481 1766 481 
L 2356 481 
L 2356 0 
L 1766 0 
Q 1100 0 847 248 
Q 594 497 594 1153 
L 594 3053 
L 172 3053 
L 172 3500 
L 594 3500 
L 594 4494 
L 1172 4494 
z
" transform="scale(0.015625)"/>
       <path id="DejaVuSans-76" d="M 191 3500 
L 800 3500 
L 1894 563 
L 2988 3500 
L 3597 3500 
L 2284 0 
L 1503 0 
L 191 3500 
z
" transform="scale(0.015625)"/>
       <path id="DejaVuSans-52" d="M 2841 2188 
Q 3044 2119 3236 1894 
Q 3428 1669 3622 1275 
L 4263 0 
L 3584 0 
L 2988 1197 
Q 2756 1666 2539 1819 
Q 2322 1972 1947 1972 
L 1259 1972 
L 1259 0 
L 628 0 
L 628 4666 
L 2053 4666 
Q 2853 4666 3247 4331 
Q 3641 3997 3641 3322 
Q 3641 2881 3436 2590 
Q 3231 2300 2841 2188 
z
M 1259 4147 
L 1259 2491 
L 2053 2491 
Q 2509 2491 2742 2702 
Q 2975 2913 2975 3322 
Q 2975 3731 2742 3939 
Q 2509 4147 2053 4147 
L 1259 4147 
z
" transform="scale(0.015625)"/>
       <path id="DejaVuSans-61" d="M 2194 1759 
Q 1497 1759 1228 1600 
Q 959 1441 959 1056 
Q 959 750 1161 570 
Q 1363 391 1709 391 
Q 2188 391 2477 730 
Q 2766 1069 2766 1631 
L 2766 1759 
L 2194 1759 
z
M 3341 1997 
L 3341 0 
L 2766 0 
L 2766 531 
Q 2569 213 2275 61 
Q 1981 -91 1556 -91 
Q 1019 -91 701 211 
Q 384 513 384 1019 
Q 384 1609 779 1909 
Q 1175 2209 1959 2209 
L 2766 2209 
L 2766 2266 
Q 2766 2663 2505 2880 
Q 2244 3097 1772 3097 
Q 1472 3097 1187 3025 
Q 903 2953 641 2809 
L 641 3341 
Q 956 3463 1253 3523 
Q 1550 3584 1831 3584 
Q 2591 3584 2966 3190 
Q 3341 2797 3341 1997 
z
" transform="scale(0.015625)"/>
      </defs>
      <use xlink:href="#DejaVuSans-54"/>
      <use xlink:href="#DejaVuSans-72" x="46.333984"/>
      <use xlink:href="#DejaVuSans-75" x="87.447266"/>
      <use xlink:href="#DejaVuSans-65" x="150.826172"/>
      <use xlink:href="#DejaVuSans-20" x="212.349609"/>
      <use xlink:href="#DejaVuSans-50" x="244.136719"/>
      <use xlink:href="#DejaVuSans-6f" x="300.814453"/>
      <use xlink:href="#DejaVuSans-73" x="361.996094"/>
      <use xlink:href="#DejaVuSans-69" x="414.095703"/>
      <use xlink:href="#DejaVuSans-74" x="441.878906"/>
      <use xlink:href="#DejaVuSans-69" x="481.087891"/>
      <use xlink:href="#DejaVuSans-76" x="508.871094"/>
      <use xlink:href="#DejaVuSans-65" x="568.050781"/>
      <use xlink:href="#DejaVuSans-20" x="629.574219"/>
      <use xlink:href="#DejaVuSans-52" x="661.361328"/>
      <use xlink:href="#DejaVuSans-61" x="728.59375"/>
      <use xlink:href="#DejaVuSans-74" x="789.873047"/>
      <use xlink:href="#DejaVuSans-65" x="829.082031"/>
     </g>
    </g>
   </g>
   <g id="line2d_12">
    <path d="M 73.604545 36.346818 
L 84.260909 36.346818 
L 94.917273 36.346818 
L 105.573636 44.578834 
L 116.23 44.578834 
L 126.886364 44.578834 
L 137.542727 44.578834 
L 148.199091 44.578834 
L 158.855455 44.578834 
L 169.511818 44.578834 
L 180.168182 52.81085 
L 190.824545 61.042866 
L 201.480909 69.274881 
L 212.137273 69.274881 
L 222.793636 69.274881 
L 233.45 69.274881 
L 244.106364 85.738913 
L 254.762727 85.738913 
L 265.419091 118.666976 
L 276.075455 135.131008 
L 286.731818 143.363024 
L 297.388182 159.827055 
L 308.044545 176.291087 
L 318.700909 176.291087 
L 329.357273 176.291087 
L 340.013636 200.987134 
L 350.67 209.21915 
L 361.326364 217.451166 
L 371.982727 225.683182 
L 382.639091 225.683182 
L 393.295455 225.683182 
" clip-path="url(#pf30e6143e9)" style="fill: none; stroke: #4878d0; stroke-width: 1.5; stroke-linecap: square"/>
   </g>
   <g id="line2d_13">
    <path d="M 73.604545 41.653882 
L 84.260909 44.259516 
L 94.917273 44.910925 
L 105.573636 46.213742 
L 116.23 47.516559 
L 126.886364 48.819376 
L 137.542727 50.773602 
L 148.199091 53.379236 
L 158.855455 54.682053 
L 169.511818 55.98487 
L 180.168182 61.196138 
L 190.824545 63.150364 
L 201.480909 65.755998 
L 212.137273 67.710224 
L 222.793636 70.967266 
L 233.45 76.178535 
L 244.106364 76.829943 
L 254.762727 79.435577 
L 265.419091 82.69262 
L 276.075455 83.995437 
L 286.731818 84.646846 
L 297.388182 89.206706 
L 308.044545 91.160931 
L 318.700909 97.675017 
L 329.357273 98.977834 
L 340.013636 106.794736 
L 350.67 109.40037 
L 361.326364 112.657413 
L 371.982727 113.308822 
L 382.639091 118.52009 
L 393.295455 125.685584 
" clip-path="url(#pf30e6143e9)" style="fill: none; stroke: #ee854a; stroke-width: 1.5; stroke-linecap: square"/>
   </g>
   <g id="line2d_14">
    <path d="M 73.604545 89.726867 
L 84.260909 88.234129 
L 94.917273 88.234129 
L 105.573636 86.4926 
L 116.23 86.990179 
L 126.886364 87.487759 
L 137.542727 86.990179 
L 148.199091 85.99502 
L 158.855455 84.999861 
L 169.511818 84.502281 
L 180.168182 85.248651 
L 190.824545 85.497441 
L 201.480909 84.751071 
L 212.137273 84.751071 
L 222.793636 83.507122 
L 233.45 83.258332 
L 244.106364 83.258332 
L 254.762727 83.507122 
L 265.419091 83.009542 
L 276.075455 82.014383 
L 286.731818 81.516804 
L 297.388182 81.516804 
L 308.044545 81.516804 
L 318.700909 80.770434 
L 329.357273 80.521644 
L 340.013636 79.775275 
L 350.67 80.770434 
L 361.326364 80.770434 
L 371.982727 81.019224 
L 382.639091 80.770434 
L 393.295455 80.272855 
" clip-path="url(#pf30e6143e9)" style="fill: none; stroke: #6acc64; stroke-width: 1.5; stroke-linecap: square"/>
   </g>
   <g id="line2d_15"/>
   <g id="line2d_16"/>
   <g id="line2d_17"/>
   <g id="patch_3">
    <path d="M 57.62 235.15 
L 57.62 26.88 
" style="fill: none; stroke: #000000; stroke-width: 0.8; stroke-linejoin: miter; stroke-linecap: square"/>
   </g>
   <g id="patch_4">
    <path d="M 409.28 235.15 
L 409.28 26.88 
" style="fill: none; stroke: #000000; stroke-width: 0.8; stroke-linejoin: miter; stroke-linecap: square"/>
   </g>
   <g id="patch_5">
    <path d="M 57.62 235.15 
L 409.28 235.15 
" style="fill: none; stroke: #000000; stroke-width: 0.8; stroke-linejoin: miter; stroke-linecap: square"/>
   </g>
   <g id="patch_6">
    <path d="M 57.62 26.88 
L 409.28 26.88 
" style="fill: none; stroke: #000000; stroke-width: 0.8; stroke-linejoin: miter; stroke-linecap: square"/>
   </g>
   <g id="text_7">
    <!-- Age -->
    <g transform="translate(221.844688 20.88) scale(0.12 -0.12)">
     <defs>
      <path id="DejaVuSans-41" d="M 2188 4044 
L 1331 1722 
L 3047 1722 
L 2188 4044 
z
M 1831 4666 
L 2547 4666 
L 4325 0 
L 3669 0 
L 3244 1197 
L 1141 1197 
L 716 0 
L 50 0 
L 1831 4666 
z
" transform="scale(0.015625)"/>
      <path id="DejaVuSans-67" d="M 2906 1791 
Q 2906 2416 2648 2759 
Q 2391 3103 1925 3103 
Q 1463 3103 1205 2759 
Q 947 2416 947 1791 
Q 947 1169 1205 825 
Q 1463 481 1925 481 
Q 2391 481 2648 825 
Q 2906 1169 2906 1791 
z
M 3481 434 
Q 3481 -459 3084 -895 
Q 2688 -1331 1869 -1331 
Q 1566 -1331 1297 -1286 
Q 1028 -1241 775 -1147 
L 775 -588 
Q 1028 -725 1275 -790 
Q 1522 -856 1778 -856 
Q 2344 -856 2625 -561 
Q 2906 -266 2906 331 
L 2906 616 
Q 2728 306 2450 153 
Q 2172 0 1784 0 
Q 1141 0 747 490 
Q 353 981 353 1791 
Q 353 2603 747 3093 
Q 1141 3584 1784 3584 
Q 2172 3584 2450 3431 
Q 2728 3278 2906 2969 
L 2906 3500 
L 3481 3500 
L 3481 434 
z
" transform="scale(0.015625)"/>
     </defs>
     <use xlink:href="#DejaVuSans-41"/>
     <use xlink:href="#DejaVuSans-67" x="68.408203"/>
     <use xlink:href="#DejaVuSans-65" x="131.884766"/>
    </g>
   </g>
   <g id="legend_1">
    <g id="patch_7">
     <path d="M 64.62 230.15 
L 139.843437 230.15 
Q 141.843437 230.15 141.843437 228.15 
L 141.843437 185.115625 
Q 141.843437 183.115625 139.843437 183.115625 
L 64.62 183.115625 
Q 62.62 183.115625 62.62 185.115625 
L 62.62 228.15 
Q 62.62 230.15 64.62 230.15 
z
" style="fill: #ffffff; opacity: 0.8; stroke: #cccccc; stroke-linejoin: miter"/>
    </g>
    <g id="line2d_18">
     <path d="M 66.62 191.214062 
L 76.62 191.214062 
L 86.62 191.214062 
" style="fill: none; stroke: #4878d0; stroke-width: 1.5; stroke-linecap: square"/>
    </g>
    <g id="text_8">
     <!-- [0-30) -->
     <g transform="translate(94.62 194.714062) scale(0.1 -0.1)">
      <defs>
       <path id="DejaVuSans-5b" d="M 550 4863 
L 1875 4863 
L 1875 4416 
L 1125 4416 
L 1125 -397 
L 1875 -397 
L 1875 -844 
L 550 -844 
L 550 4863 
z
" transform="scale(0.015625)"/>
       <path id="DejaVuSans-2d" d="M 313 2009 
L 1997 2009 
L 1997 1497 
L 313 1497 
L 313 2009 
z
" transform="scale(0.015625)"/>
       <path id="DejaVuSans-33" d="M 2597 2516 
Q 3050 2419 3304 2112 
Q 3559 1806 3559 1356 
Q 3559 666 3084 287 
Q 2609 -91 1734 -91 
Q 1441 -91 1130 -33 
Q 819 25 488 141 
L 488 750 
Q 750 597 1062 519 
Q 1375 441 1716 441 
Q 2309 441 2620 675 
Q 2931 909 2931 1356 
Q 2931 1769 2642 2001 
Q 2353 2234 1838 2234 
L 1294 2234 
L 1294 2753 
L 1863 2753 
Q 2328 2753 2575 2939 
Q 2822 3125 2822 3475 
Q 2822 3834 2567 4026 
Q 2313 4219 1838 4219 
Q 1578 4219 1281 4162 
Q 984 4106 628 3988 
L 628 4550 
Q 988 4650 1302 4700 
Q 1616 4750 1894 4750 
Q 2613 4750 3031 4423 
Q 3450 4097 3450 3541 
Q 3450 3153 3228 2886 
Q 3006 2619 2597 2516 
z
" transform="scale(0.015625)"/>
       <path id="DejaVuSans-29" d="M 513 4856 
L 1013 4856 
Q 1481 4119 1714 3412 
Q 1947 2706 1947 2009 
Q 1947 1309 1714 600 
Q 1481 -109 1013 -844 
L 513 -844 
Q 928 -128 1133 580 
Q 1338 1288 1338 2009 
Q 1338 2731 1133 3434 
Q 928 4138 513 4856 
z
" transform="scale(0.015625)"/>
      </defs>
      <use xlink:href="#DejaVuSans-5b"/>
      <use xlink:href="#DejaVuSans-30" x="39.013672"/>
      <use xlink:href="#DejaVuSans-2d" x="102.636719"/>
      <use xlink:href="#DejaVuSans-33" x="138.720703"/>
      <use xlink:href="#DejaVuSans-30" x="202.34375"/>
      <use xlink:href="#DejaVuSans-29" x="265.966797"/>
     </g>
    </g>
    <g id="line2d_19">
     <path d="M 66.62 205.892187 
L 76.62 205.892187 
L 86.62 205.892187 
" style="fill: none; stroke: #ee854a; stroke-width: 1.5; stroke-linecap: square"/>
    </g>
    <g id="text_9">
     <!-- [30-60) -->
     <g transform="translate(94.62 209.392187) scale(0.1 -0.1)">
      <use xlink:href="#DejaVuSans-5b"/>
      <use xlink:href="#DejaVuSans-33" x="39.013672"/>
      <use xlink:href="#DejaVuSans-30" x="102.636719"/>
      <use xlink:href="#DejaVuSans-2d" x="166.259766"/>
      <use xlink:href="#DejaVuSans-36" x="202.34375"/>
      <use xlink:href="#DejaVuSans-30" x="265.966797"/>
      <use xlink:href="#DejaVuSans-29" x="329.589844"/>
     </g>
    </g>
    <g id="line2d_20">
     <path d="M 66.62 220.570312 
L 76.62 220.570312 
L 86.62 220.570312 
" style="fill: none; stroke: #6acc64; stroke-width: 1.5; stroke-linecap: square"/>
    </g>
    <g id="text_10">
     <!-- [60-100) -->
     <g transform="translate(94.62 224.070312) scale(0.1 -0.1)">
      <defs>
       <path id="DejaVuSans-31" d="M 794 531 
L 1825 531 
L 1825 4091 
L 703 3866 
L 703 4441 
L 1819 4666 
L 2450 4666 
L 2450 531 
L 3481 531 
L 3481 0 
L 794 0 
L 794 531 
z
" transform="scale(0.015625)"/>
      </defs>
      <use xlink:href="#DejaVuSans-5b"/>
      <use xlink:href="#DejaVuSans-36" x="39.013672"/>
      <use xlink:href="#DejaVuSans-30" x="102.636719"/>
      <use xlink:href="#DejaVuSans-2d" x="166.259766"/>
      <use xlink:href="#DejaVuSans-31" x="202.34375"/>
      <use xlink:href="#DejaVuSans-30" x="265.966797"/>
      <use xlink:href="#DejaVuSans-30" x="329.589844"/>
      <use xlink:href="#DejaVuSans-29" x="393.212891"/>
     </g>
    </g>
   </g>
  </g>
  <g id="axes_2">
   <g id="patch_8">
    <path d="M 423.58 235.15 
L 775.24 235.15 
L 775.24 26.88 
L 423.58 26.88 
z
" style="fill: #ffffff"/>
   </g>
   <g id="PolyCollection_4"/>
   <g id="PolyCollection_5"/>
   <g id="PolyCollection_6"/>
   <g id="PolyCollection_7"/>
   <g id="matplotlib.axis_3">
    <g id="xtick_7">
     <g id="line2d_21">
      <g>
       <use xlink:href="#mdceb7fce77" x="439.564545" y="235.15" style="stroke: #000000; stroke-width: 0.8"/>
      </g>
     </g>
    </g>
    <g id="xtick_8">
     <g id="line2d_22">
      <g>
       <use xlink:href="#mdceb7fce77" x="503.502727" y="235.15" style="stroke: #000000; stroke-width: 0.8"/>
      </g>
     </g>
    </g>
    <g id="xtick_9">
     <g id="line2d_23">
      <g>
       <use xlink:href="#mdceb7fce77" x="567.440909" y="235.15" style="stroke: #000000; stroke-width: 0.8"/>
      </g>
     </g>
    </g>
    <g id="xtick_10">
     <g id="line2d_24">
      <g>
       <use xlink:href="#mdceb7fce77" x="631.379091" y="235.15" style="stroke: #000000; stroke-width: 0.8"/>
      </g>
     </g>
    </g>
    <g id="xtick_11">
     <g id="line2d_25">
      <g>
       <use xlink:href="#mdceb7fce77" x="695.317273" y="235.15" style="stroke: #000000; stroke-width: 0.8"/>
      </g>
     </g>
    </g>
    <g id="xtick_12">
     <g id="line2d_26">
      <g>
       <use xlink:href="#mdceb7fce77" x="759.255455" y="235.15" style="stroke: #000000; stroke-width: 0.8"/>
      </g>
     </g>
    </g>
   </g>
   <g id="matplotlib.axis_4">
    <g id="ytick_6">
     <g id="line2d_27">
      <g>
       <use xlink:href="#mc402196290" x="423.58" y="219.097569" style="stroke: #000000; stroke-width: 0.8"/>
      </g>
     </g>
    </g>
    <g id="ytick_7">
     <g id="line2d_28">
      <g>
       <use xlink:href="#mc402196290" x="423.58" y="177.114289" style="stroke: #000000; stroke-width: 0.8"/>
      </g>
     </g>
    </g>
    <g id="ytick_8">
     <g id="line2d_29">
      <g>
       <use xlink:href="#mc402196290" x="423.58" y="135.131008" style="stroke: #000000; stroke-width: 0.8"/>
      </g>
     </g>
    </g>
    <g id="ytick_9">
     <g id="line2d_30">
      <g>
       <use xlink:href="#mc402196290" x="423.58" y="93.147727" style="stroke: #000000; stroke-width: 0.8"/>
      </g>
     </g>
    </g>
    <g id="ytick_10">
     <g id="line2d_31">
      <g>
       <use xlink:href="#mc402196290" x="423.58" y="51.164447" style="stroke: #000000; stroke-width: 0.8"/>
      </g>
     </g>
    </g>
   </g>
   <g id="line2d_32">
    <path d="M 439.564545 74.187536 
L 450.220909 76.122249 
L 460.877273 77.089606 
L 471.533636 78.056963 
L 482.19 79.02432 
L 492.846364 79.991676 
L 503.502727 81.92639 
L 514.159091 81.92639 
L 524.815455 82.893746 
L 535.471818 86.763173 
L 546.128182 89.665243 
L 556.784545 92.567313 
L 567.440909 93.53467 
L 578.097273 94.502027 
L 588.753636 94.502027 
L 599.41 97.404097 
L 610.066364 97.404097 
L 620.722727 99.33881 
L 631.379091 105.14295 
L 642.035455 108.04502 
L 652.691818 107.077664 
L 663.348182 109.012377 
L 674.004545 110.94709 
L 684.660909 112.881804 
L 695.317273 112.881804 
L 705.973636 117.718587 
L 716.63 124.490084 
L 727.286364 130.294224 
L 737.942727 131.261581 
L 748.599091 136.098365 
L 759.255455 139.967791 
" clip-path="url(#pf14abb3e21)" style="fill: none; stroke: #d65f5f; stroke-width: 1.5; stroke-linecap: square"/>
   </g>
   <g id="line2d_33">
    <path d="M 439.564545 57.384192 
L 450.220909 57.384192 
L 460.877273 57.384192 
L 471.533636 57.384192 
L 482.19 57.384192 
L 492.846364 57.384192 
L 503.502727 57.384192 
L 514.159091 57.384192 
L 524.815455 57.384192 
L 535.471818 57.384192 
L 546.128182 88.482918 
L 556.784545 88.482918 
L 567.440909 88.482918 
L 578.097273 88.482918 
L 588.753636 88.482918 
L 599.41 88.482918 
L 610.066364 88.482918 
L 620.722727 88.482918 
L 631.379091 88.482918 
L 642.035455 88.482918 
L 652.691818 88.482918 
L 663.348182 88.482918 
L 674.004545 88.482918 
L 684.660909 88.482918 
L 695.317273 88.482918 
L 705.973636 119.581645 
L 716.63 119.581645 
L 727.286364 119.581645 
L 737.942727 119.581645 
L 748.599091 119.581645 
L 759.255455 119.581645 
" clip-path="url(#pf14abb3e21)" style="fill: none; stroke: #956cb4; stroke-width: 1.5; stroke-linecap: square"/>
   </g>
   <g id="line2d_34">
    <path d="M 439.564545 74.806379 
L 450.220909 73.919252 
L 460.877273 73.919252 
L 471.533636 72.810343 
L 482.19 73.475688 
L 492.846364 74.141033 
L 503.502727 73.919252 
L 514.159091 73.919252 
L 524.815455 73.253906 
L 535.471818 72.36678 
L 546.128182 74.362815 
L 556.784545 74.584597 
L 567.440909 74.806379 
L 578.097273 75.249942 
L 588.753636 75.249942 
L 599.41 76.137069 
L 610.066364 76.802414 
L 620.722727 77.467759 
L 631.379091 77.689541 
L 642.035455 77.024196 
L 652.691818 77.245978 
L 663.348182 78.79845 
L 674.004545 79.463795 
L 684.660909 80.572703 
L 695.317273 81.016267 
L 705.973636 82.346957 
L 716.63 82.790521 
L 727.286364 82.790521 
L 737.942727 83.234084 
L 748.599091 83.677648 
L 759.255455 84.786556 
" clip-path="url(#pf14abb3e21)" style="fill: none; stroke: #8c613c; stroke-width: 1.5; stroke-linecap: square"/>
   </g>
   <g id="line2d_35">
    <path d="M 439.564545 130.191798 
L 450.220909 130.191798 
L 460.877273 130.191798 
L 471.533636 130.191798 
L 482.19 130.191798 
L 492.846364 130.191798 
L 503.502727 130.191798 
L 514.159091 130.191798 
L 524.815455 130.191798 
L 535.471818 130.191798 
L 546.128182 120.313379 
L 556.784545 130.191798 
L 567.440909 130.191798 
L 578.097273 130.191798 
L 588.753636 130.191798 
L 599.41 130.191798 
L 610.066364 130.191798 
L 620.722727 130.191798 
L 631.379091 130.191798 
L 642.035455 130.191798 
L 652.691818 130.191798 
L 663.348182 130.191798 
L 674.004545 130.191798 
L 684.660909 130.191798 
L 695.317273 120.313379 
L 705.973636 120.313379 
L 716.63 120.313379 
L 727.286364 120.313379 
L 737.942727 120.313379 
L 748.599091 120.313379 
L 759.255455 120.313379 
" clip-path="url(#pf14abb3e21)" style="fill: none; stroke: #dc7ec0; stroke-width: 1.5; stroke-linecap: square"/>
   </g>
   <g id="line2d_36"/>
   <g id="line2d_37"/>
   <g id="line2d_38"/>
   <g id="line2d_39"/>
   <g id="patch_9">
    <path d="M 423.58 235.15 
L 423.58 26.88 
" style="fill: none; stroke: #000000; stroke-width: 0.8; stroke-linejoin: miter; stroke-linecap: square"/>
   </g>
   <g id="patch_10">
    <path d="M 775.24 235.15 
L 775.24 26.88 
" style="fill: none; stroke: #000000; stroke-width: 0.8; stroke-linejoin: miter; stroke-linecap: square"/>
   </g>
   <g id="patch_11">
    <path d="M 423.58 235.15 
L 775.24 235.15 
" style="fill: none; stroke: #000000; stroke-width: 0.8; stroke-linejoin: miter; stroke-linecap: square"/>
   </g>
   <g id="patch_12">
    <path d="M 423.58 26.88 
L 775.24 26.88 
" style="fill: none; stroke: #000000; stroke-width: 0.8; stroke-linejoin: miter; stroke-linecap: square"/>
   </g>
   <g id="text_11">
    <!-- Race -->
    <g transform="translate(584.708125 20.88) scale(0.12 -0.12)">
     <defs>
      <path id="DejaVuSans-63" d="M 3122 3366 
L 3122 2828 
Q 2878 2963 2633 3030 
Q 2388 3097 2138 3097 
Q 1578 3097 1268 2742 
Q 959 2388 959 1747 
Q 959 1106 1268 751 
Q 1578 397 2138 397 
Q 2388 397 2633 464 
Q 2878 531 3122 666 
L 3122 134 
Q 2881 22 2623 -34 
Q 2366 -91 2075 -91 
Q 1284 -91 818 406 
Q 353 903 353 1747 
Q 353 2603 823 3093 
Q 1294 3584 2113 3584 
Q 2378 3584 2631 3529 
Q 2884 3475 3122 3366 
z
" transform="scale(0.015625)"/>
     </defs>
     <use xlink:href="#DejaVuSans-52"/>
     <use xlink:href="#DejaVuSans-61" x="67.232422"/>
     <use xlink:href="#DejaVuSans-63" x="128.511719"/>
     <use xlink:href="#DejaVuSans-65" x="183.492188"/>
    </g>
   </g>
   <g id="legend_2">
    <g id="patch_13">
     <path d="M 430.58 230.15 
L 545.019063 230.15 
Q 547.019063 230.15 547.019063 228.15 
L 547.019063 170.4375 
Q 547.019063 168.4375 545.019063 168.4375 
L 430.58 168.4375 
Q 428.58 168.4375 428.58 170.4375 
L 428.58 228.15 
Q 428.58 230.15 430.58 230.15 
z
" style="fill: #ffffff; opacity: 0.8; stroke: #cccccc; stroke-linejoin: miter"/>
    </g>
    <g id="line2d_40">
     <path d="M 432.58 176.535937 
L 442.58 176.535937 
L 452.58 176.535937 
" style="fill: none; stroke: #d65f5f; stroke-width: 1.5; stroke-linecap: square"/>
    </g>
    <g id="text_12">
     <!-- AfricanAmerican -->
     <g transform="translate(460.58 180.035937) scale(0.1 -0.1)">
      <defs>
       <path id="DejaVuSans-66" d="M 2375 4863 
L 2375 4384 
L 1825 4384 
Q 1516 4384 1395 4259 
Q 1275 4134 1275 3809 
L 1275 3500 
L 2222 3500 
L 2222 3053 
L 1275 3053 
L 1275 0 
L 697 0 
L 697 3053 
L 147 3053 
L 147 3500 
L 697 3500 
L 697 3744 
Q 697 4328 969 4595 
Q 1241 4863 1831 4863 
L 2375 4863 
z
" transform="scale(0.015625)"/>
       <path id="DejaVuSans-6e" d="M 3513 2113 
L 3513 0 
L 2938 0 
L 2938 2094 
Q 2938 2591 2744 2837 
Q 2550 3084 2163 3084 
Q 1697 3084 1428 2787 
Q 1159 2491 1159 1978 
L 1159 0 
L 581 0 
L 581 3500 
L 1159 3500 
L 1159 2956 
Q 1366 3272 1645 3428 
Q 1925 3584 2291 3584 
Q 2894 3584 3203 3211 
Q 3513 2838 3513 2113 
z
" transform="scale(0.015625)"/>
       <path id="DejaVuSans-6d" d="M 3328 2828 
Q 3544 3216 3844 3400 
Q 4144 3584 4550 3584 
Q 5097 3584 5394 3201 
Q 5691 2819 5691 2113 
L 5691 0 
L 5113 0 
L 5113 2094 
Q 5113 2597 4934 2840 
Q 4756 3084 4391 3084 
Q 3944 3084 3684 2787 
Q 3425 2491 3425 1978 
L 3425 0 
L 2847 0 
L 2847 2094 
Q 2847 2600 2669 2842 
Q 2491 3084 2119 3084 
Q 1678 3084 1418 2786 
Q 1159 2488 1159 1978 
L 1159 0 
L 581 0 
L 581 3500 
L 1159 3500 
L 1159 2956 
Q 1356 3278 1631 3431 
Q 1906 3584 2284 3584 
Q 2666 3584 2933 3390 
Q 3200 3197 3328 2828 
z
" transform="scale(0.015625)"/>
      </defs>
      <use xlink:href="#DejaVuSans-41"/>
      <use xlink:href="#DejaVuSans-66" x="64.783203"/>
      <use xlink:href="#DejaVuSans-72" x="99.988281"/>
      <use xlink:href="#DejaVuSans-69" x="141.101562"/>
      <use xlink:href="#DejaVuSans-63" x="168.884766"/>
      <use xlink:href="#DejaVuSans-61" x="223.865234"/>
      <use xlink:href="#DejaVuSans-6e" x="285.144531"/>
      <use xlink:href="#DejaVuSans-41" x="348.523438"/>
      <use xlink:href="#DejaVuSans-6d" x="416.931641"/>
      <use xlink:href="#DejaVuSans-65" x="514.34375"/>
      <use xlink:href="#DejaVuSans-72" x="575.867188"/>
      <use xlink:href="#DejaVuSans-69" x="616.980469"/>
      <use xlink:href="#DejaVuSans-63" x="644.763672"/>
      <use xlink:href="#DejaVuSans-61" x="699.744141"/>
      <use xlink:href="#DejaVuSans-6e" x="761.023438"/>
     </g>
    </g>
    <g id="line2d_41">
     <path d="M 432.58 191.214063 
L 442.58 191.214063 
L 452.58 191.214063 
" style="fill: none; stroke: #956cb4; stroke-width: 1.5; stroke-linecap: square"/>
    </g>
    <g id="text_13">
     <!-- Asian -->
     <g transform="translate(460.58 194.714063) scale(0.1 -0.1)">
      <use xlink:href="#DejaVuSans-41"/>
      <use xlink:href="#DejaVuSans-73" x="68.408203"/>
      <use xlink:href="#DejaVuSans-69" x="120.507812"/>
      <use xlink:href="#DejaVuSans-61" x="148.291016"/>
      <use xlink:href="#DejaVuSans-6e" x="209.570312"/>
     </g>
    </g>
    <g id="line2d_42">
     <path d="M 432.58 205.892187 
L 442.58 205.892187 
L 452.58 205.892187 
" style="fill: none; stroke: #8c613c; stroke-width: 1.5; stroke-linecap: square"/>
    </g>
    <g id="text_14">
     <!-- Caucasian -->
     <g transform="translate(460.58 209.392187) scale(0.1 -0.1)">
      <defs>
       <path id="DejaVuSans-43" d="M 4122 4306 
L 4122 3641 
Q 3803 3938 3442 4084 
Q 3081 4231 2675 4231 
Q 1875 4231 1450 3742 
Q 1025 3253 1025 2328 
Q 1025 1406 1450 917 
Q 1875 428 2675 428 
Q 3081 428 3442 575 
Q 3803 722 4122 1019 
L 4122 359 
Q 3791 134 3420 21 
Q 3050 -91 2638 -91 
Q 1578 -91 968 557 
Q 359 1206 359 2328 
Q 359 3453 968 4101 
Q 1578 4750 2638 4750 
Q 3056 4750 3426 4639 
Q 3797 4528 4122 4306 
z
" transform="scale(0.015625)"/>
      </defs>
      <use xlink:href="#DejaVuSans-43"/>
      <use xlink:href="#DejaVuSans-61" x="69.824219"/>
      <use xlink:href="#DejaVuSans-75" x="131.103516"/>
      <use xlink:href="#DejaVuSans-63" x="194.482422"/>
      <use xlink:href="#DejaVuSans-61" x="249.462891"/>
      <use xlink:href="#DejaVuSans-73" x="310.742188"/>
      <use xlink:href="#DejaVuSans-69" x="362.841797"/>
      <use xlink:href="#DejaVuSans-61" x="390.625"/>
      <use xlink:href="#DejaVuSans-6e" x="451.904297"/>
     </g>
    </g>
    <g id="line2d_43">
     <path d="M 432.58 220.570312 
L 442.58 220.570312 
L 452.58 220.570312 
" style="fill: none; stroke: #dc7ec0; stroke-width: 1.5; stroke-linecap: square"/>
    </g>
    <g id="text_15">
     <!-- Hispanic -->
     <g transform="translate(460.58 224.070312) scale(0.1 -0.1)">
      <defs>
       <path id="DejaVuSans-48" d="M 628 4666 
L 1259 4666 
L 1259 2753 
L 3553 2753 
L 3553 4666 
L 4184 4666 
L 4184 0 
L 3553 0 
L 3553 2222 
L 1259 2222 
L 1259 0 
L 628 0 
L 628 4666 
z
" transform="scale(0.015625)"/>
       <path id="DejaVuSans-70" d="M 1159 525 
L 1159 -1331 
L 581 -1331 
L 581 3500 
L 1159 3500 
L 1159 2969 
Q 1341 3281 1617 3432 
Q 1894 3584 2278 3584 
Q 2916 3584 3314 3078 
Q 3713 2572 3713 1747 
Q 3713 922 3314 415 
Q 2916 -91 2278 -91 
Q 1894 -91 1617 61 
Q 1341 213 1159 525 
z
M 3116 1747 
Q 3116 2381 2855 2742 
Q 2594 3103 2138 3103 
Q 1681 3103 1420 2742 
Q 1159 2381 1159 1747 
Q 1159 1113 1420 752 
Q 1681 391 2138 391 
Q 2594 391 2855 752 
Q 3116 1113 3116 1747 
z
" transform="scale(0.015625)"/>
      </defs>
      <use xlink:href="#DejaVuSans-48"/>
      <use xlink:href="#DejaVuSans-69" x="75.195312"/>
      <use xlink:href="#DejaVuSans-73" x="102.978516"/>
      <use xlink:href="#DejaVuSans-70" x="155.078125"/>
      <use xlink:href="#DejaVuSans-61" x="218.554688"/>
      <use xlink:href="#DejaVuSans-6e" x="279.833984"/>
      <use xlink:href="#DejaVuSans-69" x="343.212891"/>
      <use xlink:href="#DejaVuSans-63" x="370.996094"/>
     </g>
    </g>
   </g>
  </g>
  <g id="axes_3">
   <g id="patch_14">
    <path d="M 789.54 235.15 
L 1141.2 235.15 
L 1141.2 26.88 
L 789.54 26.88 
z
" style="fill: #ffffff"/>
   </g>
   <g id="PolyCollection_8"/>
   <g id="PolyCollection_9"/>
   <g id="matplotlib.axis_5">
    <g id="xtick_13">
     <g id="line2d_44">
      <g>
       <use xlink:href="#mdceb7fce77" x="805.524545" y="235.15" style="stroke: #000000; stroke-width: 0.8"/>
      </g>
     </g>
    </g>
    <g id="xtick_14">
     <g id="line2d_45">
      <g>
       <use xlink:href="#mdceb7fce77" x="869.462727" y="235.15" style="stroke: #000000; stroke-width: 0.8"/>
      </g>
     </g>
    </g>
    <g id="xtick_15">
     <g id="line2d_46">
      <g>
       <use xlink:href="#mdceb7fce77" x="933.400909" y="235.15" style="stroke: #000000; stroke-width: 0.8"/>
      </g>
     </g>
    </g>
    <g id="xtick_16">
     <g id="line2d_47">
      <g>
       <use xlink:href="#mdceb7fce77" x="997.339091" y="235.15" style="stroke: #000000; stroke-width: 0.8"/>
      </g>
     </g>
    </g>
    <g id="xtick_17">
     <g id="line2d_48">
      <g>
       <use xlink:href="#mdceb7fce77" x="1061.277273" y="235.15" style="stroke: #000000; stroke-width: 0.8"/>
      </g>
     </g>
    </g>
    <g id="xtick_18">
     <g id="line2d_49">
      <g>
       <use xlink:href="#mdceb7fce77" x="1125.215455" y="235.15" style="stroke: #000000; stroke-width: 0.8"/>
      </g>
     </g>
    </g>
   </g>
   <g id="matplotlib.axis_6">
    <g id="ytick_11">
     <g id="line2d_50">
      <g>
       <use xlink:href="#mc402196290" x="789.54" y="219.097569" style="stroke: #000000; stroke-width: 0.8"/>
      </g>
     </g>
    </g>
    <g id="ytick_12">
     <g id="line2d_51">
      <g>
       <use xlink:href="#mc402196290" x="789.54" y="177.114289" style="stroke: #000000; stroke-width: 0.8"/>
      </g>
     </g>
    </g>
    <g id="ytick_13">
     <g id="line2d_52">
      <g>
       <use xlink:href="#mc402196290" x="789.54" y="135.131008" style="stroke: #000000; stroke-width: 0.8"/>
      </g>
     </g>
    </g>
    <g id="ytick_14">
     <g id="line2d_53">
      <g>
       <use xlink:href="#mc402196290" x="789.54" y="93.147727" style="stroke: #000000; stroke-width: 0.8"/>
      </g>
     </g>
    </g>
    <g id="ytick_15">
     <g id="line2d_54">
      <g>
       <use xlink:href="#mc402196290" x="789.54" y="51.164447" style="stroke: #000000; stroke-width: 0.8"/>
      </g>
     </g>
    </g>
   </g>
   <g id="line2d_55">
    <path d="M 805.524545 79.003627 
L 816.180909 79.003627 
L 826.837273 78.041444 
L 837.493636 76.117076 
L 848.15 76.758532 
L 858.806364 77.07926 
L 869.462727 76.758532 
L 880.119091 77.07926 
L 890.775455 76.117076 
L 901.431818 76.117076 
L 912.088182 78.362172 
L 922.744545 79.003627 
L 933.400909 79.324355 
L 944.057273 79.645083 
L 954.713636 79.645083 
L 965.37 79.965811 
L 976.026364 80.286539 
L 986.682727 80.927995 
L 997.339091 81.890178 
L 1007.995455 80.607267 
L 1018.651818 79.965811 
L 1029.308182 80.607267 
L 1039.964545 81.56945 
L 1050.620909 83.493818 
L 1061.277273 83.814546 
L 1071.933636 84.456001 
L 1082.59 86.059641 
L 1093.246364 86.701097 
L 1103.902727 87.021825 
L 1114.559091 88.946192 
L 1125.215455 89.587648 
" clip-path="url(#p327c283f6c)" style="fill: none; stroke: #797979; stroke-width: 1.5; stroke-linecap: square"/>
   </g>
   <g id="line2d_56">
    <path d="M 805.524545 71.413366 
L 816.180909 70.631554 
L 826.837273 72.195178 
L 837.493636 72.976989 
L 848.15 73.758801 
L 858.806364 74.931518 
L 869.462727 75.71333 
L 880.119091 75.322424 
L 890.775455 75.71333 
L 901.431818 75.71333 
L 912.088182 77.667858 
L 922.744545 78.840576 
L 933.400909 79.231482 
L 944.057273 80.013293 
L 954.713636 80.013293 
L 965.37 82.358728 
L 976.026364 83.140539 
L 986.682727 84.313257 
L 997.339091 85.87688 
L 1007.995455 87.440503 
L 1018.651818 88.222314 
L 1029.308182 90.958655 
L 1039.964545 91.740466 
L 1050.620909 92.131372 
L 1061.277273 92.131372 
L 1071.933636 96.04043 
L 1082.59 97.604053 
L 1093.246364 99.167676 
L 1103.902727 99.949488 
L 1114.559091 100.340394 
L 1125.215455 103.076734 
" clip-path="url(#p327c283f6c)" style="fill: none; stroke: #d5bb67; stroke-width: 1.5; stroke-linecap: square"/>
   </g>
   <g id="line2d_57"/>
   <g id="line2d_58"/>
   <g id="patch_15">
    <path d="M 789.54 235.15 
L 789.54 26.88 
" style="fill: none; stroke: #000000; stroke-width: 0.8; stroke-linejoin: miter; stroke-linecap: square"/>
   </g>
   <g id="patch_16">
    <path d="M 1141.2 235.15 
L 1141.2 26.88 
" style="fill: none; stroke: #000000; stroke-width: 0.8; stroke-linejoin: miter; stroke-linecap: square"/>
   </g>
   <g id="patch_17">
    <path d="M 789.54 235.15 
L 1141.2 235.15 
" style="fill: none; stroke: #000000; stroke-width: 0.8; stroke-linejoin: miter; stroke-linecap: square"/>
   </g>
   <g id="patch_18">
    <path d="M 789.54 26.88 
L 1141.2 26.88 
" style="fill: none; stroke: #000000; stroke-width: 0.8; stroke-linejoin: miter; stroke-linecap: square"/>
   </g>
   <g id="text_16">
    <!-- Gender -->
    <g transform="translate(943.259062 20.88) scale(0.12 -0.12)">
     <defs>
      <path id="DejaVuSans-47" d="M 3809 666 
L 3809 1919 
L 2778 1919 
L 2778 2438 
L 4434 2438 
L 4434 434 
Q 4069 175 3628 42 
Q 3188 -91 2688 -91 
Q 1594 -91 976 548 
Q 359 1188 359 2328 
Q 359 3472 976 4111 
Q 1594 4750 2688 4750 
Q 3144 4750 3555 4637 
Q 3966 4525 4313 4306 
L 4313 3634 
Q 3963 3931 3569 4081 
Q 3175 4231 2741 4231 
Q 1884 4231 1454 3753 
Q 1025 3275 1025 2328 
Q 1025 1384 1454 906 
Q 1884 428 2741 428 
Q 3075 428 3337 486 
Q 3600 544 3809 666 
z
" transform="scale(0.015625)"/>
      <path id="DejaVuSans-64" d="M 2906 2969 
L 2906 4863 
L 3481 4863 
L 3481 0 
L 2906 0 
L 2906 525 
Q 2725 213 2448 61 
Q 2172 -91 1784 -91 
Q 1150 -91 751 415 
Q 353 922 353 1747 
Q 353 2572 751 3078 
Q 1150 3584 1784 3584 
Q 2172 3584 2448 3432 
Q 2725 3281 2906 2969 
z
M 947 1747 
Q 947 1113 1208 752 
Q 1469 391 1925 391 
Q 2381 391 2643 752 
Q 2906 1113 2906 1747 
Q 2906 2381 2643 2742 
Q 2381 3103 1925 3103 
Q 1469 3103 1208 2742 
Q 947 2381 947 1747 
z
" transform="scale(0.015625)"/>
     </defs>
     <use xlink:href="#DejaVuSans-47"/>
     <use xlink:href="#DejaVuSans-65" x="77.490234"/>
     <use xlink:href="#DejaVuSans-6e" x="139.013672"/>
     <use xlink:href="#DejaVuSans-64" x="202.392578"/>
     <use xlink:href="#DejaVuSans-65" x="265.869141"/>
     <use xlink:href="#DejaVuSans-72" x="327.392578"/>
    </g>
   </g>
   <g id="legend_3">
    <g id="patch_19">
     <path d="M 796.54 230.15 
L 864.694687 230.15 
Q 866.694687 230.15 866.694687 228.15 
L 866.694687 199.79375 
Q 866.694687 197.79375 864.694687 197.79375 
L 796.54 197.79375 
Q 794.54 197.79375 794.54 199.79375 
L 794.54 228.15 
Q 794.54 230.15 796.54 230.15 
z
" style="fill: #ffffff; opacity: 0.8; stroke: #cccccc; stroke-linejoin: miter"/>
    </g>
    <g id="line2d_59">
     <path d="M 798.54 205.892187 
L 808.54 205.892187 
L 818.54 205.892187 
" style="fill: none; stroke: #797979; stroke-width: 1.5; stroke-linecap: square"/>
    </g>
    <g id="text_17">
     <!-- Female -->
     <g transform="translate(826.54 209.392187) scale(0.1 -0.1)">
      <defs>
       <path id="DejaVuSans-46" d="M 628 4666 
L 3309 4666 
L 3309 4134 
L 1259 4134 
L 1259 2759 
L 3109 2759 
L 3109 2228 
L 1259 2228 
L 1259 0 
L 628 0 
L 628 4666 
z
" transform="scale(0.015625)"/>
       <path id="DejaVuSans-6c" d="M 603 4863 
L 1178 4863 
L 1178 0 
L 603 0 
L 603 4863 
z
" transform="scale(0.015625)"/>
      </defs>
      <use xlink:href="#DejaVuSans-46"/>
      <use xlink:href="#DejaVuSans-65" x="52.019531"/>
      <use xlink:href="#DejaVuSans-6d" x="113.542969"/>
      <use xlink:href="#DejaVuSans-61" x="210.955078"/>
      <use xlink:href="#DejaVuSans-6c" x="272.234375"/>
      <use xlink:href="#DejaVuSans-65" x="300.017578"/>
     </g>
    </g>
    <g id="line2d_60">
     <path d="M 798.54 220.570312 
L 808.54 220.570312 
L 818.54 220.570312 
" style="fill: none; stroke: #d5bb67; stroke-width: 1.5; stroke-linecap: square"/>
    </g>
    <g id="text_18">
     <!-- Male -->
     <g transform="translate(826.54 224.070312) scale(0.1 -0.1)">
      <defs>
       <path id="DejaVuSans-4d" d="M 628 4666 
L 1569 4666 
L 2759 1491 
L 3956 4666 
L 4897 4666 
L 4897 0 
L 4281 0 
L 4281 4097 
L 3078 897 
L 2444 897 
L 1241 4097 
L 1241 0 
L 628 0 
L 628 4666 
z
" transform="scale(0.015625)"/>
      </defs>
      <use xlink:href="#DejaVuSans-4d"/>
      <use xlink:href="#DejaVuSans-61" x="86.279297"/>
      <use xlink:href="#DejaVuSans-6c" x="147.558594"/>
      <use xlink:href="#DejaVuSans-65" x="175.341797"/>
     </g>
    </g>
   </g>
  </g>
  <g id="axes_4">
   <g id="patch_20">
    <path d="M 57.62 457.72 
L 409.28 457.72 
L 409.28 249.45 
L 57.62 249.45 
z
" style="fill: #ffffff"/>
   </g>
   <g id="PolyCollection_10"/>
   <g id="PolyCollection_11"/>
   <g id="PolyCollection_12"/>
   <g id="matplotlib.axis_7">
    <g id="xtick_19">
     <g id="line2d_61">
      <g>
       <use xlink:href="#mdceb7fce77" x="73.604545" y="457.72" style="stroke: #000000; stroke-width: 0.8"/>
      </g>
     </g>
     <g id="text_19">
      <!-- 0.0 -->
      <g transform="translate(65.652983 472.318438) scale(0.1 -0.1)">
       <use xlink:href="#DejaVuSans-30"/>
       <use xlink:href="#DejaVuSans-2e" x="63.623047"/>
       <use xlink:href="#DejaVuSans-30" x="95.410156"/>
      </g>
     </g>
    </g>
    <g id="xtick_20">
     <g id="line2d_62">
      <g>
       <use xlink:href="#mdceb7fce77" x="137.542727" y="457.72" style="stroke: #000000; stroke-width: 0.8"/>
      </g>
     </g>
     <g id="text_20">
      <!-- 0.2 -->
      <g transform="translate(129.591165 472.318438) scale(0.1 -0.1)">
       <defs>
        <path id="DejaVuSans-32" d="M 1228 531 
L 3431 531 
L 3431 0 
L 469 0 
L 469 531 
Q 828 903 1448 1529 
Q 2069 2156 2228 2338 
Q 2531 2678 2651 2914 
Q 2772 3150 2772 3378 
Q 2772 3750 2511 3984 
Q 2250 4219 1831 4219 
Q 1534 4219 1204 4116 
Q 875 4013 500 3803 
L 500 4441 
Q 881 4594 1212 4672 
Q 1544 4750 1819 4750 
Q 2544 4750 2975 4387 
Q 3406 4025 3406 3419 
Q 3406 3131 3298 2873 
Q 3191 2616 2906 2266 
Q 2828 2175 2409 1742 
Q 1991 1309 1228 531 
z
" transform="scale(0.015625)"/>
       </defs>
       <use xlink:href="#DejaVuSans-30"/>
       <use xlink:href="#DejaVuSans-2e" x="63.623047"/>
       <use xlink:href="#DejaVuSans-32" x="95.410156"/>
      </g>
     </g>
    </g>
    <g id="xtick_21">
     <g id="line2d_63">
      <g>
       <use xlink:href="#mdceb7fce77" x="201.480909" y="457.72" style="stroke: #000000; stroke-width: 0.8"/>
      </g>
     </g>
     <g id="text_21">
      <!-- 0.4 -->
      <g transform="translate(193.529347 472.318438) scale(0.1 -0.1)">
       <use xlink:href="#DejaVuSans-30"/>
       <use xlink:href="#DejaVuSans-2e" x="63.623047"/>
       <use xlink:href="#DejaVuSans-34" x="95.410156"/>
      </g>
     </g>
    </g>
    <g id="xtick_22">
     <g id="line2d_64">
      <g>
       <use xlink:href="#mdceb7fce77" x="265.419091" y="457.72" style="stroke: #000000; stroke-width: 0.8"/>
      </g>
     </g>
     <g id="text_22">
      <!-- 0.6 -->
      <g transform="translate(257.467528 472.318438) scale(0.1 -0.1)">
       <use xlink:href="#DejaVuSans-30"/>
       <use xlink:href="#DejaVuSans-2e" x="63.623047"/>
       <use xlink:href="#DejaVuSans-36" x="95.410156"/>
      </g>
     </g>
    </g>
    <g id="xtick_23">
     <g id="line2d_65">
      <g>
       <use xlink:href="#mdceb7fce77" x="329.357273" y="457.72" style="stroke: #000000; stroke-width: 0.8"/>
      </g>
     </g>
     <g id="text_23">
      <!-- 0.8 -->
      <g transform="translate(321.40571 472.318438) scale(0.1 -0.1)">
       <defs>
        <path id="DejaVuSans-38" d="M 2034 2216 
Q 1584 2216 1326 1975 
Q 1069 1734 1069 1313 
Q 1069 891 1326 650 
Q 1584 409 2034 409 
Q 2484 409 2743 651 
Q 3003 894 3003 1313 
Q 3003 1734 2745 1975 
Q 2488 2216 2034 2216 
z
M 1403 2484 
Q 997 2584 770 2862 
Q 544 3141 544 3541 
Q 544 4100 942 4425 
Q 1341 4750 2034 4750 
Q 2731 4750 3128 4425 
Q 3525 4100 3525 3541 
Q 3525 3141 3298 2862 
Q 3072 2584 2669 2484 
Q 3125 2378 3379 2068 
Q 3634 1759 3634 1313 
Q 3634 634 3220 271 
Q 2806 -91 2034 -91 
Q 1263 -91 848 271 
Q 434 634 434 1313 
Q 434 1759 690 2068 
Q 947 2378 1403 2484 
z
M 1172 3481 
Q 1172 3119 1398 2916 
Q 1625 2713 2034 2713 
Q 2441 2713 2670 2916 
Q 2900 3119 2900 3481 
Q 2900 3844 2670 4047 
Q 2441 4250 2034 4250 
Q 1625 4250 1398 4047 
Q 1172 3844 1172 3481 
z
" transform="scale(0.015625)"/>
       </defs>
       <use xlink:href="#DejaVuSans-30"/>
       <use xlink:href="#DejaVuSans-2e" x="63.623047"/>
       <use xlink:href="#DejaVuSans-38" x="95.410156"/>
      </g>
     </g>
    </g>
    <g id="xtick_24">
     <g id="line2d_66">
      <g>
       <use xlink:href="#mdceb7fce77" x="393.295455" y="457.72" style="stroke: #000000; stroke-width: 0.8"/>
      </g>
     </g>
     <g id="text_24">
      <!-- 1.0 -->
      <g transform="translate(385.343892 472.318438) scale(0.1 -0.1)">
       <use xlink:href="#DejaVuSans-31"/>
       <use xlink:href="#DejaVuSans-2e" x="63.623047"/>
       <use xlink:href="#DejaVuSans-30" x="95.410156"/>
      </g>
     </g>
    </g>
    <g id="text_25">
     <!-- lambda ($\lambda$) -->
     <g transform="translate(198.09 488.276094) scale(0.13 -0.13)">
      <defs>
       <path id="DejaVuSans-62" d="M 3116 1747 
Q 3116 2381 2855 2742 
Q 2594 3103 2138 3103 
Q 1681 3103 1420 2742 
Q 1159 2381 1159 1747 
Q 1159 1113 1420 752 
Q 1681 391 2138 391 
Q 2594 391 2855 752 
Q 3116 1113 3116 1747 
z
M 1159 2969 
Q 1341 3281 1617 3432 
Q 1894 3584 2278 3584 
Q 2916 3584 3314 3078 
Q 3713 2572 3713 1747 
Q 3713 922 3314 415 
Q 2916 -91 2278 -91 
Q 1894 -91 1617 61 
Q 1341 213 1159 525 
L 1159 0 
L 581 0 
L 581 4863 
L 1159 4863 
L 1159 2969 
z
" transform="scale(0.015625)"/>
       <path id="DejaVuSans-28" d="M 1984 4856 
Q 1566 4138 1362 3434 
Q 1159 2731 1159 2009 
Q 1159 1288 1364 580 
Q 1569 -128 1984 -844 
L 1484 -844 
Q 1016 -109 783 600 
Q 550 1309 550 2009 
Q 550 2706 781 3412 
Q 1013 4119 1484 4856 
L 1984 4856 
z
" transform="scale(0.015625)"/>
       <path id="DejaVuSans-Oblique-3bb" d="M 2350 4316 
L 3125 0 
L 2516 0 
L 2038 2588 
L 328 0 
L -281 0 
L 1903 3356 
L 1794 3975 
Q 1725 4369 1391 4369 
L 1091 4369 
L 1184 4863 
L 1550 4856 
Q 2253 4847 2350 4316 
z
" transform="scale(0.015625)"/>
      </defs>
      <use xlink:href="#DejaVuSans-6c" transform="translate(0 0.015625)"/>
      <use xlink:href="#DejaVuSans-61" transform="translate(27.783203 0.015625)"/>
      <use xlink:href="#DejaVuSans-6d" transform="translate(89.0625 0.015625)"/>
      <use xlink:href="#DejaVuSans-62" transform="translate(186.474609 0.015625)"/>
      <use xlink:href="#DejaVuSans-64" transform="translate(249.951172 0.015625)"/>
      <use xlink:href="#DejaVuSans-61" transform="translate(313.427734 0.015625)"/>
      <use xlink:href="#DejaVuSans-20" transform="translate(374.707031 0.015625)"/>
      <use xlink:href="#DejaVuSans-28" transform="translate(406.494141 0.015625)"/>
      <use xlink:href="#DejaVuSans-Oblique-3bb" transform="translate(445.507812 0.015625)"/>
      <use xlink:href="#DejaVuSans-29" transform="translate(504.6875 0.015625)"/>
     </g>
    </g>
   </g>
   <g id="matplotlib.axis_8">
    <g id="ytick_16">
     <g id="line2d_67">
      <g>
       <use xlink:href="#mc402196290" x="57.62" y="448.253182" style="stroke: #000000; stroke-width: 0.8"/>
      </g>
     </g>
     <g id="text_26">
      <!-- 0.20 -->
      <g transform="translate(28.354375 452.052401) scale(0.1 -0.1)">
       <use xlink:href="#DejaVuSans-30"/>
       <use xlink:href="#DejaVuSans-2e" x="63.623047"/>
       <use xlink:href="#DejaVuSans-32" x="95.410156"/>
       <use xlink:href="#DejaVuSans-30" x="159.033203"/>
      </g>
     </g>
    </g>
    <g id="ytick_17">
     <g id="line2d_68">
      <g>
       <use xlink:href="#mc402196290" x="57.62" y="414.684617" style="stroke: #000000; stroke-width: 0.8"/>
      </g>
     </g>
     <g id="text_27">
      <!-- 0.25 -->
      <g transform="translate(28.354375 418.483836) scale(0.1 -0.1)">
       <use xlink:href="#DejaVuSans-30"/>
       <use xlink:href="#DejaVuSans-2e" x="63.623047"/>
       <use xlink:href="#DejaVuSans-32" x="95.410156"/>
       <use xlink:href="#DejaVuSans-35" x="159.033203"/>
      </g>
     </g>
    </g>
    <g id="ytick_18">
     <g id="line2d_69">
      <g>
       <use xlink:href="#mc402196290" x="57.62" y="381.116053" style="stroke: #000000; stroke-width: 0.8"/>
      </g>
     </g>
     <g id="text_28">
      <!-- 0.30 -->
      <g transform="translate(28.354375 384.915272) scale(0.1 -0.1)">
       <use xlink:href="#DejaVuSans-30"/>
       <use xlink:href="#DejaVuSans-2e" x="63.623047"/>
       <use xlink:href="#DejaVuSans-33" x="95.410156"/>
       <use xlink:href="#DejaVuSans-30" x="159.033203"/>
      </g>
     </g>
    </g>
    <g id="ytick_19">
     <g id="line2d_70">
      <g>
       <use xlink:href="#mc402196290" x="57.62" y="347.547488" style="stroke: #000000; stroke-width: 0.8"/>
      </g>
     </g>
     <g id="text_29">
      <!-- 0.35 -->
      <g transform="translate(28.354375 351.346707) scale(0.1 -0.1)">
       <use xlink:href="#DejaVuSans-30"/>
       <use xlink:href="#DejaVuSans-2e" x="63.623047"/>
       <use xlink:href="#DejaVuSans-33" x="95.410156"/>
       <use xlink:href="#DejaVuSans-35" x="159.033203"/>
      </g>
     </g>
    </g>
    <g id="ytick_20">
     <g id="line2d_71">
      <g>
       <use xlink:href="#mc402196290" x="57.62" y="313.978924" style="stroke: #000000; stroke-width: 0.8"/>
      </g>
     </g>
     <g id="text_30">
      <!-- 0.40 -->
      <g transform="translate(28.354375 317.778143) scale(0.1 -0.1)">
       <use xlink:href="#DejaVuSans-30"/>
       <use xlink:href="#DejaVuSans-2e" x="63.623047"/>
       <use xlink:href="#DejaVuSans-34" x="95.410156"/>
       <use xlink:href="#DejaVuSans-30" x="159.033203"/>
      </g>
     </g>
    </g>
    <g id="ytick_21">
     <g id="line2d_72">
      <g>
       <use xlink:href="#mc402196290" x="57.62" y="280.410359" style="stroke: #000000; stroke-width: 0.8"/>
      </g>
     </g>
     <g id="text_31">
      <!-- 0.45 -->
      <g transform="translate(28.354375 284.209578) scale(0.1 -0.1)">
       <use xlink:href="#DejaVuSans-30"/>
       <use xlink:href="#DejaVuSans-2e" x="63.623047"/>
       <use xlink:href="#DejaVuSans-34" x="95.410156"/>
       <use xlink:href="#DejaVuSans-35" x="159.033203"/>
      </g>
     </g>
    </g>
    <g id="text_32">
     <!-- False Positive Rate -->
     <g transform="translate(21.442812 418.637969) rotate(-90) scale(0.14 -0.14)">
      <use xlink:href="#DejaVuSans-46"/>
      <use xlink:href="#DejaVuSans-61" x="48.394531"/>
      <use xlink:href="#DejaVuSans-6c" x="109.673828"/>
      <use xlink:href="#DejaVuSans-73" x="137.457031"/>
      <use xlink:href="#DejaVuSans-65" x="189.556641"/>
      <use xlink:href="#DejaVuSans-20" x="251.080078"/>
      <use xlink:href="#DejaVuSans-50" x="282.867188"/>
      <use xlink:href="#DejaVuSans-6f" x="339.544922"/>
      <use xlink:href="#DejaVuSans-73" x="400.726562"/>
      <use xlink:href="#DejaVuSans-69" x="452.826172"/>
      <use xlink:href="#DejaVuSans-74" x="480.609375"/>
      <use xlink:href="#DejaVuSans-69" x="519.818359"/>
      <use xlink:href="#DejaVuSans-76" x="547.601562"/>
      <use xlink:href="#DejaVuSans-65" x="606.78125"/>
      <use xlink:href="#DejaVuSans-20" x="668.304688"/>
      <use xlink:href="#DejaVuSans-52" x="700.091797"/>
      <use xlink:href="#DejaVuSans-61" x="767.324219"/>
      <use xlink:href="#DejaVuSans-74" x="828.603516"/>
      <use xlink:href="#DejaVuSans-65" x="867.8125"/>
     </g>
    </g>
   </g>
   <g id="line2d_73">
    <path d="M 73.604545 304.387906 
L 84.260909 307.584912 
L 94.917273 307.584912 
L 105.573636 310.781918 
L 116.23 310.781918 
L 126.886364 313.978924 
L 137.542727 320.372936 
L 148.199091 323.569942 
L 158.855455 323.569942 
L 169.511818 323.569942 
L 180.168182 323.569942 
L 190.824545 326.766948 
L 201.480909 333.160961 
L 212.137273 342.751979 
L 222.793636 349.145991 
L 233.45 349.145991 
L 244.106364 355.540004 
L 254.762727 358.73701 
L 265.419091 361.934016 
L 276.075455 377.919047 
L 286.731818 381.116053 
L 297.388182 387.510065 
L 308.044545 393.904077 
L 318.700909 403.495096 
L 329.357273 406.692102 
L 340.013636 413.086114 
L 350.67 413.086114 
L 361.326364 425.874139 
L 371.982727 432.268151 
L 382.639091 441.85917 
L 393.295455 448.253182 
" clip-path="url(#p02c0c84ddd)" style="fill: none; stroke: #4878d0; stroke-width: 1.5; stroke-linecap: square"/>
   </g>
   <g id="line2d_74">
    <path d="M 73.604545 308.170336 
L 84.260909 310.144128 
L 94.917273 311.83595 
L 105.573636 314.091712 
L 116.23 316.347474 
L 126.886364 317.757326 
L 137.542727 320.577029 
L 148.199091 322.832791 
L 158.855455 323.678702 
L 169.511818 325.370524 
L 180.168182 327.908257 
L 190.824545 328.754168 
L 201.480909 331.855841 
L 212.137273 334.393574 
L 222.793636 336.085396 
L 233.45 339.187069 
L 244.106364 341.160861 
L 254.762727 343.416623 
L 265.419091 347.646178 
L 276.075455 349.61997 
L 286.731818 351.593762 
L 297.388182 353.849525 
L 308.044545 356.387257 
L 318.700909 359.20696 
L 329.357273 360.616812 
L 340.013636 363.718485 
L 350.67 366.820159 
L 361.326364 368.23001 
L 371.982727 369.921832 
L 382.639091 372.177594 
L 393.295455 376.125179 
" clip-path="url(#p02c0c84ddd)" style="fill: none; stroke: #ee854a; stroke-width: 1.5; stroke-linecap: square"/>
   </g>
   <g id="line2d_75">
    <path d="M 73.604545 315.277078 
L 84.260909 314.853767 
L 94.917273 315.418181 
L 105.573636 313.724937 
L 116.23 313.160523 
L 126.886364 312.878315 
L 137.542727 312.596108 
L 148.199091 310.902864 
L 158.855455 311.043967 
L 169.511818 310.902864 
L 180.168182 310.479553 
L 190.824545 309.915138 
L 201.480909 309.632931 
L 212.137273 309.068516 
L 222.793636 308.786309 
L 233.45 308.645205 
L 244.106364 308.362998 
L 254.762727 307.798583 
L 265.419091 307.516376 
L 276.075455 307.093065 
L 286.731818 306.810857 
L 297.388182 306.387546 
L 308.044545 305.964235 
L 318.700909 305.540924 
L 329.357273 305.117613 
L 340.013636 304.270991 
L 350.67 304.412095 
L 361.326364 304.412095 
L 371.982727 304.412095 
L 382.639091 304.553198 
L 393.295455 304.553198 
" clip-path="url(#p02c0c84ddd)" style="fill: none; stroke: #6acc64; stroke-width: 1.5; stroke-linecap: square"/>
   </g>
   <g id="line2d_76"/>
   <g id="line2d_77"/>
   <g id="line2d_78"/>
   <g id="patch_21">
    <path d="M 57.62 457.72 
L 57.62 249.45 
" style="fill: none; stroke: #000000; stroke-width: 0.8; stroke-linejoin: miter; stroke-linecap: square"/>
   </g>
   <g id="patch_22">
    <path d="M 409.28 457.72 
L 409.28 249.45 
" style="fill: none; stroke: #000000; stroke-width: 0.8; stroke-linejoin: miter; stroke-linecap: square"/>
   </g>
   <g id="patch_23">
    <path d="M 57.62 457.72 
L 409.28 457.72 
" style="fill: none; stroke: #000000; stroke-width: 0.8; stroke-linejoin: miter; stroke-linecap: square"/>
   </g>
   <g id="patch_24">
    <path d="M 57.62 249.45 
L 409.28 249.45 
" style="fill: none; stroke: #000000; stroke-width: 0.8; stroke-linejoin: miter; stroke-linecap: square"/>
   </g>
   <g id="legend_4">
    <g id="patch_25">
     <path d="M 64.62 452.72 
L 139.843437 452.72 
Q 141.843437 452.72 141.843437 450.72 
L 141.843437 407.685625 
Q 141.843437 405.685625 139.843437 405.685625 
L 64.62 405.685625 
Q 62.62 405.685625 62.62 407.685625 
L 62.62 450.72 
Q 62.62 452.72 64.62 452.72 
z
" style="fill: #ffffff; opacity: 0.8; stroke: #cccccc; stroke-linejoin: miter"/>
    </g>
    <g id="line2d_79">
     <path d="M 66.62 413.784063 
L 76.62 413.784063 
L 86.62 413.784063 
" style="fill: none; stroke: #4878d0; stroke-width: 1.5; stroke-linecap: square"/>
    </g>
    <g id="text_33">
     <!-- [0-30) -->
     <g transform="translate(94.62 417.284063) scale(0.1 -0.1)">
      <use xlink:href="#DejaVuSans-5b"/>
      <use xlink:href="#DejaVuSans-30" x="39.013672"/>
      <use xlink:href="#DejaVuSans-2d" x="102.636719"/>
      <use xlink:href="#DejaVuSans-33" x="138.720703"/>
      <use xlink:href="#DejaVuSans-30" x="202.34375"/>
      <use xlink:href="#DejaVuSans-29" x="265.966797"/>
     </g>
    </g>
    <g id="line2d_80">
     <path d="M 66.62 428.462188 
L 76.62 428.462188 
L 86.62 428.462188 
" style="fill: none; stroke: #ee854a; stroke-width: 1.5; stroke-linecap: square"/>
    </g>
    <g id="text_34">
     <!-- [30-60) -->
     <g transform="translate(94.62 431.962188) scale(0.1 -0.1)">
      <use xlink:href="#DejaVuSans-5b"/>
      <use xlink:href="#DejaVuSans-33" x="39.013672"/>
      <use xlink:href="#DejaVuSans-30" x="102.636719"/>
      <use xlink:href="#DejaVuSans-2d" x="166.259766"/>
      <use xlink:href="#DejaVuSans-36" x="202.34375"/>
      <use xlink:href="#DejaVuSans-30" x="265.966797"/>
      <use xlink:href="#DejaVuSans-29" x="329.589844"/>
     </g>
    </g>
    <g id="line2d_81">
     <path d="M 66.62 443.140313 
L 76.62 443.140313 
L 86.62 443.140313 
" style="fill: none; stroke: #6acc64; stroke-width: 1.5; stroke-linecap: square"/>
    </g>
    <g id="text_35">
     <!-- [60-100) -->
     <g transform="translate(94.62 446.640313) scale(0.1 -0.1)">
      <use xlink:href="#DejaVuSans-5b"/>
      <use xlink:href="#DejaVuSans-36" x="39.013672"/>
      <use xlink:href="#DejaVuSans-30" x="102.636719"/>
      <use xlink:href="#DejaVuSans-2d" x="166.259766"/>
      <use xlink:href="#DejaVuSans-31" x="202.34375"/>
      <use xlink:href="#DejaVuSans-30" x="265.966797"/>
      <use xlink:href="#DejaVuSans-30" x="329.589844"/>
      <use xlink:href="#DejaVuSans-29" x="393.212891"/>
     </g>
    </g>
   </g>
  </g>
  <g id="axes_5">
   <g id="patch_26">
    <path d="M 423.58 457.72 
L 775.24 457.72 
L 775.24 249.45 
L 423.58 249.45 
z
" style="fill: #ffffff"/>
   </g>
   <g id="PolyCollection_13"/>
   <g id="PolyCollection_14"/>
   <g id="PolyCollection_15"/>
   <g id="PolyCollection_16"/>
   <g id="matplotlib.axis_9">
    <g id="xtick_25">
     <g id="line2d_82">
      <g>
       <use xlink:href="#mdceb7fce77" x="439.564545" y="457.72" style="stroke: #000000; stroke-width: 0.8"/>
      </g>
     </g>
     <g id="text_36">
      <!-- 0.0 -->
      <g transform="translate(431.612983 472.318438) scale(0.1 -0.1)">
       <use xlink:href="#DejaVuSans-30"/>
       <use xlink:href="#DejaVuSans-2e" x="63.623047"/>
       <use xlink:href="#DejaVuSans-30" x="95.410156"/>
      </g>
     </g>
    </g>
    <g id="xtick_26">
     <g id="line2d_83">
      <g>
       <use xlink:href="#mdceb7fce77" x="503.502727" y="457.72" style="stroke: #000000; stroke-width: 0.8"/>
      </g>
     </g>
     <g id="text_37">
      <!-- 0.2 -->
      <g transform="translate(495.551165 472.318438) scale(0.1 -0.1)">
       <use xlink:href="#DejaVuSans-30"/>
       <use xlink:href="#DejaVuSans-2e" x="63.623047"/>
       <use xlink:href="#DejaVuSans-32" x="95.410156"/>
      </g>
     </g>
    </g>
    <g id="xtick_27">
     <g id="line2d_84">
      <g>
       <use xlink:href="#mdceb7fce77" x="567.440909" y="457.72" style="stroke: #000000; stroke-width: 0.8"/>
      </g>
     </g>
     <g id="text_38">
      <!-- 0.4 -->
      <g transform="translate(559.489347 472.318438) scale(0.1 -0.1)">
       <use xlink:href="#DejaVuSans-30"/>
       <use xlink:href="#DejaVuSans-2e" x="63.623047"/>
       <use xlink:href="#DejaVuSans-34" x="95.410156"/>
      </g>
     </g>
    </g>
    <g id="xtick_28">
     <g id="line2d_85">
      <g>
       <use xlink:href="#mdceb7fce77" x="631.379091" y="457.72" style="stroke: #000000; stroke-width: 0.8"/>
      </g>
     </g>
     <g id="text_39">
      <!-- 0.6 -->
      <g transform="translate(623.427528 472.318438) scale(0.1 -0.1)">
       <use xlink:href="#DejaVuSans-30"/>
       <use xlink:href="#DejaVuSans-2e" x="63.623047"/>
       <use xlink:href="#DejaVuSans-36" x="95.410156"/>
      </g>
     </g>
    </g>
    <g id="xtick_29">
     <g id="line2d_86">
      <g>
       <use xlink:href="#mdceb7fce77" x="695.317273" y="457.72" style="stroke: #000000; stroke-width: 0.8"/>
      </g>
     </g>
     <g id="text_40">
      <!-- 0.8 -->
      <g transform="translate(687.36571 472.318438) scale(0.1 -0.1)">
       <use xlink:href="#DejaVuSans-30"/>
       <use xlink:href="#DejaVuSans-2e" x="63.623047"/>
       <use xlink:href="#DejaVuSans-38" x="95.410156"/>
      </g>
     </g>
    </g>
    <g id="xtick_30">
     <g id="line2d_87">
      <g>
       <use xlink:href="#mdceb7fce77" x="759.255455" y="457.72" style="stroke: #000000; stroke-width: 0.8"/>
      </g>
     </g>
     <g id="text_41">
      <!-- 1.0 -->
      <g transform="translate(751.303892 472.318438) scale(0.1 -0.1)">
       <use xlink:href="#DejaVuSans-31"/>
       <use xlink:href="#DejaVuSans-2e" x="63.623047"/>
       <use xlink:href="#DejaVuSans-30" x="95.410156"/>
      </g>
     </g>
    </g>
    <g id="text_42">
     <!-- lambda ($\lambda$) -->
     <g transform="translate(564.05 488.276094) scale(0.13 -0.13)">
      <use xlink:href="#DejaVuSans-6c" transform="translate(0 0.015625)"/>
      <use xlink:href="#DejaVuSans-61" transform="translate(27.783203 0.015625)"/>
      <use xlink:href="#DejaVuSans-6d" transform="translate(89.0625 0.015625)"/>
      <use xlink:href="#DejaVuSans-62" transform="translate(186.474609 0.015625)"/>
      <use xlink:href="#DejaVuSans-64" transform="translate(249.951172 0.015625)"/>
      <use xlink:href="#DejaVuSans-61" transform="translate(313.427734 0.015625)"/>
      <use xlink:href="#DejaVuSans-20" transform="translate(374.707031 0.015625)"/>
      <use xlink:href="#DejaVuSans-28" transform="translate(406.494141 0.015625)"/>
      <use xlink:href="#DejaVuSans-Oblique-3bb" transform="translate(445.507812 0.015625)"/>
      <use xlink:href="#DejaVuSans-29" transform="translate(504.6875 0.015625)"/>
     </g>
    </g>
   </g>
   <g id="matplotlib.axis_10">
    <g id="ytick_22">
     <g id="line2d_88">
      <g>
       <use xlink:href="#mc402196290" x="423.58" y="448.253182" style="stroke: #000000; stroke-width: 0.8"/>
      </g>
     </g>
    </g>
    <g id="ytick_23">
     <g id="line2d_89">
      <g>
       <use xlink:href="#mc402196290" x="423.58" y="414.684617" style="stroke: #000000; stroke-width: 0.8"/>
      </g>
     </g>
    </g>
    <g id="ytick_24">
     <g id="line2d_90">
      <g>
       <use xlink:href="#mc402196290" x="423.58" y="381.116053" style="stroke: #000000; stroke-width: 0.8"/>
      </g>
     </g>
    </g>
    <g id="ytick_25">
     <g id="line2d_91">
      <g>
       <use xlink:href="#mc402196290" x="423.58" y="347.547488" style="stroke: #000000; stroke-width: 0.8"/>
      </g>
     </g>
    </g>
    <g id="ytick_26">
     <g id="line2d_92">
      <g>
       <use xlink:href="#mc402196290" x="423.58" y="313.978924" style="stroke: #000000; stroke-width: 0.8"/>
      </g>
     </g>
    </g>
    <g id="ytick_27">
     <g id="line2d_93">
      <g>
       <use xlink:href="#mc402196290" x="423.58" y="280.410359" style="stroke: #000000; stroke-width: 0.8"/>
      </g>
     </g>
    </g>
   </g>
   <g id="line2d_94">
    <path d="M 439.564545 307.174485 
L 450.220909 309.896261 
L 460.877273 310.803519 
L 471.533636 311.710778 
L 482.19 313.525295 
L 492.846364 314.886182 
L 503.502727 316.24707 
L 514.159091 317.607958 
L 524.815455 318.968846 
L 535.471818 321.236992 
L 546.128182 325.319655 
L 556.784545 325.773284 
L 567.440909 327.134172 
L 578.097273 328.49506 
L 588.753636 328.49506 
L 599.41 330.309577 
L 610.066364 333.484982 
L 620.722727 334.39224 
L 631.379091 336.660386 
L 642.035455 339.382162 
L 652.691818 341.650308 
L 663.348182 342.103937 
L 674.004545 343.918454 
L 684.660909 344.825713 
L 695.317273 345.732971 
L 705.973636 345.732971 
L 716.63 349.815635 
L 727.286364 352.53741 
L 737.942727 354.351927 
L 748.599091 355.712815 
L 759.255455 359.341849 
" clip-path="url(#p991ed9d38d)" style="fill: none; stroke: #d65f5f; stroke-width: 1.5; stroke-linecap: square"/>
   </g>
   <g id="line2d_95">
    <path d="M 439.564545 300.356898 
L 450.220909 300.356898 
L 460.877273 300.356898 
L 471.533636 310.086916 
L 482.19 310.086916 
L 492.846364 310.086916 
L 503.502727 300.356898 
L 514.159091 300.356898 
L 524.815455 300.356898 
L 535.471818 300.356898 
L 546.128182 310.086916 
L 556.784545 310.086916 
L 567.440909 310.086916 
L 578.097273 310.086916 
L 588.753636 310.086916 
L 599.41 319.816935 
L 610.066364 319.816935 
L 620.722727 310.086916 
L 631.379091 310.086916 
L 642.035455 310.086916 
L 652.691818 310.086916 
L 663.348182 310.086916 
L 674.004545 310.086916 
L 684.660909 310.086916 
L 695.317273 310.086916 
L 705.973636 300.356898 
L 716.63 300.356898 
L 727.286364 300.356898 
L 737.942727 300.356898 
L 748.599091 300.356898 
L 759.255455 310.086916 
" clip-path="url(#p991ed9d38d)" style="fill: none; stroke: #956cb4; stroke-width: 1.5; stroke-linecap: square"/>
   </g>
   <g id="line2d_96">
    <path d="M 439.564545 315.568109 
L 450.220909 315.449513 
L 460.877273 316.39828 
L 471.533636 315.568109 
L 482.19 315.568109 
L 492.846364 315.686705 
L 503.502727 316.516876 
L 514.159091 315.805301 
L 524.815455 315.923896 
L 535.471818 315.923896 
L 546.128182 315.449513 
L 556.784545 315.449513 
L 567.440909 316.39828 
L 578.097273 316.991259 
L 588.753636 317.702835 
L 599.41 318.058622 
L 610.066364 317.940026 
L 620.722727 318.295814 
L 631.379091 319.363177 
L 642.035455 319.837561 
L 652.691818 319.956156 
L 663.348182 320.549136 
L 674.004545 320.904923 
L 684.660909 321.853691 
L 695.317273 321.972286 
L 705.973636 322.802458 
L 716.63 322.802458 
L 727.286364 323.158245 
L 737.942727 323.632629 
L 748.599091 324.581396 
L 759.255455 325.411567 
" clip-path="url(#p991ed9d38d)" style="fill: none; stroke: #8c613c; stroke-width: 1.5; stroke-linecap: square"/>
   </g>
   <g id="line2d_97">
    <path d="M 439.564545 258.916818 
L 450.220909 258.916818 
L 460.877273 258.916818 
L 471.533636 263.746827 
L 482.19 263.746827 
L 492.846364 263.746827 
L 503.502727 268.576837 
L 514.159091 268.576837 
L 524.815455 268.576837 
L 535.471818 268.576837 
L 546.128182 268.576837 
L 556.784545 263.746827 
L 567.440909 263.746827 
L 578.097273 263.746827 
L 588.753636 263.746827 
L 599.41 273.406846 
L 610.066364 278.236855 
L 620.722727 283.066865 
L 631.379091 283.066865 
L 642.035455 278.236855 
L 652.691818 278.236855 
L 663.348182 283.066865 
L 674.004545 287.896874 
L 684.660909 287.896874 
L 695.317273 287.896874 
L 705.973636 292.726883 
L 716.63 307.216911 
L 727.286364 307.216911 
L 737.942727 307.216911 
L 748.599091 312.04692 
L 759.255455 312.04692 
" clip-path="url(#p991ed9d38d)" style="fill: none; stroke: #dc7ec0; stroke-width: 1.5; stroke-linecap: square"/>
   </g>
   <g id="line2d_98"/>
   <g id="line2d_99"/>
   <g id="line2d_100"/>
   <g id="line2d_101"/>
   <g id="patch_27">
    <path d="M 423.58 457.72 
L 423.58 249.45 
" style="fill: none; stroke: #000000; stroke-width: 0.8; stroke-linejoin: miter; stroke-linecap: square"/>
   </g>
   <g id="patch_28">
    <path d="M 775.24 457.72 
L 775.24 249.45 
" style="fill: none; stroke: #000000; stroke-width: 0.8; stroke-linejoin: miter; stroke-linecap: square"/>
   </g>
   <g id="patch_29">
    <path d="M 423.58 457.72 
L 775.24 457.72 
" style="fill: none; stroke: #000000; stroke-width: 0.8; stroke-linejoin: miter; stroke-linecap: square"/>
   </g>
   <g id="patch_30">
    <path d="M 423.58 249.45 
L 775.24 249.45 
" style="fill: none; stroke: #000000; stroke-width: 0.8; stroke-linejoin: miter; stroke-linecap: square"/>
   </g>
   <g id="legend_5">
    <g id="patch_31">
     <path d="M 430.58 452.72 
L 545.019063 452.72 
Q 547.019063 452.72 547.019063 450.72 
L 547.019063 393.0075 
Q 547.019063 391.0075 545.019063 391.0075 
L 430.58 391.0075 
Q 428.58 391.0075 428.58 393.0075 
L 428.58 450.72 
Q 428.58 452.72 430.58 452.72 
z
" style="fill: #ffffff; opacity: 0.8; stroke: #cccccc; stroke-linejoin: miter"/>
    </g>
    <g id="line2d_102">
     <path d="M 432.58 399.105938 
L 442.58 399.105938 
L 452.58 399.105938 
" style="fill: none; stroke: #d65f5f; stroke-width: 1.5; stroke-linecap: square"/>
    </g>
    <g id="text_43">
     <!-- AfricanAmerican -->
     <g transform="translate(460.58 402.605938) scale(0.1 -0.1)">
      <use xlink:href="#DejaVuSans-41"/>
      <use xlink:href="#DejaVuSans-66" x="64.783203"/>
      <use xlink:href="#DejaVuSans-72" x="99.988281"/>
      <use xlink:href="#DejaVuSans-69" x="141.101562"/>
      <use xlink:href="#DejaVuSans-63" x="168.884766"/>
      <use xlink:href="#DejaVuSans-61" x="223.865234"/>
      <use xlink:href="#DejaVuSans-6e" x="285.144531"/>
      <use xlink:href="#DejaVuSans-41" x="348.523438"/>
      <use xlink:href="#DejaVuSans-6d" x="416.931641"/>
      <use xlink:href="#DejaVuSans-65" x="514.34375"/>
      <use xlink:href="#DejaVuSans-72" x="575.867188"/>
      <use xlink:href="#DejaVuSans-69" x="616.980469"/>
      <use xlink:href="#DejaVuSans-63" x="644.763672"/>
      <use xlink:href="#DejaVuSans-61" x="699.744141"/>
      <use xlink:href="#DejaVuSans-6e" x="761.023438"/>
     </g>
    </g>
    <g id="line2d_103">
     <path d="M 432.58 413.784063 
L 442.58 413.784063 
L 452.58 413.784063 
" style="fill: none; stroke: #956cb4; stroke-width: 1.5; stroke-linecap: square"/>
    </g>
    <g id="text_44">
     <!-- Asian -->
     <g transform="translate(460.58 417.284063) scale(0.1 -0.1)">
      <use xlink:href="#DejaVuSans-41"/>
      <use xlink:href="#DejaVuSans-73" x="68.408203"/>
      <use xlink:href="#DejaVuSans-69" x="120.507812"/>
      <use xlink:href="#DejaVuSans-61" x="148.291016"/>
      <use xlink:href="#DejaVuSans-6e" x="209.570312"/>
     </g>
    </g>
    <g id="line2d_104">
     <path d="M 432.58 428.462188 
L 442.58 428.462188 
L 452.58 428.462188 
" style="fill: none; stroke: #8c613c; stroke-width: 1.5; stroke-linecap: square"/>
    </g>
    <g id="text_45">
     <!-- Caucasian -->
     <g transform="translate(460.58 431.962188) scale(0.1 -0.1)">
      <use xlink:href="#DejaVuSans-43"/>
      <use xlink:href="#DejaVuSans-61" x="69.824219"/>
      <use xlink:href="#DejaVuSans-75" x="131.103516"/>
      <use xlink:href="#DejaVuSans-63" x="194.482422"/>
      <use xlink:href="#DejaVuSans-61" x="249.462891"/>
      <use xlink:href="#DejaVuSans-73" x="310.742188"/>
      <use xlink:href="#DejaVuSans-69" x="362.841797"/>
      <use xlink:href="#DejaVuSans-61" x="390.625"/>
      <use xlink:href="#DejaVuSans-6e" x="451.904297"/>
     </g>
    </g>
    <g id="line2d_105">
     <path d="M 432.58 443.140313 
L 442.58 443.140313 
L 452.58 443.140313 
" style="fill: none; stroke: #dc7ec0; stroke-width: 1.5; stroke-linecap: square"/>
    </g>
    <g id="text_46">
     <!-- Hispanic -->
     <g transform="translate(460.58 446.640313) scale(0.1 -0.1)">
      <use xlink:href="#DejaVuSans-48"/>
      <use xlink:href="#DejaVuSans-69" x="75.195312"/>
      <use xlink:href="#DejaVuSans-73" x="102.978516"/>
      <use xlink:href="#DejaVuSans-70" x="155.078125"/>
      <use xlink:href="#DejaVuSans-61" x="218.554688"/>
      <use xlink:href="#DejaVuSans-6e" x="279.833984"/>
      <use xlink:href="#DejaVuSans-69" x="343.212891"/>
      <use xlink:href="#DejaVuSans-63" x="370.996094"/>
     </g>
    </g>
   </g>
  </g>
  <g id="axes_6">
   <g id="patch_32">
    <path d="M 789.54 457.72 
L 1141.2 457.72 
L 1141.2 249.45 
L 789.54 249.45 
z
" style="fill: #ffffff"/>
   </g>
   <g id="PolyCollection_17"/>
   <g id="PolyCollection_18"/>
   <g id="matplotlib.axis_11">
    <g id="xtick_31">
     <g id="line2d_106">
      <g>
       <use xlink:href="#mdceb7fce77" x="805.524545" y="457.72" style="stroke: #000000; stroke-width: 0.8"/>
      </g>
     </g>
     <g id="text_47">
      <!-- 0.0 -->
      <g transform="translate(797.572983 472.318438) scale(0.1 -0.1)">
       <use xlink:href="#DejaVuSans-30"/>
       <use xlink:href="#DejaVuSans-2e" x="63.623047"/>
       <use xlink:href="#DejaVuSans-30" x="95.410156"/>
      </g>
     </g>
    </g>
    <g id="xtick_32">
     <g id="line2d_107">
      <g>
       <use xlink:href="#mdceb7fce77" x="869.462727" y="457.72" style="stroke: #000000; stroke-width: 0.8"/>
      </g>
     </g>
     <g id="text_48">
      <!-- 0.2 -->
      <g transform="translate(861.511165 472.318438) scale(0.1 -0.1)">
       <use xlink:href="#DejaVuSans-30"/>
       <use xlink:href="#DejaVuSans-2e" x="63.623047"/>
       <use xlink:href="#DejaVuSans-32" x="95.410156"/>
      </g>
     </g>
    </g>
    <g id="xtick_33">
     <g id="line2d_108">
      <g>
       <use xlink:href="#mdceb7fce77" x="933.400909" y="457.72" style="stroke: #000000; stroke-width: 0.8"/>
      </g>
     </g>
     <g id="text_49">
      <!-- 0.4 -->
      <g transform="translate(925.449347 472.318438) scale(0.1 -0.1)">
       <use xlink:href="#DejaVuSans-30"/>
       <use xlink:href="#DejaVuSans-2e" x="63.623047"/>
       <use xlink:href="#DejaVuSans-34" x="95.410156"/>
      </g>
     </g>
    </g>
    <g id="xtick_34">
     <g id="line2d_109">
      <g>
       <use xlink:href="#mdceb7fce77" x="997.339091" y="457.72" style="stroke: #000000; stroke-width: 0.8"/>
      </g>
     </g>
     <g id="text_50">
      <!-- 0.6 -->
      <g transform="translate(989.387528 472.318438) scale(0.1 -0.1)">
       <use xlink:href="#DejaVuSans-30"/>
       <use xlink:href="#DejaVuSans-2e" x="63.623047"/>
       <use xlink:href="#DejaVuSans-36" x="95.410156"/>
      </g>
     </g>
    </g>
    <g id="xtick_35">
     <g id="line2d_110">
      <g>
       <use xlink:href="#mdceb7fce77" x="1061.277273" y="457.72" style="stroke: #000000; stroke-width: 0.8"/>
      </g>
     </g>
     <g id="text_51">
      <!-- 0.8 -->
      <g transform="translate(1053.32571 472.318438) scale(0.1 -0.1)">
       <use xlink:href="#DejaVuSans-30"/>
       <use xlink:href="#DejaVuSans-2e" x="63.623047"/>
       <use xlink:href="#DejaVuSans-38" x="95.410156"/>
      </g>
     </g>
    </g>
    <g id="xtick_36">
     <g id="line2d_111">
      <g>
       <use xlink:href="#mdceb7fce77" x="1125.215455" y="457.72" style="stroke: #000000; stroke-width: 0.8"/>
      </g>
     </g>
     <g id="text_52">
      <!-- 1.0 -->
      <g transform="translate(1117.263892 472.318438) scale(0.1 -0.1)">
       <use xlink:href="#DejaVuSans-31"/>
       <use xlink:href="#DejaVuSans-2e" x="63.623047"/>
       <use xlink:href="#DejaVuSans-30" x="95.410156"/>
      </g>
     </g>
    </g>
    <g id="text_53">
     <!-- lambda ($\lambda$) -->
     <g transform="translate(930.01 488.276094) scale(0.13 -0.13)">
      <use xlink:href="#DejaVuSans-6c" transform="translate(0 0.015625)"/>
      <use xlink:href="#DejaVuSans-61" transform="translate(27.783203 0.015625)"/>
      <use xlink:href="#DejaVuSans-6d" transform="translate(89.0625 0.015625)"/>
      <use xlink:href="#DejaVuSans-62" transform="translate(186.474609 0.015625)"/>
      <use xlink:href="#DejaVuSans-64" transform="translate(249.951172 0.015625)"/>
      <use xlink:href="#DejaVuSans-61" transform="translate(313.427734 0.015625)"/>
      <use xlink:href="#DejaVuSans-20" transform="translate(374.707031 0.015625)"/>
      <use xlink:href="#DejaVuSans-28" transform="translate(406.494141 0.015625)"/>
      <use xlink:href="#DejaVuSans-Oblique-3bb" transform="translate(445.507812 0.015625)"/>
      <use xlink:href="#DejaVuSans-29" transform="translate(504.6875 0.015625)"/>
     </g>
    </g>
   </g>
   <g id="matplotlib.axis_12">
    <g id="ytick_28">
     <g id="line2d_112">
      <g>
       <use xlink:href="#mc402196290" x="789.54" y="448.253182" style="stroke: #000000; stroke-width: 0.8"/>
      </g>
     </g>
    </g>
    <g id="ytick_29">
     <g id="line2d_113">
      <g>
       <use xlink:href="#mc402196290" x="789.54" y="414.684617" style="stroke: #000000; stroke-width: 0.8"/>
      </g>
     </g>
    </g>
    <g id="ytick_30">
     <g id="line2d_114">
      <g>
       <use xlink:href="#mc402196290" x="789.54" y="381.116053" style="stroke: #000000; stroke-width: 0.8"/>
      </g>
     </g>
    </g>
    <g id="ytick_31">
     <g id="line2d_115">
      <g>
       <use xlink:href="#mc402196290" x="789.54" y="347.547488" style="stroke: #000000; stroke-width: 0.8"/>
      </g>
     </g>
    </g>
    <g id="ytick_32">
     <g id="line2d_116">
      <g>
       <use xlink:href="#mc402196290" x="789.54" y="313.978924" style="stroke: #000000; stroke-width: 0.8"/>
      </g>
     </g>
    </g>
    <g id="ytick_33">
     <g id="line2d_117">
      <g>
       <use xlink:href="#mc402196290" x="789.54" y="280.410359" style="stroke: #000000; stroke-width: 0.8"/>
      </g>
     </g>
    </g>
   </g>
   <g id="line2d_118">
    <path d="M 805.524545 320.965495 
L 816.180909 321.486881 
L 826.837273 320.965495 
L 837.493636 319.575133 
L 848.15 319.748928 
L 858.806364 319.575133 
L 869.462727 319.922724 
L 880.119091 319.748928 
L 890.775455 319.748928 
L 901.431818 320.617905 
L 912.088182 320.270314 
L 922.744545 320.44411 
L 933.400909 320.617905 
L 944.057273 321.834472 
L 954.713636 322.008267 
L 965.37 322.355858 
L 976.026364 323.051039 
L 986.682727 322.877244 
L 997.339091 323.74622 
L 1007.995455 324.441402 
L 1018.651818 324.962788 
L 1029.308182 324.962788 
L 1039.964545 325.484174 
L 1050.620909 326.526945 
L 1061.277273 326.526945 
L 1071.933636 326.00556 
L 1082.59 326.700741 
L 1093.246364 327.048331 
L 1103.902727 327.743513 
L 1114.559091 328.264899 
L 1125.215455 329.829056 
" clip-path="url(#pab14508ecb)" style="fill: none; stroke: #797979; stroke-width: 1.5; stroke-linecap: square"/>
   </g>
   <g id="line2d_119">
    <path d="M 805.524545 303.46347 
L 816.180909 303.848651 
L 826.837273 306.352331 
L 837.493636 307.315285 
L 848.15 307.893057 
L 858.806364 308.85601 
L 869.462727 310.396736 
L 880.119091 310.011555 
L 890.775455 310.781918 
L 901.431818 310.781918 
L 912.088182 312.322644 
L 922.744545 312.130053 
L 933.400909 314.05596 
L 944.057273 314.248551 
L 954.713636 315.211505 
L 965.37 316.75223 
L 976.026364 317.330003 
L 986.682727 318.485547 
L 997.339091 320.218864 
L 1007.995455 321.181817 
L 1018.651818 321.759589 
L 1029.308182 323.107725 
L 1039.964545 324.070678 
L 1050.620909 324.841041 
L 1061.277273 325.418813 
L 1071.933636 327.344721 
L 1082.59 328.885447 
L 1093.246364 330.233582 
L 1103.902727 331.003945 
L 1114.559091 332.737261 
L 1125.215455 334.085396 
" clip-path="url(#pab14508ecb)" style="fill: none; stroke: #d5bb67; stroke-width: 1.5; stroke-linecap: square"/>
   </g>
   <g id="line2d_120"/>
   <g id="line2d_121"/>
   <g id="patch_33">
    <path d="M 789.54 457.72 
L 789.54 249.45 
" style="fill: none; stroke: #000000; stroke-width: 0.8; stroke-linejoin: miter; stroke-linecap: square"/>
   </g>
   <g id="patch_34">
    <path d="M 1141.2 457.72 
L 1141.2 249.45 
" style="fill: none; stroke: #000000; stroke-width: 0.8; stroke-linejoin: miter; stroke-linecap: square"/>
   </g>
   <g id="patch_35">
    <path d="M 789.54 457.72 
L 1141.2 457.72 
" style="fill: none; stroke: #000000; stroke-width: 0.8; stroke-linejoin: miter; stroke-linecap: square"/>
   </g>
   <g id="patch_36">
    <path d="M 789.54 249.45 
L 1141.2 249.45 
" style="fill: none; stroke: #000000; stroke-width: 0.8; stroke-linejoin: miter; stroke-linecap: square"/>
   </g>
   <g id="legend_6">
    <g id="patch_37">
     <path d="M 796.54 452.72 
L 864.694687 452.72 
Q 866.694687 452.72 866.694687 450.72 
L 866.694687 422.36375 
Q 866.694687 420.36375 864.694687 420.36375 
L 796.54 420.36375 
Q 794.54 420.36375 794.54 422.36375 
L 794.54 450.72 
Q 794.54 452.72 796.54 452.72 
z
" style="fill: #ffffff; opacity: 0.8; stroke: #cccccc; stroke-linejoin: miter"/>
    </g>
    <g id="line2d_122">
     <path d="M 798.54 428.462188 
L 808.54 428.462188 
L 818.54 428.462188 
" style="fill: none; stroke: #797979; stroke-width: 1.5; stroke-linecap: square"/>
    </g>
    <g id="text_54">
     <!-- Female -->
     <g transform="translate(826.54 431.962188) scale(0.1 -0.1)">
      <use xlink:href="#DejaVuSans-46"/>
      <use xlink:href="#DejaVuSans-65" x="52.019531"/>
      <use xlink:href="#DejaVuSans-6d" x="113.542969"/>
      <use xlink:href="#DejaVuSans-61" x="210.955078"/>
      <use xlink:href="#DejaVuSans-6c" x="272.234375"/>
      <use xlink:href="#DejaVuSans-65" x="300.017578"/>
     </g>
    </g>
    <g id="line2d_123">
     <path d="M 798.54 443.140313 
L 808.54 443.140313 
L 818.54 443.140313 
" style="fill: none; stroke: #d5bb67; stroke-width: 1.5; stroke-linecap: square"/>
    </g>
    <g id="text_55">
     <!-- Male -->
     <g transform="translate(826.54 446.640313) scale(0.1 -0.1)">
      <use xlink:href="#DejaVuSans-4d"/>
      <use xlink:href="#DejaVuSans-61" x="86.279297"/>
      <use xlink:href="#DejaVuSans-6c" x="147.558594"/>
      <use xlink:href="#DejaVuSans-65" x="175.341797"/>
     </g>
    </g>
   </g>
  </g>
 </g>
 <defs>
  <clipPath id="pf30e6143e9">
   <rect x="57.62" y="26.88" width="351.66" height="208.27"/>
  </clipPath>
  <clipPath id="pf14abb3e21">
   <rect x="423.58" y="26.88" width="351.66" height="208.27"/>
  </clipPath>
  <clipPath id="p327c283f6c">
   <rect x="789.54" y="26.88" width="351.66" height="208.27"/>
  </clipPath>
  <clipPath id="p02c0c84ddd">
   <rect x="57.62" y="249.45" width="351.66" height="208.27"/>
  </clipPath>
  <clipPath id="p991ed9d38d">
   <rect x="423.58" y="249.45" width="351.66" height="208.27"/>
  </clipPath>
  <clipPath id="pab14508ecb">
   <rect x="789.54" y="249.45" width="351.66" height="208.27"/>
  </clipPath>
 </defs>
</svg>
